<?xml version="1.0" encoding="iso-8859-1"?>
<!-- Generator: Adobe Illustrator 15.1.0, SVG Export Plug-In . SVG Version: 6.00 Build 0)  -->
<!DOCTYPE svg PUBLIC "-//W3C//DTD SVG 1.1//EN" "http://www.w3.org/Graphics/SVG/1.1/DTD/svg11.dtd">
<svg version="1.1" id="Layer_1" xmlns="http://www.w3.org/2000/svg" xmlns:xlink="http://www.w3.org/1999/xlink" x="0px" y="0px"
	 width="280px" height="121.493px" viewBox="0 0 280 121.493" style="enable-background:new 0 0 280 121.493;" xml:space="preserve"
	>
<polygon style="fill:#FCF9BA;" points="168,82 149,94 136,94 110,71 85.403,100.613 63.162,105.482 59.047,100.613 67.099,86.561 
	65.656,80.375 43.781,85 18,64 18,43 43.979,26 69.099,17 91.355,19.068 113.025,49.5 170.012,41 182.006,42 188.003,57 
	230.424,45.12 261,52 261,65 240,77 218,100 199,100 "/>
<polygon style="fill:#FCF9BA;" points="776.873,421.484 710.586,426.917 696.945,417.175 724.226,405.482 716.344,397.037 
	723.576,385.996 696.945,376.253 661.87,368.459 619,362.613 619,344.101 659.921,323.64 706.094,328.363 717.082,332.733 
	751.506,334.682 767.095,318.444 794.375,315.196 823.605,310 850.886,329.486 845.82,345.465 800.222,352.22 820.288,374.197 
	819.409,388.394 "/>
<polygon style="fill:#FCF9BA;" points="377.529,585.271 293.586,576.917 279.945,567.175 307.226,555.482 299.344,547.037 
	306.576,535.996 339.945,526.253 334.87,515.459 292,509.613 292,491.101 332.921,470.641 349.094,478.363 360.082,482.733 
	394.506,502.682 410.095,486.444 437.375,483.195 466.578,490.549 493.886,497.486 488.82,513.465 492.699,539.057 476.437,553.93 
	462.409,556.394 "/>
<polygon style="fill:#FCF9BA;" points="211.414,275.312 230.061,262.77 243.056,262.395 255.582,272.849 261.441,251.328 
	283.533,245.821 287.786,250.569 312.143,267.848 313.762,273.989 335.496,268.737 361.87,288.986 362.475,309.977 336.997,327.718 
	291.146,310.438 268.839,309.011 205.466,330.91 137.583,317.353 125.566,316.698 119.139,301.877 150.078,276.973 119.316,270.977 
	118.942,257.982 139.588,245.382 160.917,258.758 179.909,258.211 "/>
</svg>
