<?xml version="1.0" encoding="iso-8859-1"?>
<!-- Generator: Adobe Illustrator 15.1.0, SVG Export Plug-In . SVG Version: 6.00 Build 0)  -->
<!DOCTYPE svg PUBLIC "-//W3C//DTD SVG 1.1//EN" "http://www.w3.org/Graphics/SVG/1.1/DTD/svg11.dtd">
<svg version="1.1" xmlns="http://www.w3.org/2000/svg" xmlns:xlink="http://www.w3.org/1999/xlink" x="0px" y="0px"
	 width="450.173px" height="313.313px" viewBox="0 0 450.173 313.313" style="enable-background:new 0 0 450.173 313.313;"
	 xml:space="preserve">
<g id="Layer_7">
	<g>
		<path style="fill:#FF551A;" d="M296.4,239.729c-20.209,8.842-30.822,9.736-83.614,1.182
			c-22.061-3.577-50.456,43.806-70.176,44.664c-5.705,0.247-21.994-1.215-30.444-4.393c-1.992-0.752,17.216-60.207,8.802-58.833
			c-12.946,2.116-28.481,5.131-31.198,4.079c-19.302-7.481,4.285-42.615,4.285-42.615s25.637-63.903,78.431-94.575
			C225.28,58.568,286.41,54.319,286.41,54.319s49.656-46.457,72.106-50.284c22.447-3.827,61.479,15.033,63.524,50.58
			C424.091,90.164,364.686,209.853,296.4,239.729z"/>
		<path style="fill:#FFF8A6;" d="M286.459,243.612c0,0-16.606,7.146-37.549,5.281c-13.599-1.216-28.733-14.055-43.334-8.477
			c-21.206,8.101-27.873,22.256-44.643,32.628c-10.608,6.562-26.42,2.377-33.253-0.817c9.705-35.185,18.106-47.506,36.675-57.68
			c18.565-10.174,69.596-21.25,106.579-51.246c23.576-19.118,48.305-88.451,48.305-88.451s33.215-66.009,76.145-55.848
			c48.904,11.578,14.574,83.608,7.297,98.882c-7.275,15.274-21.819,49.9-48.262,78.504
			C327.98,224.992,286.459,243.612,286.459,243.612z"/>
		<path style="fill:#736357;" d="M440.352,81.574l-25.512,8.107c0,0,2.271,0.37,3.842-15.302
			c1.584-15.819,1.619-14.974,1.619-14.974l11.557,11.138L440.352,81.574z"/>
		<path style="fill:#736357;" d="M450.173,63.689l-28.165,12.13c0,0-0.671-0.697-1.707-16.413
			c-1.051-15.864,3.565-13.034,3.565-13.034l13.239,9.078L450.173,63.689z"/>
		<path style="fill:none;stroke:#442A2C;stroke-width:7;stroke-miterlimit:10;" d="M296.4,239.729
			c-20.209,8.842-30.822,9.736-83.614,1.182c-22.061-3.577-50.456,43.806-70.176,44.664c-5.705,0.247-21.994-1.215-30.444-4.393
			c-1.992-0.752,17.216-60.207,8.802-58.833c-12.946,2.116-28.481,5.131-31.198,4.079c-19.302-7.481,4.285-42.615,4.285-42.615
			s25.637-63.903,78.431-94.575C225.28,58.568,286.41,54.319,286.41,54.319s49.656-46.457,72.106-50.284
			c22.447-3.827,61.306,12.911,63.353,48.458c0.211,3.643-0.691,14.418-5.605,32.318C402.383,135.379,350.971,215.854,296.4,239.729
			z"/>
		<g>
			<path style="fill:#442A2C;" d="M105.985,168.355c-2.109,3.352-4.067,7.154-5.367,10.851c-0.644,1.851-1.123,3.729-1.232,5.409
				c-0.054,0.833-0.009,1.608,0.141,2.22c0.148,0.624,0.372,1.059,0.694,1.422c0.601,0.729,2.099,1.268,3.905,1.355
				c1.799,0.106,3.8-0.118,5.796-0.489c4.011-0.765,8.066-2.094,12.054-3.593l6.871-2.582l-4.02,6.009
				c-1.523,2.276-2.918,4.944-3.801,7.564c-0.879,2.61-1.267,5.441-0.241,7.439c0.956,2.019,3.598,3.113,6.391,3.46
				c2.814,0.372,5.802,0.195,8.752-0.165c5.926-0.759,11.812-2.292,17.611-4.031c5.802-1.76,11.533-3.796,17.216-5.958
				c-5.535,2.522-11.13,4.922-16.842,7.062c-5.719,2.12-11.536,4.05-17.621,5.232c-3.045,0.565-6.162,0.973-9.408,0.762
				c-1.619-0.12-3.287-0.396-4.926-1.083c-1.624-0.67-3.239-1.88-4.221-3.561c-1.001-1.666-1.334-3.564-1.337-5.304
				c-0.003-1.756,0.295-3.419,0.711-5.012c0.42-1.593,0.975-3.116,1.608-4.596c0.65-1.495,1.324-2.878,2.196-4.354l2.85,3.425
				c-4.04,1.815-8.177,3.492-12.648,4.649c-2.243,0.563-4.569,1.013-7.122,1.039c-1.276,0.001-2.616-0.1-4.025-0.481
				c-1.395-0.374-2.895-1.07-4.14-2.226c-1.252-1.143-2.124-2.668-2.577-4.131c-0.469-1.473-0.606-2.893-0.614-4.227
				c0.006-2.674,0.506-5.073,1.131-7.37c0.637-2.293,1.439-4.473,2.334-6.596c0.911-2.138,1.859-4.146,3.023-6.261L105.985,168.355z
				"/>
		</g>
		<g>
			<path style="fill:#442A2C;" d="M140.827,118.3c-5.974,6.614-11.77,13.529-17.043,20.691c-2.617,3.589-5.131,7.267-7.181,11.057
				c-1.007,1.884-1.917,3.839-2.385,5.655c-0.233,0.89-0.309,1.767-0.208,2.235c0.047,0.237,0.104,0.328,0.153,0.395
				c0.049,0.065,0.147,0.155,0.389,0.25c0.479,0.196,1.378,0.273,2.309,0.201c0.941-0.063,1.954-0.243,2.969-0.476
				c2.041-0.476,4.113-1.168,6.165-1.94c4.11-1.559,8.167-3.443,12.175-5.43c8.015-3.998,15.86-8.441,23.624-13.019l9.505-5.603
				l-7.011,8.486c-5.182,6.271-10.197,12.775-14.812,19.478c-2.293,3.36-4.5,6.783-6.386,10.321
				c-0.933,1.766-1.795,3.574-2.389,5.385c-0.292,0.898-0.515,1.81-0.556,2.619c-0.02,0.398,0.009,0.77,0.089,1.039
				c0.082,0.274,0.182,0.429,0.334,0.558c0.287,0.27,1.081,0.427,1.943,0.36c0.868-0.055,1.805-0.255,2.733-0.513
				c1.865-0.528,3.73-1.285,5.564-2.11c3.672-1.67,7.252-3.638,10.779-5.691c7.053-4.128,13.912-8.636,20.692-13.252l4.104-2.794
				l-2.751,4.123c-4.504,6.747-8.724,13.771-12.201,21.103c-1.693,3.673-3.276,7.458-3.987,11.382
				c-0.312,1.925-0.428,4.025,0.491,5.598c0.457,0.771,1.204,1.313,2.093,1.584c0.887,0.277,1.873,0.322,2.853,0.253
				c1.969-0.146,3.932-0.696,5.841-1.35c1.913-0.663,3.785-1.463,5.629-2.324c3.688-1.729,7.264-3.708,10.782-5.779
				c7.03-4.162,13.83-8.717,20.531-13.401c-6.609,4.816-13.32,9.505-20.283,13.813c-3.486,2.147-7.034,4.202-10.718,6.021
				c-1.843,0.905-3.72,1.751-5.658,2.467c-1.938,0.705-3.937,1.316-6.05,1.517c-1.053,0.092-2.148,0.078-3.226-0.233
				c-1.073-0.296-2.111-1.002-2.717-1.992c-0.618-0.982-0.851-2.104-0.927-3.178c-0.071-1.078,0.016-2.142,0.168-3.183
				c0.67-4.157,2.214-8.021,3.859-11.792c3.388-7.518,7.479-14.638,11.915-21.578l1.353,1.329
				c-6.713,4.765-13.507,9.426-20.559,13.741c-3.532,2.147-7.122,4.218-10.898,6.027c-1.894,0.896-3.828,1.734-5.907,2.368
				c-1.043,0.31-2.121,0.574-3.304,0.677c-0.592,0.046-1.215,0.05-1.884-0.057c-0.661-0.111-1.404-0.349-2.061-0.86
				c-0.664-0.503-1.127-1.266-1.338-1.973c-0.222-0.716-0.26-1.386-0.245-2.011c0.044-1.248,0.316-2.349,0.63-3.41
				c0.65-2.109,1.538-4.038,2.481-5.924c1.907-3.754,4.096-7.291,6.366-10.762c4.573-6.928,9.475-13.551,14.634-20.052l2.493,2.883
				c-7.723,4.76-15.536,9.392-23.627,13.628c-4.052,2.108-8.166,4.125-12.481,5.859c-2.162,0.861-4.371,1.655-6.725,2.256
				c-1.181,0.294-2.397,0.544-3.709,0.662c-1.312,0.099-2.731,0.147-4.395-0.42c-0.819-0.288-1.716-0.805-2.415-1.592
				c-0.705-0.781-1.128-1.755-1.315-2.62c-0.363-1.758-0.115-3.184,0.165-4.482c0.623-2.58,1.636-4.76,2.705-6.883
				c2.174-4.211,4.713-8.063,7.345-11.831c5.309-7.508,11.009-14.586,17.02-21.513L140.827,118.3z"/>
		</g>
		<g>
			<path style="fill:#442A2C;" d="M156.429,103.926c-1.147,1.251-2.301,3.025-2.612,4.287c-0.165,0.651-0.1,0.975-0.024,1.133
				c0.063,0.175,0.406,0.526,1.083,0.824c1.357,0.601,3.389,0.858,5.378,0.917c2.02,0.063,4.116-0.05,6.216-0.244
				c4.211-0.397,8.461-1.119,12.693-1.963c4.233-0.85,8.457-1.839,12.667-2.904l8.578-2.171l-6.363,6.071
				c-4.859,4.635-9.679,9.374-13.807,14.494c-1.017,1.283-1.983,2.596-2.788,3.928c-0.396,0.664-0.758,1.337-1.016,1.98
				c-0.264,0.631-0.403,1.273-0.374,1.589c0.014,0.158,0.03,0.195,0.046,0.222c0.011,0.026,0.072,0.098,0.247,0.183
				c0.351,0.177,1.029,0.292,1.733,0.305c1.439,0.031,3.049-0.215,4.633-0.533c3.188-0.661,6.391-1.651,9.56-2.728
				c3.17-1.083,6.32-2.276,9.451-3.523c6.264-2.499,12.459-5.212,18.617-8.01l9.854-4.478l-8.545,6.611
				c-6.324,4.893-12.491,10.106-18.164,15.747c-2.812,2.839-5.543,5.791-7.748,9.059c-1.07,1.628-2.063,3.378-2.384,5.176
				c-0.151,0.89-0.077,1.767,0.353,2.453c0.421,0.695,1.185,1.198,2.049,1.528c1.753,0.653,3.773,0.764,5.744,0.75
				c1.986-0.026,3.981-0.218,5.966-0.483c3.974-0.54,7.919-1.366,11.837-2.302c7.833-1.887,15.566-4.215,23.244-6.689
				c-7.611,2.674-15.282,5.203-23.09,7.301c-3.906,1.038-7.844,1.974-11.854,2.624c-2.005,0.32-4.027,0.568-6.076,0.651
				c-2.045,0.058-4.139,0.029-6.208-0.672c-1.014-0.356-2.071-0.962-2.741-1.991c-0.681-1.027-0.785-2.296-0.625-3.383
				c0.348-2.206,1.387-4.063,2.464-5.82c2.226-3.487,4.931-6.556,7.714-9.518c5.624-5.888,11.67-11.274,17.975-16.42l1.31,2.133
				c-6.11,2.971-12.264,5.856-18.525,8.548c-3.133,1.342-6.292,2.636-9.506,3.827c-3.22,1.186-6.476,2.295-9.908,3.102
				c-1.726,0.388-3.478,0.729-5.435,0.746c-0.981-0.011-2.029-0.063-3.239-0.566c-0.595-0.259-1.254-0.688-1.75-1.345
				c-0.505-0.648-0.755-1.451-0.822-2.132c-0.117-1.386,0.216-2.424,0.55-3.366c0.35-0.939,0.778-1.772,1.228-2.576
				c0.908-1.593,1.923-3.038,2.974-4.44c4.247-5.551,9.007-10.46,13.824-15.306l2.213,3.9c-4.238,1.189-8.505,2.309-12.822,3.292
				c-4.321,0.979-8.684,1.842-13.171,2.384c-2.247,0.267-4.521,0.454-6.875,0.445c-1.178-0.008-2.376-0.063-3.615-0.226
				c-1.238-0.166-2.521-0.42-3.878-0.971c-0.678-0.283-1.378-0.645-2.065-1.168c-0.681-0.519-1.351-1.222-1.835-2.086
				c-0.488-0.859-0.756-1.844-0.825-2.749c-0.07-0.91,0.032-1.744,0.2-2.497c0.35-1.506,0.943-2.731,1.594-3.855
				c0.675-1.135,1.352-2.095,2.257-3.138L156.429,103.926z"/>
		</g>
		<path style="fill:#442A2C;stroke:#442A2C;stroke-miterlimit:10;" d="M380.194,47.793l4.529-8.928
			c-1.135-2.906-2.946-4.755-4.886-4.645c-3.012,0.171-5.184,5.059-4.852,10.899c0.334,5.841,3.043,10.389,6.053,10.218
			c2.464-0.141,4.397-2.835,4.789-7.865L380.194,47.793z"/>
		<g>
			<g>
				<polygon style="fill:#442A2C;" points="275.863,290.452 249.501,283.378 235.307,284.253 191.399,311.391 158.483,313.122 
					108.09,296.223 56.392,299.403 30.391,297.833 -0.318,285.273 -80.964,294.518 -2.774,217.091 55.49,241.822 112.532,253.45 
					163.706,281.009 177.231,281.566 230.539,264.535 257.28,267.467 276.478,276.43 308.816,273.396 310.712,276.36 				"/>
				<polygon style="fill:#6D533A;" points="275.863,290.452 249.501,283.378 235.307,284.253 191.399,311.391 158.483,313.122 
					108.09,296.223 56.392,299.403 30.391,297.833 -13.02,305.712 -80.964,294.518 -9.612,276.24 32.338,286.795 56.026,290.875 
					69.491,284.714 100.47,283.774 114.167,291.556 149.991,302.41 168.102,302.49 192.987,302.011 235.355,278.07 246.936,276.875 
					255.768,281.415 275.215,287.354 301.834,277.683 310.712,276.36 				"/>
			</g>
		</g>
		
			<line style="fill:none;stroke:#442A2C;stroke-width:8;stroke-miterlimit:10;" x1="224.168" y1="242.707" x2="231.059" y2="271.796"/>
		
			<line style="fill:none;stroke:#442A2C;stroke-width:6;stroke-miterlimit:10;" x1="249.83" y1="245.893" x2="251.08" y2="267.856"/>
		<path style="fill:none;" d="M242.853,313.313"/>
		<g>
			<path style="fill:#442A2C;" d="M232.426,283.055c-0.728-0.863-1.32-1.744-1.838-2.632c-0.516-0.89-0.98-1.785-1.373-2.689
				c-0.809-1.806-1.396-3.639-1.867-5.485l-1.133-4.441l5.482,0.309c3.374,0.188,6.674,0.804,9.893,1.886
				c1.607,0.547,3.193,1.215,4.752,2.054c1.555,0.859,3.092,1.812,4.557,3.187c-1.841,0.8-3.609,1.178-5.363,1.463
				c-1.749,0.265-3.468,0.359-5.167,0.333c-3.396-0.066-6.708-0.596-9.948-1.556l4.351-4.134c-0.017,1.907-0.148,3.826-0.501,5.772
				c-0.164,0.972-0.402,1.953-0.689,2.94C233.291,281.047,232.927,282.042,232.426,283.055z"/>
		</g>
		<g>
			<polygon style="fill:#442A2C;" points="230.446,272.093 210.441,271.126 229.229,264.186 			"/>
		</g>
		<g>
			<polygon style="fill:#442A2C;" points="250.994,270.464 239.533,265.112 251.912,262.517 			"/>
		</g>
		<g>
			<path style="fill:#442A2C;" d="M231.769,271.317c1.899-0.258,3.475-0.011,4.953,0.388c1.464,0.42,2.804,1.032,4.032,1.821
				c1.23,0.784,2.344,1.747,3.334,2.904c0.979,1.178,1.855,2.51,2.407,4.352c-1.903,0.262-3.48,0.018-4.958-0.383
				c-1.464-0.42-2.802-1.035-4.027-1.828c-1.227-0.791-2.34-1.754-3.33-2.911C233.203,274.481,232.324,273.151,231.769,271.317z"/>
		</g>
		<g>
			<path style="fill:#442A2C;" d="M253.247,268.2c1.658-0.43,3-0.352,4.249-0.122c1.234,0.249,2.348,0.696,3.348,1.321
				c1.006,0.618,1.898,1.418,2.668,2.416c0.758,1.017,1.416,2.189,1.759,3.874c-1.663,0.437-3.007,0.361-4.253,0.131
				c-1.235-0.25-2.347-0.7-3.346-1.33c-1.001-0.623-1.893-1.425-2.662-2.422C254.255,271.049,253.593,269.878,253.247,268.2z"/>
		</g>
		<g>
			<path style="fill:#442A2C;" d="M251.354,273.762c-1.068-0.989-1.74-1.961-2.269-2.925c-0.255-0.481-0.473-0.962-0.652-1.44
				c-0.168-0.479-0.33-0.956-0.427-1.431l-0.686-3.382l4.886-0.014c3.063-0.008,6.046,0.481,8.946,1.454
				c1.449,0.495,2.874,1.134,4.273,1.934c1.396,0.811,2.766,1.78,4.072,3.143c-1.675,0.868-3.285,1.344-4.869,1.66
				c-1.582,0.305-3.137,0.448-4.668,0.449c-3.06-0.017-6.041-0.514-8.937-1.512l4.198-3.397c-0.141,0.465-0.346,0.925-0.558,1.385
				c-0.222,0.459-0.483,0.919-0.782,1.374C253.269,271.971,252.51,272.876,251.354,273.762z"/>
		</g>
	</g>
</g>
<g id="Layer_1">
</g>
</svg>
