<?xml version="1.0" encoding="iso-8859-1"?>
<!-- Generator: Adobe Illustrator 15.1.0, SVG Export Plug-In . SVG Version: 6.00 Build 0)  -->
<!DOCTYPE svg PUBLIC "-//W3C//DTD SVG 1.1//EN" "http://www.w3.org/Graphics/SVG/1.1/DTD/svg11.dtd">
<svg version="1.1" id="Layer_1" xmlns="http://www.w3.org/2000/svg" xmlns:xlink="http://www.w3.org/1999/xlink" x="0px" y="0px"
	 width="1366px" height="682px" viewBox="0 0 1366 682" style="enable-background:new 0 0 1366 682;" xml:space="preserve">
<g id="Layer_5">
	
		<linearGradient id="SVGID_1_" gradientUnits="userSpaceOnUse" x1="-3.0554" y1="278.5564" x2="-182.9811" y2="377.5033" gradientTransform="matrix(1 0 0 -1 262.52 726.4009)">
		<stop  offset="0" style="stop-color:#FFFFFF"/>
		<stop  offset="0.2744" style="stop-color:#FFFFFC"/>
		<stop  offset="0.5003" style="stop-color:#FEFEF2"/>
		<stop  offset="0.7088" style="stop-color:#FEFCE0"/>
		<stop  offset="0.9059" style="stop-color:#FDFAC8"/>
		<stop  offset="1" style="stop-color:#FCF9BA"/>
	</linearGradient>
	<polygon style="fill:url(#SVGID_1_);" points="52.437,361 30.781,361 20.136,354.418 10.532,322.462 -24.842,334.204 
		-45.576,326.842 -46.462,320.772 -32.672,313.405 -30.685,307.607 -51.072,300.12 -61.521,269.647 -50.755,252.451 
		-20.667,251.911 4.568,257.451 21.759,270.569 23.916,306.606 74.944,328.864 84.255,335.832 81.479,351.191 122.306,363.211 
		143.817,384.52 137.153,395.163 113.854,394.146 84.099,401.623 68.54,391.8 	"/>
	<polygon style="fill:#FCF9BA;" points="121.224,698.675 299.328,693.948 329.556,675.519 273.883,646.706 291.781,630.125 
		278.239,605.759 209.442,580.117 221.992,558.174 313.393,552.448 316.23,513.45 232.966,464.064 197.613,477.845 173.748,485.362 
		98.151,522.104 67.79,485.509 10.817,474.481 -51.829,485.494 -110.417,495.922 -102.197,530.356 -114.292,583.67 -82.315,617.492 
		-53.145,624.832 	"/>
	
		<linearGradient id="SVGID_2_" gradientUnits="userSpaceOnUse" x1="657.7068" y1="226.6965" x2="885.3298" y2="403.8187" gradientTransform="matrix(1 0 0 -1 262.52 726.4009)">
		<stop  offset="0" style="stop-color:#FFFFFF"/>
		<stop  offset="0.2744" style="stop-color:#FFFFFC"/>
		<stop  offset="0.5003" style="stop-color:#FEFEF2"/>
		<stop  offset="0.7088" style="stop-color:#FEFCE0"/>
		<stop  offset="0.9059" style="stop-color:#FDFAC8"/>
		<stop  offset="1" style="stop-color:#FCF9BA"/>
	</linearGradient>
	<polygon style="fill:url(#SVGID_2_);" points="1209.9,356.868 1149.028,383.666 1132.953,378.918 1154.914,358.951 
		1144.705,353.547 1147.932,340.747 1119.579,340.242 1083.883,344.34 1041.457,352.824 1035.406,335.328 1067.394,302.618 
		1112.574,291.993 1124.388,292.532 1157.558,283.124 1166.984,262.683 1191.705,250.697 1217.634,236.234 1249.783,245.735 
		1250.219,262.492 1209.33,283.778 1235.478,297.99 1239.286,311.695 	"/>
	
		<linearGradient id="SVGID_3_" gradientUnits="userSpaceOnUse" x1="204.1394" y1="264.0652" x2="104.3741" y2="318.0312" gradientTransform="matrix(1 0 0 -1 262.52 726.4009)">
		<stop  offset="0" style="stop-color:#FFFFFF"/>
		<stop  offset="0.2744" style="stop-color:#FFFFFC"/>
		<stop  offset="0.5003" style="stop-color:#FEFEF2"/>
		<stop  offset="0.7088" style="stop-color:#FEFCE0"/>
		<stop  offset="0.9059" style="stop-color:#FDFAC8"/>
		<stop  offset="1" style="stop-color:#FCF9BA"/>
	</linearGradient>
	<polygon style="fill:url(#SVGID_3_);" points="433.4,439.82 444.054,437.203 450.074,439.216 454.059,446.113 460.361,437.232 
		471.413,438.421 472.563,441.312 480.824,453.323 480.534,456.41 491.38,457.656 500.065,471.369 496.816,481.092 482.156,484.942 
		464.045,469.318 454.058,464.915 421.331,464.304 392.494,446.684 387.096,444.364 386.64,436.49 405.006,430.273 391.914,422.357 
		393.927,416.337 405.507,414.031 413.035,423.744 421.832,426.688 	"/>
	
		<linearGradient id="SVGID_4_" gradientUnits="userSpaceOnUse" x1="570.7278" y1="254.6667" x2="687.0696" y2="441.339" gradientTransform="matrix(0.9783 0.2074 0.2074 -0.9783 203.1604 594.9535)">
		<stop  offset="0" style="stop-color:#FFFFFF"/>
		<stop  offset="0.2744" style="stop-color:#FFFFFC"/>
		<stop  offset="0.5003" style="stop-color:#FEFEF2"/>
		<stop  offset="0.7088" style="stop-color:#FEFCE0"/>
		<stop  offset="0.9059" style="stop-color:#FDFAC8"/>
		<stop  offset="1" style="stop-color:#FCF9BA"/>
	</linearGradient>
	<polygon style="fill:url(#SVGID_4_);" points="880.015,386.387 886.48,374.428 892.677,368.01 910.207,360.091 915.379,341.515 
		924.947,329.46 927.998,328.476 927.259,335.488 929.327,336.11 938.847,324.239 955.951,315.975 960.625,320.513 951.89,337.087 
		941.815,351.477 930.664,362.045 913.486,366.185 888.041,396.187 882.063,401.902 875.843,401.624 858.14,425.156 
		841.942,438.781 839.05,435.971 846.471,423.02 851.925,407.199 861.076,397.801 	"/>
	<polygon style="fill:#FCF9BA;" points="528.609,634.693 520.896,638.56 515.916,638.085 506.783,628.404 496.277,638.894 
		487.577,639.969 486.177,637.965 489.772,632.878 489.444,630.456 480.847,631.431 471.686,622.443 472.449,614.396 
		483.069,608.832 493.046,606.301 501.51,607.904 508.712,620.354 530.858,619.17 535.419,619.99 537.173,625.954 553.858,622.947 
		565.323,626.696 564.85,631.677 556.371,635.473 547.108,643.448 539.829,642.757 	"/>
	<polygon style="fill:#FCF9BA;" points="914.745,527.436 907.528,535.696 901.445,537.509 894.221,534.152 894.164,545.041 
		884.436,550.42 881.832,548.714 868.17,543.627 866.635,540.933 857.041,546.145 842.054,539.91 839.129,530.085 848.916,518.513 
		872.717,520.896 883.42,518.762 910.558,500.462 944.284,498.317 950.034,497.114 954.932,503.298 943.47,518.938 958.734,517.896 
		960.545,523.979 952.392,532.519 940.648,528.893 931.76,531.538 	"/>
	
		<linearGradient id="SVGID_5_" gradientUnits="userSpaceOnUse" x1="87.7102" y1="385.8606" x2="-128.241" y2="589.7578" gradientTransform="matrix(1 0 0 -1 262.52 726.4009)">
		<stop  offset="0" style="stop-color:#FFFFFF"/>
		<stop  offset="0.2744" style="stop-color:#FFFFFC"/>
		<stop  offset="0.5003" style="stop-color:#FEFEF2"/>
		<stop  offset="0.7088" style="stop-color:#FEFCE0"/>
		<stop  offset="0.9059" style="stop-color:#FDFAC8"/>
		<stop  offset="1" style="stop-color:#FCF9BA"/>
	</linearGradient>
	<polygon style="fill:url(#SVGID_5_);" points="-7.723,164.56 -80.526,63.369 -78.07,32.047 -32.922,64.55 -26.98,43.729 
		-2.26,44.669 -12.357,-7.513 -33.75,-71.372 -65.806,-145.862 -36.078,-163.758 36.334,-117.826 73.386,-39.119 76.991,-17.25 
		107.141,39.912 148.284,49.247 179.874,89.913 216.474,131.829 211.554,194.472 181,201.785 126.073,135.092 110.179,188.562 
		86.533,200.873 	"/>
	
		<linearGradient id="SVGID_6_" gradientUnits="userSpaceOnUse" x1="880.5183" y1="491.8821" x2="1049.9" y2="631.3553" gradientTransform="matrix(1 0 0 -1 262.52 726.4009)">
		<stop  offset="0" style="stop-color:#FFFFFF"/>
		<stop  offset="0.2744" style="stop-color:#FFFFFC"/>
		<stop  offset="0.5003" style="stop-color:#FEFEF2"/>
		<stop  offset="0.7088" style="stop-color:#FEFCE0"/>
		<stop  offset="0.9059" style="stop-color:#FDFAC8"/>
		<stop  offset="1" style="stop-color:#FCF9BA"/>
	</linearGradient>
	<polygon style="fill:url(#SVGID_6_);" points="1344.262,-75.151 1284.57,-67.714 1280.439,-42.609 1312.105,-25.137 
		1311.832,-4.519 1326.189,17.354 1311.161,46.235 1287.584,73.331 1256.006,98.459 1269.903,138.648 1319.595,171.193 
		1354.786,147.546 1360.725,134.87 1388.144,120.654 1413.411,151.38 1438.738,150.52 1467.161,153.32 1475.421,103.102 
		1459.177,69.882 1415.848,68.447 1416.186,14.913 1404.789,-15.655 	"/>
	<polygon style="fill:#FCF9BA;" points="759.353,616 755.981,619.101 753.375,619.576 750.527,617.855 750.01,622.373 
		745.727,624.163 744.724,623.338 739.282,620.605 738.768,619.416 734.55,621.146 728.611,617.877 727.844,613.664 
		732.431,609.306 742.203,611.375 746.742,610.977 758.84,604.612 772.937,605.254 775.379,605.016 777.132,607.806 
		771.662,613.777 778.048,614.036 778.521,616.646 774.75,619.82 770.039,617.78 766.229,618.476 	"/>
	
		<linearGradient id="SVGID_7_" gradientUnits="userSpaceOnUse" x1="332.7839" y1="288.009" x2="122.5945" y2="671.5898" gradientTransform="matrix(1 0 0 -1 262.52 726.4009)">
		<stop  offset="0" style="stop-color:#FFFFFF"/>
		<stop  offset="0.2744" style="stop-color:#FFFFFC"/>
		<stop  offset="0.5003" style="stop-color:#FEFEF2"/>
		<stop  offset="0.7088" style="stop-color:#FEFCE0"/>
		<stop  offset="0.9059" style="stop-color:#FDFAC8"/>
		<stop  offset="1" style="stop-color:#FCF9BA"/>
	</linearGradient>
	<polygon style="fill:url(#SVGID_7_);" points="273.87,-179.9 325.463,-156.432 347.624,-129.538 351.14,-89.995 396.355,-104.756 
		442.058,-65.167 441.269,-50.24 453.143,22.808 445.693,33.947 490.386,73.105 500.698,154.14 467.08,181.838 395.581,150.521 
		348.087,32.222 313.462,-16.552 172.298,-122.432 82.144,-282.443 63.304,-308.573 77.097,-340.772 169.464,-306.977 
		128.362,-379.299 149.18,-396.453 204.187,-368.837 217.477,-307.089 249.852,-267.781 	"/>
	
		<linearGradient id="SVGID_8_" gradientUnits="userSpaceOnUse" x1="454.7493" y1="323.9758" x2="750.0438" y2="732.1951" gradientTransform="matrix(1 0 0 -1 262.52 726.4009)">
		<stop  offset="0" style="stop-color:#FFFFFF"/>
		<stop  offset="0.2744" style="stop-color:#FFFFFC"/>
		<stop  offset="0.5003" style="stop-color:#FEFEF2"/>
		<stop  offset="0.7088" style="stop-color:#FEFCE0"/>
		<stop  offset="0.9059" style="stop-color:#FDFAC8"/>
		<stop  offset="1" style="stop-color:#FCF9BA"/>
	</linearGradient>
	<polygon style="fill:url(#SVGID_8_);" points="1010.493,-30.812 1005.59,-87.279 1018.127,-119.793 1050.841,-142.282 
		1015.77,-174.413 1027.803,-233.67 1041.19,-240.315 1098.981,-286.544 1112.344,-285.528 1124.494,-343.692 1190.011,-392.485 
		1230.65,-376.81 1238.5,-299.149 1158.793,-199.666 1133.321,-145.545 1110.447,29.425 1015.367,186.559 1001.864,215.806 
		967.041,219.61 951.1,122.555 908.3,193.886 883.132,184.18 880.16,122.703 927.416,80.792 945.748,33.281 	"/>
</g>
<g id="Layer_1_1_">
</g>
</svg>
