<?xml version="1.0" encoding="iso-8859-1"?>
<!-- Generator: Adobe Illustrator 15.1.0, SVG Export Plug-In . SVG Version: 6.00 Build 0)  -->
<!DOCTYPE svg PUBLIC "-//W3C//DTD SVG 1.1//EN" "http://www.w3.org/Graphics/SVG/1.1/DTD/svg11.dtd">
<svg version="1.1" id="Layer_1" xmlns="http://www.w3.org/2000/svg" xmlns:xlink="http://www.w3.org/1999/xlink" x="0px" y="0px"
	 width="1366px" height="1534px" viewBox="0 0 1366 1534" style="enable-background:new 0 0 1366 1534;" xml:space="preserve">
<path style="fill:#FDFDFD;" d="M233,798c6,5,11,5,19,7c2,0,3,6,5,6c4.273,0.214,8.453,0.759,12.583,1.495
	c-6.454-11.644-17.181-9.622-17.181-9.622l-7.637-0.673c-4.28-6.895-14.551-5.833-18.27-5.188
	C228.909,796.759,231.472,796.472,233,798z"/>
<path style="fill:#FDFDFD;" d="M208.421,918.459c0.055-0.627-1.045-0.934-2.579-1.061C207.331,918.462,208.373,919,208.421,918.459z
	"/>
<path style="fill:#FDFDFD;" d="M37.319,900.707c2.29,0.202,4.508,0.076,6.601-0.255C36.818,899.271,29.819,900.046,37.319,900.707z"
	/>
<path style="fill:#FDFDFD;" d="M135.967,962.947C136,963.625,136,964.363,136,965C136.162,964.191,136.125,963.524,135.967,962.947z
	"/>
<path style="fill:#FDFDFD;" d="M135.967,962.947c-0.069-1.452-0.286-2.629-0.967-1.947c-0.145,0-0.273-0.006-0.416-0.007
	C135.239,961.492,135.74,962.118,135.967,962.947z"/>
<path style="fill:#FDFDFD;" d="M107,953c0.625-1.667,1.124-3.322,1.515-4.963C107.379,949.208,106.585,950.928,107,953z"/>
<path style="fill:#FDFDFD;" d="M140.396,949.479c2.295-6.633,2.771-12.006,2.771-12.006c-0.378-0.62-0.795-1.185-1.231-1.725
	C139.739,939.567,139.079,944.706,140.396,949.479z"/>
<path style="fill:#FDFDFD;" d="M207,980c-0.315,0.631-0.133,1.162,0.233,1.656C207.178,981.026,207,980.423,207,980z"/>
<path style="fill:#FDFDFD;" d="M358.667,691l7.333,3.333c0,0-4.667-2-3.667-11.333c0,0,20.333,1.333,22.333,5.667
	c0,0-2.667-13.667,5.333-11.667c0,0,7.333,0,12.667,2.667c0,0,3.334-7.333,10.667-8c0,0,7.333,0.667,6.667,11.333
	c0,0-2.667,5.333-4.667,4.667c0,0,16,6.334,22,13.334H422c0,0,34,5.333,40,11.333c0,0-3.333,8-17.333,4.667
	c0,0,35.333,8.667,41.333,14l3.333,7.333l6-4.667c0,0,8,0,9.333,8l4,6c0,0-5.333,0.667-22-4.667c0,0-12-8-16.667-8
	s-6,4.667-15.333,0c0,0-10.666,4-13.333-4c0,0,7.333-2.667,10-2c-3.425,0.155-2-2-6.667-4s2.667,2.667-11-0.667
	s-9,7.333-14.333,0.667s-16-6-25.333-8s-8.667-7.333-12-10.667S378.667,706.334,358.667,691z"/>
<path style="fill:#FDFDFD;" d="M437.996,821.662c0,0,7.333,9.333,27.333,6.667c0,0,6-7.333,8-6.667c0,0-8-8-14.667-6l-12-0.321
	L437.996,821.662z"/>
<g>
	<path style="fill:#FDFDFD;" d="M358.667,938.997c0.669,4.667,7.331,9.333,7.331,9.333c-3.333-1.333-18.832-5.333-18.832-5.333
		c-3.498-3.333-19.835-3.333-19.835-3.333c-13.333-9.333-37.333-13.125-37.333-13.125c-4-5.792-16.667-4.208-16.667-4.208
		c2-3.333-3.333-5.333-3.333-5.333l7.333,0.667c6,0,9.037-2.667,9.037-2.667c3.704,1.333,11.63-1.333,11.63-1.333l14,6.667
		c1.333,4,8,6.017,8,6.017c4.047,0.346,4.851,0.167,4.659-0.095c3.752,0.763,10.008-3.922,10.008-3.922
		c10.667-1.333,0-12.667,0-12.667c-8.667-2.667-16.667,0-16.667,0l-12-5.333c-1.333-6.667-10.667-14-10.667-14
		c-6.667-10.667-32.667-12.667-32.667-12.667c-10-8-29.333-3.333-29.333-3.333l-9.258-5.291c10.863,0.579,24.523-5.498,22.154-7.482
		c4.903,5.116,7.735,3.358,7.735,3.358c10.354,11.621,21.74,3.923,21.74,3.923c12.58,9.139,22.734-7.367,22.734-7.367
		c5.977,0.527,12.814,6.483,12.814,6.483c12.129-0.939,14.431-11.876,14.431-11.876l8.654,0.524
		c14.435,3.28,12.773-8.244,12.773-8.244c-3.261-3.892-10.299-5.342-13.374-5.805c-0.921-0.139-1.491-0.189-1.491-0.189
		c-13.732-11.249-30.803-7.398-30.803-7.398c-11.624-12.401-19.338-8.397-19.338-8.397l-10.529-9.627
		c-0.595-1.672-1.268-3.142-1.992-4.448c-4.13-0.736-8.309-1.281-12.583-1.495c-2,0-3-6-5-6c-8-2-13-2-19-7
		c-1.528-1.528-4.091-1.241-6.505-0.987c-0.864,0.15-1.375,0.277-1.375,0.277l0.044-0.153c1.649-5.326-3.616-20.072-3.616-20.072
		c-4.552-9.102-11.701-13.977-11.701-13.977c-3.561-10.854-13.578-13.242-13.578-13.242c-7.47-14.209-21.669-13.955-21.669-13.955
		c-5.682-14.402-18.62-19.173-20.574-19.822c-0.163-0.054-0.258-0.083-0.258-0.083l-0.961-1.147l-4.488-5.356
		c2.433-7.686,1.818-15.634,0.883-20.932c-0.669-3.79-1.502-6.226-1.502-6.226c-1.091-3.623-2.631-6.623-4.346-9.104
		c-5.609-8.114-13.112-10.613-13.112-10.613l0.575-6.532l5.891-9.338l0.351-0.557l0.565-0.896
		c15.691,26.98,22.248,1.946,22.248,1.946c13.71-1.803,12.988-10.184,12.988-10.184l0.159-0.202
		c6.781-8.857-14.35-4.915-14.35-4.915c1.984,1.004,24.524,9.565,26.146,10.068c16.054,4.974-45.093-26.667-45.093-26.667
		l11.833-5.333l-207.856-36.774l-53.382,403.539l165.65,31.326c11.934-6.312,19.873-12.873,19.873-12.873
		c11.454,2.424,21.357,1.867,26.645,1.237c2.598-0.31,4.088-0.637,4.088-0.637c29.963,9.331,35.606-1.548,35.606-1.548
		c17.44,5.307,30.743,0.96,37.094-2.077c2.668-1.276,4.118-2.323,4.118-2.323c7.56,5.351,13.946,1.229,13.946,1.229
		c9.318,8.183,26.564,2.341,26.564,2.341c2.835-0.676,4.562-2.167,5.582-3.968c2.667-4.713,0.471-11.561,0.471-11.561
		c-6.954-4.628-15.019,3.361-15.019,3.361c-0.977-4.102-6.291-4.57-6.291-4.57c0.038-8.028-13.244-9.198-13.244-9.198
		c-5.799-1.356-9.106-0.355-10.998,1.256c-2.602,2.214-2.524,5.583-2.524,5.583c-5.945-3.201-10.423-0.918-10.423-0.918
		c0.415-0.956,0.749-1.834,1.025-2.654c3.072-9.13-1.905-10.139-1.905-10.139c-9.463-6.75-26.076-9.422-29.803-9.952
		c-0.489-0.069-0.766-0.104-0.766-0.104c0.137-0.371,0.265-0.736,0.391-1.1c-1.316-4.773-0.656-9.912,1.541-13.731
		c-3.076-3.811-7.493-5.689-11.989-6.497c-8.664-1.556-17.583,0.822-17.583,0.822c-0.589-4.474-7.553-10.227-11.216-12.972
		c-1.327-0.994-2.224-1.597-2.224-1.597c-12.267-5.096-23.164,4.651-23.164,4.651c-4.982-11.816-22.094-15.094-22.094-15.094
		c-1.274-2.518-5.528-3.909-9.746-4.61c-2.093,0.332-4.312,0.457-6.601,0.255c-7.5-0.661-0.5-1.437,6.601-0.255
		c8.835-1.4,15.41-6.505,15.41-6.505c10.157,6.249,18.478,2.966,18.478,2.966c3.074,3.104,7.53,5.137,11.85,6.467
		c6.907,2.128,13.465,2.456,13.465,2.456c8.166,6.074,17.012-3.186,17.012-3.186c-1.162-4.88-10.073-12.543-13.712-15.506
		c-0.949-0.772-1.544-1.23-1.544-1.23c0.737,0.427,1.5,0.75,2.278,1.001c9.296,3.005,20.886-5.653,20.886-5.653
		c26.02,23.708,51.451,31.304,51.451,31.304l0.957-3.262l9.728,3.534l6.933,4.864c0,0,5.394-0.579,8.732-0.302
		c-3.992-2.854-11.212-9.523-11.212-9.523c-3.322-1.051-5.75-2.454-7.232-3.472c12.787,5.971,28.361,10.408,31.267,11.201
		c4.667,1.273,0-4.606,0-4.606c4.667,4,17.333,0.667,17.333,0.667c10,11.333,20.667,8.667,20.667,8.667c0,4.667,12,4.667,12,4.667
		c2.667,4.667,10,8,10,8c13.333,4.667,14.667,2.667,14.667,2.667l2.667,4.667l14.333,4c0,0,14.333,12.667,16.333,13.778
		s-1.333-5.778-1.333-5.778c3.333,1.333,10-2,10-2l-2.667,6c9.333,4,26.002,0,26.002,0c17.336,0,28.664-3.333,28.664-3.333
		C383.998,947.664,358.667,938.997,358.667,938.997z M207,980c0,0.423,0.178,1.026,0.233,1.656
		C206.867,981.162,206.685,980.631,207,980z M135,961c0.682-0.682,0.898,0.496,0.967,1.947c0.158,0.577,0.194,1.244,0.033,2.053
		c0-0.637,0-1.375-0.033-2.053c-0.227-0.83-0.729-1.455-1.383-1.954C134.727,960.994,134.855,961,135,961z M108.515,948.037
		c-0.391,1.641-0.89,3.296-1.515,4.963C106.585,950.928,107.379,949.208,108.515,948.037z M167.537,888.756l-0.929-0.863
		c0.661-0.335,1.312-0.674,1.945-1.017C167.852,887.939,167.537,888.756,167.537,888.756z M187.527,887.741
		c-2.84-3.238-6.729-5.178-6.729-5.178c-1.546-0.454-2.934-0.608-4.177-0.548c2.1-1.396,3.377-2.351,3.377-2.351
		c2.667,2.667,12.667,10,12.667,10C191.026,888.611,189.285,888.017,187.527,887.741z"/>
	<path style="fill:#FDFDFD;" d="M205.865,686.379c-2.955-3.902-8.579-10.171-14.167-10.074c0,0-6.764-9.096-17.043-7.893
		c0,0-8.28-7.938-13.941-6.063c0,0-12.821-4.492-7.941,8.31c0,0,9.564,12.112,15.732,14.792c-1.453-0.115-3.6,0.584-5.117,4.904
		c0,0,8.919,17.462,24.477,17.024c0,0-5.383,4.602,4.264,12.404c0,0,23.512,5.091,22.431,3.253c0,0,5.251-8.33,2.526-12.767
		c0,0,13.003,3.237,15.069,7.577c0,0-9.599-8.131-12.354,1.574c0,0,4.227,8.018,15.213,6.583c0,0,6.07,4.588,14.457,7.152
		l6.655-4.089c0,0,11.274-3.415,19.736,7.917c0,0,5.534,12.928,15.431,14.364c0,0,6.491,6.331,15.26,6.256
		c0,0,15.281-3.173,6.905-10.451c0,0-9.504-4.08-17.082-12.249c0,0,13.794,7.05,15.831,2.296c0,0-41.498-15.784-57.971-27.604
		c0,0,26.837,23.367,33.813,15.046s4.661-14.271-10.047-21.225c-5.879-2.779-20.423-9.595-26.667-12.446
		c-6.738-3.077-16.703-2.169-22.694-4.625c0,0,7.057,2.434,9.902-3.248c0,0-1.678-7.012-8.839-8.724c0,0-0.095,0.66-7.716-7.182
		c0,0-14.973-8.234-16.323,5.716C205.663,672.911,204.022,681.282,205.865,686.379z"/>
</g>
<path style="fill:#FDFDFD;" d="M341.838,1071.625c0,0-0.669-8.188-8.919-4.938c0,0-5.959-4.484-8.209-0.727
	c0,0-8.229,6.523-3.979,8.773c0,0-5.99,5.258-2.24,10.008c0,0-2.46,0.754-1.228,5.254c0,0-9.515,5.627-6.265,13.877
	c0,0,1.752,2.127,2.502,2.127H310c0,0,0.75-0.75-8,0c0,0-2.25-3-8.75-2c0,0-6.5-6.75-18.5-1.5c0,0-4-0.25-5.25-0.5
	c0,0-4-7.5-12-2.25c0,0-4-0.75-6,0.75c0,0-5.533,3.75-3.767,6.5c0,0-8.983-1.5-13.983,1.5c0,0-2.75,6.75,9.75,7c0,0,6,2.75,10,0
	c0,0-1,3.75,10,3.25c0,0,4.25,1.092,14.25,0.046c0,0,2.75,1.954,6.5,2.704c0,0,2.5,3,4.5,1.25c0,0,0.5,2.5,3.25,3
	c0,0,0.75,6.25,10.75,0c0,0,1.75,2.055,5.5,2.777c0,0-4.25-0.223-5.5,0c0,0,0.75,3.723,7,1.473c0,0,0.25,0.5,4.75-0.75l-2-2
	c0,0,4.25,0.25,5.5-0.5c0,0-1.75,1-1.5,2c0,0,4.25,2.25,10.25,0.25l2.75-0.5l-1.75,2.223c0,0,7.5,3.027,12.5,2.027
	c0,0,1.25,1.904,9,0.202c0,0,8,1.298,12-0.452c0,0,2.75,1.75,6.25-0.25c0,0,5.5-0.75,7.75-2.5c0,0,3.75-1.5,6-1.5
	c0,0-4-5.25-7.5-4.75c0,0-8.5-3-11.5-1.75c0,0-4.25-1-5.75-0.75l6.25-2.75c0,0,3.75,2.75,6,0c0,0,4.25,0.25,5-2.5
	c0,0,6.5,1.75,7.5-0.25c0,0,8-0.75,7.75-2.75c0,0-7-2.5-8.5-2c0,0-3.5-2-6-2c0,0-4.5-3-7.75-2c0,0-1.25-2.25-5.25-2
	c0,0-3.417-3-9.333-2.5c0,0,4.583-7.75-1.417-13.75c0,0-0.5-5-4.25-5.5c0,0,7.25-4.5,4.25-7.25
	C350.75,1075.75,349.176,1070,341.838,1071.625z"/>
<path style="fill:#FDFDFD;" d="M455.162,943.574c0,0-21.413-12.621-33.413,0.046c0,0-9.208,2.69-3.208,8.023
	c0,0-1.272,24.011,29.395,19.345c0,0,0.699-9.457,5.366,0.608c0,0-7.985,16.067,24.015,20.067c0,0-6.658-10.666-10.658-13.999
	l-1.331-6.666c0,0,22.669,5.334,80.003,8.667l4.667-4c0,0,14.001,3.334,18.001-2.666c0,0,4,3.333,12.667,1.333
	c0,0,10.667,1.333,10-2L579.333,969L572,968.333l9.333-3.482c0,0,10.667,5.556,15.333,4.889L607.333,965H611c0,0-4.333,3,0,3
	c0,0,18.333,2.333,27,1c0,0,5.333,2.667,16,1.333l6.667-1.333c0,0-9.333,2,0,4l8.5-1.333c0,0-4.167,4.667,11.833,1.333v-5
	l6.334,1.667c0,0-4,1.333,0,6c0,0,12,5.333,20,0L702.667,969c0,0,7.999-0.469,25.333-4.234l4.667-6.536
	c0,0,8.999,10.302,27.833,6.536L772.667,961l10.667-2.771l-2.834-7.896l12.5,3.333V950l-7-1.667c0,0-8-8-11.333-1.333
	S766,951,766,951l-12-4.667c0,0-4.667-0.667-8,2.667c0,0-12.666-6.667-23.333-1.333c0,0-2.667-4-10.667,2.667c0,0-11.334-5.333-32,0
	c0,0-12-3.333-30,0l-14.667-2.667c0,0,13.333,2.624,16-9.688c0,0-8-4.979-28.667-6.979c0,0,14.666-6.667,5.333-12.667
	c0,0,8-8.001-8.667-22c0,0-7.333-18.667-11.333-18.667c0,0-7.333,1.333-16,9.333c0,0-12,1.333-11.333,9.333c0,0-23.334,2-16.667,12
	c0,0-8.667,9.333,1.333,14L560,929c0,0-49.333-22-63.333-22c0,0-4.667,4,0.667,8c0,0,34,13.33,40,19.665c0,0-34.667-8.998-32,1.668
	s-21.786-20.888-21.786-20.888s-16.881-11.112-32.881-13.112c0,0-12-5.334-17-6c0,0-2.645-6.667-17.156-6.667
	c0,0,2.156-4-13.178-5.333c0,0-8.671-10-16.002-6.667c0,0,2.669,7.333,10.002,11.333c0,0,16,12,18.667,11.333
	s2.667-0.667,2.667-0.667C416,900.333,430,913,433.667,913c0,0,16.992,12.667,21.996,12c0,0,1.004,14.649,7.67,9.325
	C474,936.333,455.162,943.574,455.162,943.574z"/>
<path style="fill:#FDFDFD;" d="M571,783c0,0,7.333,11.333,20,0c0,0,6.998,3.704,10.166,2.519s-12.501,2.809,0,7.479
	c0,0,9.167,0.664,11.167,0c0,0,6,1.253,9.333,0.295c0,0-7.333,5.693,0,7.367c0,0,19.333,4.993,18.667,0c0,0,2,0.993,18,0
	c0,0,16.667,6.326,21.333,0c0,0,10.667-0.341,19.333,0c0,0,23.334-2.718,28,2.812c0,0,14.666,4.863,20.666-6.471
	c0,0-22-3.159-33.333-3.246c0,0-9.333-1.426-20.667-0.757l-13.333,0.757c0,0,12-9.42-14.667-10.754c0,0,6.667-14.667-22.667-14.667
	l-8,6l4,6.667c0,0-2.667-4.145-9.333-3.406c0,0-4-5.406-21.333,0c0,0-8-2.072-17.333,0s-6.667-7.406-20,0c0,0-6.667-7.261-16-9.261
	c0,0-14.667,1.855-5.333,9.261C549.667,777.594,551,783,571,783z"/>
<path style="fill:#FFFDC7;" d="M559.997,632.666"/>
<path style="fill:#FDFDFD;" d="M60.73,1257.168c-0.667,22,12.635-14.084,24.635-6.752c12,7.334,11.316-6.708,4.65-6.708
	s-9.341,6.646-14.007-10.021c0,0,1.33-12.01,10.663-10.01c0,0,14.665,1.327,16.665,5.994c0,0-16.667-13.335-0.001-16.002
	c0,0-5.333-9.335,7.333-9.335c0,0,8.667-10.667,12,5.333c0,0,8.834,4,6.167,10.666c0,0,17.166-1.334,20.166,3.333
	c0,0-10-9.666,0-9.666c0,0,31,4.224,32,18.611V1236c0,0,5-3.667,10.333,1.666c0,0,4.667-8.931,13.333-5.132
	c0,0,5.333,6.465,5.333,11.132c0,0,14.986-2,23.493,8c0,0-3.493,3.999-6.16,5.333c0,0,4,7.105,0,7.22c0,0,8.319,1.446,6.16,8.78
	l-6.16,4c0,0,19.333,0.001,31.333,5.334c0,0-8-2.001-8-7.334c0,0-11.333-1.916-10-7.291c0,0,6.667-12.708,14-17.375
	c0,0,1.333-8.815,4-8.741c0,0-12.667-1.259-22-15.259c0,0,2,3.333-6.667,5.333c0,0-19.333,6.001-10.667-17.333
	c0,0,11.466-9.334,23.4-6.667c0,0,1.933-17.333,13.267-16s11.333,1.333,11.333,1.333c-11.333-1.333-9.333-5.332,0-4.666
	c0,0,10.667,1.334,13.333,4c0,0,4.667-3.481,14.667-4.074c0,0-17.333-12.594,6-21.26c0,0,9.166,2,9.916,6c0,0,3.417-6,20.75-1.333
	c0,0-13.333-24.666,6-23.333c0,0-2.667-6,19.333,15.333c0,0-0.667-16.667,12.667-2.667c0,0-8-7.333,3.333-3.333c0,0-8-8.221-6-10.11
	c0,0-3.667-5.556,3.667-6.889c0,0,0.333-7.674,13.667-7.008c0,0,10.667,2.008,8.667,8.674l7.333,2.666c0,0-5.333,5.333-8,4
	c0,0,4.678,5.334-3.661,6.667l6.328,4.667c0,0-2.671,6.667-8.002,4l6.669,4.666c0,0,6-26,22-25.333c0,0,29.333,4.667,29.333,14.667
	c0,0,16-6.668,25.333,2.666c0,0,18-0.667,20,10c0,0,4.666,18.667-2.667,18.667c0,0-14.667,12.667-20,4.667l-8,1.333l12,5.333
	c0,0-10-10-4.667-13.333s0,8.667,8.667,12s4.667,1.333,2,5.333c0,0,30.667,4.001,32,11.334c0,0,11.333,2.666,11.333,7.333
	c0,0,23.333-3.333,32,10.667c0,0-6-16,4.667-10.667c0,0,14.667-2.667,22.667,10c0,0-0.667-10.667,6-6
	c0,0,13.664,19.333,3.499,15.333c0,0-6.637,17.67-26.166,0.667c0,0-6.666,4.666-15.333-0.667c0,0-10,12-34.667-5.333
	c0,0,18.667,10.667-1.333,8.667c0,0,6,0.667,1.333,4c0,0,26.667-2.667,32,11.333c0,0,1.022-6.237,15.333-8.667
	c0,0,25.664,0.667,28.832,8.667c0,0,12.832,10.167,0,26.167c0,0,10.501-7.833,11.834,0.167h7c0,0-14.333-8.333,0-15.667
	c0,0,19-5.999,16.333,15.667H633c0,0-8.589-9.667,0.206-11.667c0,0-5.872-14.666,13.461-14c0,0,17.333-2.667,20,9.333
	c0,0,5.333-5.333,8,4c0,0-2,6.666-8,3.333c0,0,4,2.668,4,9.001s4,3.671,4,3.671s-6-11.337,4.667-10.005
	C690,1283,702.667,1290,702.667,1295s5.333,0,5.333,0s7.333,2.665,8,5.999s-2.667-4.667,16,0s22.667,2.667,18.667,4.667
	s-2.942,0.667-4.805-9.333s4.138-5.333,18.138-4c8.667-0.667,21.334,1.333,12.667,11.333s-2.666,8.667,8.667,10.667
	s9.332-1.334,7.666-5.334s-6.998-15.332,6.001-14.666s15.665,17.195,12.999,20.598c0,0,11.334,0.734-2.666,10.068
	c0,0-5.334,24.666-36.667,14c0,0,0.666,8.668-11.667,5.334c0,0,4.058,6.666-15.138,9.333s-19.196,25.606-51.862,20.47
	c0,0-33.333,14.863-54.667-3.137c0,0,2-1.332-19.333-0.666c1.333-3.334-8.666,7.999-47.333,12.666L510,1369.666l-62.667-9.333
	l-8.814,20l-49.513-6.197l-27.672-18.47L350,1356.999c0,0,18,6.666-10,6s0,7.333-8.667,20S368,1393.666,368,1411.666
	s-67.333,18.667-67.333,18.667l-80-28l-66-20l-76.667-6c0,0-35.333-7.334-35.333-10.667S60.73,1257.168,60.73,1257.168z"/>
<path style="fill:#FDFDFD;" d="M465.333,1145.666c0,0,18.555,8.771,17.333,28.667c0,0,4.782,14.668,0.058,22.667"/>
<path style="fill:#FDFDFD;" d="M1024.166,1135.166c0,0,0.916-2.417-6.75-6.083c0,0,5.959-3.083,3.271-7.083H1015
	c0,0-2.667-7.333-11-2.333c0,0-12.001,10.236-2.667,13.951c0,0-8,5.716-0.333,11.049c0,0-1.999,0.332-5.333,5.666
	c0,0-4.333,0.667-5,2.667c0,0,2.334-3.999,0-5.333c0,0-0.001-2-6.334,0c0,0,1-6.333-2.333-7c0,0,3.333-2.764-1.667-7.049
	c0,0-5.667-2.049-9,0c0,0,1.334-3.618-5.666-1.618c0,0-4-0.764-6.667,1.618c0,0-9.667,6.048-3,12.715c0,0-0.667,6.667,3.333,6.667
	c0,0-4.333-1-12.333-2c0,0-3,2.333,0,4c0,0-6.667-1.333-6,2c0,0-8.666,2.333-3.333,7c0,0-2.135,0.001-1.734,1.667s-7.6-2.666-14.6,0
	c0,0-5.333,3.666-3.333,4.666c0,0-13.666-0.666-7.333,5.667c0,0-4,1.333,2,6c0,0,8.334,0.333,9-3l3-4c0,0,1.333,7.333,7.333,5.333
	c0,0,6-3,3-6l5.667-3c0,0,5.667,0.666,8-3c0,0,3.332,2.001,4.666,0.334c0,0-5.666,2.666,4.334,4.666c0,0,5.035,1.333,8.851-1
	c-1.375,0.67-1.184,4.667,5.149,2.667c0,0-2,9.351,10,7.009c0,0,6.334,1.658,5-5.342c0,0,7,1,9,0c-1.692,0.382-6.334,2-1.667,4.333
	c0,0-3.999,9.001,3.667,10.667c0,0,12.666-1.334,12.666-11.334c0,0,3.334,0.666,4.667-2c0,0-4.667-2.666-4.667-5.666
	c0,0,4.753,8.332,13.71,6.666c0,0,4.957,2.334,9.957-0.333c0,0,8.999,1.999,13.333-2.667c0,0,2.334,0.333,3.334-2l-1.667-4
	c0,0,4.999,0,13.333-10l-10,11.334c0,0,6.668,3.334,16.334-1c0,0-4.001,6.999,5.666,4.666c0,0-6.332,5.668,8.334,4.334
	s12.333,3.332,21.333,1.666c0,0,7.667,1.334,10.667-1.666c0,0,9.999,7.332,17.666,1.666c0,0,3.667-8.666,1.667-9.666
	c0,0,17.001,0.333,14.667-5.667c0,0,3.666-0.333,4.333-6.333c0,0,8.333,3.666,10.333-1.334c0,0,4.333-5.333,0-6.333
	c0,0,2.668-4.666-4.666-5.333c0,0-2.001-7-13.334-3.667c0,0-11,0.334-10,3.667c0,0-3.999,1.332-4.666,4.666
	c0,0-5.667-5.332-15.667-2.666c0,0,6.334-15.001-20.333-17.334c0,0,4-12.156-5-13.411c0,0-14.668,1.078-10.334,5.078H1073
	c0,0-15.667-10.334-26.667,5.333l-4.333,1c0,0,1-2.666-3-3.333c0,0,6.666-3.334,5.333-4.667c0,0,1.334-1.822-1.333-3.411
	c0,0-10-6.921-14-2.255c0,0-6.333,1.999-4,5.666c0,0-0.333,3.667,2.667,4.667C1027.667,1126,1022.332,1128.332,1024.166,1135.166z"
	/>
<path style="fill:#FDFDFD;" d="M971.834,922.167c0,0-2.584,11.083,23.416,7.75c0,0,5.375,5.102,13.375,0.488
	c0,0,0.688,8.358,14.688,1.841c0,0,13.594,4.785,13.802-7.215l5.548-3.348c0,0-1.332,8.981,11.335,6.486
	c0,0,10.669,0.168,8.669-6.498c0,0,8,3.331,20-7.336c0,0,1.333,0.667,10.667,0c0,0,6.666,6.665,26-3.335c0,0-2.666-4.667-8.666-4
	c0,0,2-2.667-4.667-3.333c0,0,6.666-0.667,9.333-6c0,0,3.333,6,8,0c0,0-8,4.667,4,11.333c0,0,1.334,8.323,12.667,7.162
	c0,0,15.334-4.495,14.667-8.495c0,0,13.184-0.666,10.592-5.333c0,0,2.063,0.759,7.574-0.964c2.235-0.699,5.038-1.806,8.5-3.537
	L1188,894h5l-3,5.667c0,0-11.999-2-21.333,8c0,0-30,4-6.667,14.667c0,0,14.069,4.146,14-7.993c0.667-0.007,10.667-2.007,17-8.007
	c0.333-2.667,2.333,2.667,13-3.333c0,0,8-3.333,10-9s2-5.667,2-5.667c-2,5.667-2.666,8.667,4.667,10.667
	c0,0,7.999-3.333,4.666-6.667c0,0,10.668-0.667,7.334-4c0,0,15.291-1.334,0.646-6.667c0,0,1.337,3.306,6.346-4.68
	c0,0,16.343-5.32,13.009-9.32c0,0,0.666-7.333-9.334,0c0,0,15.334-20.666-18.666,0.667c0,0-7.333-4.667-8,3.333
	c0,0-4.666-4.027-6,5.32c0,0-1.334-3.987-6.667,2.68c0,0-14.667,0.667-16.667,4.667L1182,883l5.333-3.333
	c0,0,6.037,2.673,16.667-2.68l7.333-8.653c0,0-0.666-2-6.666-0.667c0,0-11.334-6.667-18.667,0c0,0-10.001-6-14.667-6
	c0,0,12.668-4,7.334-6.667c0,0-2.149-14-13.408-8c0,0-16.592-0.667-8.592,10.667c0,0-6.667-2-2.667,6.667
	c0,0-10.667,5.333-2.667,8.667l-6.666,3.986c0,0,9.333-10.653-2.667-10.653c0,0-3.334-2-8.667-0.667c0,0-7.121-16-19.894-6.667
	c0,0-11.438,10-2.772,13.333l-2.667,4.653c0,0-8.666-9.319-17.333-4.653l-9.334,4.653l3.334-5.986c0,0,12.667,0.667,10-6.667
	c0,0-10.001-10.667-21.334,3.333c0,0-8.667,2-6,6l-6.666-2.667c0,0,14.666-16-0.667-19.333c0,0-16.667,1.333-14,11.333
	c0,0-13.083-1.333-8.875,8.667c0,0-5.542,0,0,8.667l-3.792,1.333c0,0-2-9.36-8-4.68c0,0-23.332,0.2-16.666,13.107
	c0,0-8,0.24-0.667,5.573c0,0-0.667-3.333-4,4.667c0,0-8.001,1.333-4.667,5.333c0,0,2.668-6-8.666-4c0,0,15.334-16.48-8-11.573
	c0,0-15.333,0.907-14,6.907c0,0-17.334-1.333-5.334,8.667L959.102,909c0,0-7.103-7.333-17.769,0L934,908.333c0,0,6-4.333,0-4.333
	c0,0-13.334-3-16.667,3.667c0,0-14.666-7.333-17.333,13.333c0,0-5.333-8-15.333-4.667c0,0-10.001-6-21.334,0.667c0,0,14.666-6,6-6
	c0,0-10.666-6.667-17.333,2.667c0,0-17.333-4.667-21.333,5.333c0,0-12.668,4,6.666,11.333c0,0,14,2.666,14.667-2.667
	c0,0,0.666,5.333,15.333-0.667c0,0,15.334,6,20.667,2.667c0,0,9.333,6.833,18-0.5c0,0,10.667,4.833,18-1.167h8
	c0,0-7.334,2.316-6.667,6.325c0,0-10.016-1.195-16.341,0.407c0,0-13.659-6.935-20.992,0c0,0-6.001-10.416-14.667-0.407
	c0,0-11.999-3.195-20.666,0.407c0,0-6.666-3.732-12,2.935c0,0-15.483-7.333-14.075,4c0,0-3.93-10.017-10.261-7.342
	c0,0-20.998,2.675-8.998,14.675c0,0,2.037,7.295,8.998-2.667c0,0,9.668,3.333,13.002,1.333c0,0-9.333,6-1.333,7.333
	c0,0,4.667,7.333,24,5.333c0,0,10.666-0.667,17.333-6.667c0,0-1.332,5.334,17.334,0.667c0,0,6-0.667,19.333-2
	c0,0,10.001-0.667,18.667-4c0,0,1.332,2,10.666-4.667c0,0,7.334,6,11.334-2.667c0,0,10.666,1.983,15.333-6.675c0,0,5.333,2.658,8,0
	s-5.334-4.658-8.667-4.658C961.333,929.667,969.001,928,971.834,922.167z"/>
<path style="fill:#FDFDFD;" d="M763.999,883.667c0,0,6,16,24,8.667l11.002,1.923c0,0,15.665,8.59,21.665,0
	c0,0,12.666,3.817,13.333-3.386c0,0,8.666-3.204,8-9.871c0,0,9.334-7.439,8.667-10.386s-0.667-2.947-0.667-2.947
	c0.667,2.947-20-1.36-24,9.32c0,0-23.109-16.853-32.999,0c0,0-21.001-8.68-29.001,0c0,0-13.333-10.013-20,0
	C743.999,876.986,746.665,887,763.999,883.667z"/>
<path style="fill:#FDFDFD;" d="M743.833,912.167c0,0,2.75-7.25,9.417,0.083c0,0,2.043-3.959,7.709,2.708
	c0,0,8.354-1.979,10.354,0.021c0,0-1.322,4.011-10.322,3.344c0,0-0.996,0.821-8.996,0.08c0,0-0.664,10.595-7.998,5.928
	c0,0-3.332,5.709-14.665,1.188c0,0-4.665-4.52-12.665-1.853c0,0-0.668,4.525-8.668,3.596c0,0-0.665,10.388-5.332,7.063
	c0,0-4,3.305-8,0.657c0,0-2.666,14.038-12,1.028c0,0-14.667,5.657-16.667-5.676c0,0-7.333,1.944-10-5.028
	c0,0,9.335-9.639,15.667-4.972c0,0,11-8,15,2c0,0,0-8,7.333-4.667c0,0,3.737-8.296,10.667,0.667c0,0,3.834-5.333,11.834-3.333
	c0,0,6.5-5.333,8.5,0c0,0-7-9,0-9c0,0,13.666,3,9.666,7.667c0,0-0.65-16.548,6.666-10.574C741.332,903.092,751,904,743.833,912.167z
	"/>
<path style="fill:#FDFDFD;" d="M947.001,1043.893c0,0-9.835-24.113-25.835-4.113l-5.916,3.943c0,0-3.293-8.028-8.626-0.028
	c0,0-14.647-8.013-8.647,5.32c0,0,2.68-9.341-4.654-0.008c0,0-24.663-9.337-28.663,3.33c0,0-6.287-4.001-6.142,2.665
	c0,0,10.146,12.665,26.146,5.332c0,0,19.968-0.542,12.002-6.668c0,0,1.321,0,12.327,0.667c0,0-11.673,1.333,0,3.333
	c0,0-23.66,4,20.34,2c0,0-9.332,1.33,12.001,4.332c0,0,20.667,9.668,22.667-3.665V1055c0,0,6.665,4.667,16.665,4
	c-3.252,0.033,17.333-2,12-4H1001c0,0-1.668,4.227,4.332,4.227c0,0,17.334-2.227,0-9.227H997l-7.668,2.333c0,0-2-12.104-24-2.719
	C965.332,1049.614,968.004,1040.785,947.001,1043.893z"/>
<path style="fill:#FDFDFD;" d="M1022.664,1032c0,0,15.332,13.076,20.666-8.258c0,0-7.333-14.038-23.333-0.038
	c0,0-22.666-14.718-25.333,2.965c0,0-5.334-4.635-7.334,5.186c0,0,2.666,0.862-6,4.006l-16,3.142c0,0,9.333-1.335,18-0.002
	s3.334,6,16.667,5.333l8.667-4.001c0,0,4,3.999,15.333,1.333c0,0-5.744,3.334,13.128-0.666l6.205-2c0,0,9.333,6.795,18,5.397
	c0,0,30-9.484,24.667,7.936c0,0,8.001-13.333-3.333-13.333c0,0-2.667-6.146-14.667-4.034c0,0-12.386-6.965-22.667-2.965H1022.664z"
	/>
<path style="fill:#FDFDFD;" d="M856.924,1380.116c0,0,0.916-2.417-6.75-6.083c0,0,5.959-3.083,3.271-7.083h-5.688
	c0,0-2.667-7.333-11-2.333c0,0-12.001,10.236-2.667,13.951c0,0-8,5.716-0.333,11.049c0,0-1.999,0.332-5.333,5.666
	c0,0-4.333,0.667-5,2.667c0,0,2.334-3.999,0-5.333c0,0-0.001-2-6.334,0c0,0,1-6.333-2.333-7c0,0,3.333-2.764-1.667-7.049
	c0,0-5.667-2.049-9,0c0,0,1.334-3.618-5.666-1.618c0,0-4-0.764-6.667,1.618c0,0-9.667,6.048-3,12.715c0,0-0.667,6.667,3.333,6.667
	c0,0-4.333-1-12.333-2c0,0-3,2.333,0,4c0,0-6.667-1.333-6,2c0,0-8.666,2.333-3.333,7c0,0-2.135,0.001-1.734,1.667s-7.6-2.666-14.6,0
	c0,0-5.333,3.666-3.333,4.666c0,0-13.666-0.666-7.333,5.667c0,0-4,1.333,2,6c0,0,8.334,0.333,9-3l3-4c0,0,1.333,7.333,7.333,5.333
	c0,0,6-3,3-6l5.667-3c0,0,5.667,0.666,8-3c0,0,3.332,2.001,4.666,0.334c0,0-5.666,2.666,4.334,4.666c0,0,5.035,1.333,8.851-1
	c-1.375,0.67-1.184,4.667,5.149,2.667c0,0-2,9.351,10,7.009c0,0,6.334,1.658,5-5.342c0,0,7,1,9,0c-1.692,0.382-6.334,2-1.667,4.333
	c0,0-3.999,9.001,3.667,10.667c0,0,12.666-1.334,12.666-11.334c0,0,3.334,0.666,4.667-2c0,0-4.667-2.666-4.667-5.666
	c0,0,4.753,8.332,13.71,6.666c0,0,4.957,2.334,9.957-0.333c0,0,8.999,1.999,13.333-2.667c0,0,2.334,0.333,3.334-2l-1.667-4
	c0,0,4.999,0,13.333-10l-10,11.334c0,0,6.668,3.334,16.334-1c0,0-4.001,6.999,5.666,4.666c0,0-6.332,5.668,8.334,4.334
	s12.333,3.332,21.333,1.666c0,0,7.667,1.334,10.667-1.666c0,0,9.999,7.332,17.666,1.666c0,0,3.667-8.666,1.667-9.666
	c0,0,17.001,0.333,14.667-5.667c0,0,3.666-0.333,4.333-6.333c0,0,8.333,3.666,10.333-1.334c0,0,4.333-5.333,0-6.333
	c0,0,2.668-4.666-4.666-5.333c0,0-2.001-7-13.334-3.667c0,0-11,0.334-10,3.667c0,0-3.999,1.332-4.666,4.666
	c0,0-5.667-5.332-15.667-2.666c0,0,6.334-15.001-20.333-17.334c0,0,4-12.156-5-13.411c0,0-14.668,1.078-10.334,5.078h-6.333
	c0,0-15.667-10.334-26.667,5.333l-4.333,1c0,0,1-2.666-3-3.333c0,0,6.666-3.334,5.333-4.667c0,0,1.334-1.822-1.333-3.411
	c0,0-10-6.921-14-2.255c0,0-6.333,1.999-4,5.666c0,0-0.333,3.667,2.667,4.667C860.425,1370.95,855.09,1373.282,856.924,1380.116z"/>
<path style="fill:#FDFDFD;" d="M981,776c0,0,3-6.5,11.5-5.5c0,0,7.5-8.709,8.5-0.104c0,0,7.5-2.896,4,5.604c0,0,0,2.5-4,6
	c0,0-3.5,9.342-13,4.421c0,0-11,4.421-13,0c0,0-12,1.579-12-3.921c0,0,1-9.016,11-5.008C974,777.492,975.5,775.5,981,776z"/>
<path style="fill:#FDFDFD;" d="M1081,758.5c0,0-11-3.5-9,3.5c0,0-7.5,3.196,2,4.598c0,0,4,6.598,11.5,0
	C1085.5,766.598,1096.5,756.5,1081,758.5z"/>
<path style="fill:#FDFDFD;" d="M1249,732c0,0-3.5,4.5-6,8h-8l6-4c0,0-1.5-6.5-19.5,0l-6,4h-5.5c0,0,8-6,8-8c0,0-19.5-3-20,4
	c0,0-10.5-0.5,0,7.5c0,0-7,4,7.5,7c0,0,3.43,7.675,22.5-3.5c0,0-6.5,8.641,8,6.07l11-5.07c0,0,15.5,0,15-9.5c0,0,8-4.091,9,3.955
	c0,0,0,6.545,7,3.045c0,0,1,3.909,2-3.045c0,0,4,5.955,10,0c0,0,4.5,1.045,13.5-2.955c0,0,5.5,4.5,8.5-4c0,0,8.5,7.5,13.5-2
	c0,0-3.5-0.778-5.5-2.139c0,0,18-0.861,21-8.361v-8c0,0,2,12,10.5-4.5c0,0,6.5,6.5,11-6.5c0,0,1.5,5.5,10.5-3.5c0,0,11.5,0.5,11.5-5
	c0,0,5-2,7-6.5c0,0-10.5-4,0-9c0,0-4.673-0.919-7,9c0,0-6.77-1.69-5.5,4.5c0,0-2.5-2.5-9,1c0,0,0-5-3.5-5c0,0-8.5-9-10.5-1
	c0,0-4-1-3,5.5h-6c0,0,7.5-2.5,7-9c0,0,13.5-3.5,12-9c0,0-14-19.5-26,4c0,0-9-0.5-9,7l-2.5,3.125L1327,692c0,0,7.5-16-2.5-13.5
	c0,0-12,1.5-7.5,10l-2,6.5c0,0-4-7-8-5.5l-6,0.5c0,0,12.5-6-0.5-11c0,0-21.5,0-12.5,12.5c0,0-8.166,6,4.417,9.5
	c0,0-8.917-2.5-12.417,0c0,0-13,3.455-8,9.978c0,0-14.77-6.022-16.885,0c0,0-5.115,4.522,3.885,6.522l1.5,3c0,0-13-6.5-14.5-1
	c0,0-10-3.5-7,3c0,0-12-4.5-11,1c0,0,2,8,13.5,5"/>
<path style="fill:#FDFDFD;" d="M1443.668,884.167c0,0-39.833-28.583-33.167,28.083c0,0-51.167-12.583-29.834,38.75H1383
	c0,0-15.392,9.333-7.529,24c0,0-7.031,2.489-2.236-14.321c0,0-29.901,4.988-17.234,23.654c0,0-1.333,2-7.333-7.333
	c0,0-24.668-1.334-17.334,20c0,0-15.999,6.668-6.666,15.334c0,0-10,3.332-10,10.666c0,0-21.334-8-18.667,14.667
	c0,0,6.001,12.667,18.667,0l8-2.755c0,0,14.667,16.088,24,2.755c0,0-12.001,13.333-1.334,23.333c0,0-17.334,8.667-10,18.667
	c0,0-19.333,13.333-7.333,27.333l-6.667,4c0,0,2.666-12-8-11.333c0,0-20.667,1.435-12,14.384l-5.563,2.283c0,0-16.437-8-23.77,0
	c0,0-17.77-4.835-16.885,4.499c0,0-13.781-1.833-12.448,5.167H1237c0,0-9.666-9.667-14.333,0c0,0-29.334-3.666-29.334,16.334
	c0,0-36-2.668-14,20.666c0,0,10.666,14.001,26-4.666c0,0,21.333,1.332,16-11.334c0,0,5.333,3.333,12-2c0,0,7.334,4.667,12.667,2.667
	c0,0-9.334,20.001,17.333,14.667c0,0-8.666,6-4.666,10c0,0-27.334,0.666-26.667,16.666c0,0-25.333,8-23.333,24.667
	c0,0-14.668,12-11.334,18s3.334,6,3.334,6c-3.334-6-13.333-6-14,0s-10.816-13.333-21.408-8c0,0-19.926-16.997-33.259,9.168
	c0,0-27.334,14.832,0,20.832c0,0-28.964-1.383-12.148,22.309c0,0-17.852-21.642-23.185,4.358c0,0-18.524,4.667-7.929,20
	c0,0-28.738-10.001-26.071,18.666c0,0-6.667-12-16.667,6c0,0-10.59-2-16.628,12c0,0-13.967-6.667-16.336,0
	c0,0-14.369,3.333-14.369,10l478.666,12.667l-8-472.667L1443.668,884.167z"/>
<path style="fill:#FDFDFD;" d="M661.999,1405.665c0,0,23.333,12,57.333,0c0,0,14,11.999,33.334-2.667c0,0,11.999,3.333,18.666,0
	c-3.695,1.153,6.003,4.666,10.668,4c0,0-15.999,6.001,0,7.334c0,0,10.664-4,5.332-5.667s-3.995,0.333,11.669,3
	c0,0,18.997,2.667,27.664-3c0,0,0,7.667,12.667,5.667c-4.01,0.329,17.042,2.666,19.188-2.667c0,0,38.813,9.585,43.479,3.459
	l14.666-5.04c0,0-0.666-1.581-20.666,0c0,0,14.666-1.086,17.333-7.086c0,0,4,1.666,9.25,2.5c5.25,0.833,11.75,0.833,16.75-2.5
	c0,0,3.999,2.046-16.667,7.086c0-0.419,7.33,0.247,42.665-3.086c0,0,12.669,11.505,30.669,3.086c0,0,12.666,2.914,25.333-10.419
	l12.667-4c0,0-3.334,15.334,29.333,6.667c0,0,3.334,6.837,12.667,4.085l12.739-5.419c0,0,0.593,4,5.927,2c0,0,6.666,1.334,16-4.666
	c0,0-6.666,2-13.333,0c0,0,0.813-6-8.594-2.667c0,0-4.073-9.999-16.073-5.333c0,0-10-8.666-27.333-4c0,0-2.001-19.334-28.667-5.334
	c0,0-6.667-14.392-14-6.862c0,0-1.999-9.889-12.666-2.18c0,0,2.667-6.954-10-6.289c0,0,15.332-0.669,14.666-6.002
	c0,0,13.334,2.667,13.334-3.333c0,0-7.334-19.336-15.334-13.334c0,0-4.667-9.332-14-6.666c0,0,9.334-2.666,6.667-10
	c0,0-0.667,4.667-10.667,0c0,0-3.333-7.333-13.333,0c0,0-1.999-13.334-15.333-13.334c0,0,0.22-20.666-10.224-20.666
	c0,0-0.442-14.001-13.776-15.334c0,0-24.666,4.666-18,14l-2,6.667c0,0-1.334-2.666-10.667-3.333c0,0-21.999,0.666-15.333,15.333
	c0,0-13.333,4.001-10,10.667c0,0-30-3.334-28.667,9.333l-7.333,6c0,0,3.331-10.667-13.668-8.667c0,0-23.666,8.838-13.666,20.086
	c0,0-18,6.581-14,12.581c0,0-17.332-2.663-20.666,6.002c0,0-1.997-1.335-6.999,2.665c0,0,13.922-8.668,6.332-14
	c0,0-41.334-14-50,7.333c0,0-10,9.608,8.666,12.471c-3.447-0.681-12.666,4.196-5.332,8.196c0,0-18.001-4.666-16.668,4
	c0,0-11.332,0-8.666,7.333c0,0-10.697,0.137-6,8.667C689.332,1402.332,685.998,1413.665,661.999,1405.665z"/>
<path style="fill:#FDFDFD;" d="M598.135,1095.38c0,0-5.171-6.558-9.068,1.681c0,0,1.842,6.3,9.48,1.907c0,0,8.02,7.818,10.537,0.848
	c0,0,1.792,2.316,3.401-1.513c0,0-1.014-0.567,2.763-1.142l6.758,0.02c0,0-3.901-0.214-7.316-1.458s-0.869-2.709-6.342-3.519
	l-3.847,0.924c0,0-1.301-1.949-6.124-1.785c0,0,2.605-0.889-5.39-0.793l-2.684,0.311c0,0-3.243-3.519-6.878-3.653
	c0,0-12.961,1.424-9.382-5.225c0,0-4.333,4.771,0.274,5.689c0,0,0.585,2.714,5.634,2.828c0,0,4.47,3.835,8.973,3.043
	L598.135,1095.38z"/>
<polyline style="fill:#73BC99;" points="850,872.041 850,872.043 850.186,872.122 "/>
<path style="fill:#F4F4F4;" d="M968.608,914.05c-0.346,0.794-0.766,1.516-1.224,2.188c0.33,0.453,1.063,1.393,2.104,2.401
	C968.145,916.271,968.608,914.05,968.608,914.05z"/>
<path style="fill:#F4F4F4;" d="M989.595,903.463c0.25,0.966,0.643,2.123,1.231,3.529
	C990.826,906.992,991.142,901.061,989.595,903.463z"/>
<path style="fill:#F4F4F4;" d="M1135.004,877.784l13.036-1.327C1148.04,876.458,1139.383,870.484,1135.004,877.784z"/>
<path style="fill:#FFFDC7;" d="M1536.834,1315.904c-0.938-0.22-6.308-0.286-6.308-0.286c1.064,0.552-0.971,5.168-0.971,5.168
	c-4.155,2.977-6.536-5.808-6.536-5.808c-1.632,1.585-8.653,5.582-8.653,5.582c-4.839,0.822-3.551-1.661-11.425-1.063
	c-7.872,0.598-4.432-2.39-4.432-2.39c-5.202,1.173-3.002-2.546-3.002-2.546c-5.217,2.245-8.765,0.404-8.765,0.404l4.342-4.774
	c-3.868,4.054-6.117,4.032-6.117,4.032l0.861,2.158c-0.556,1.243-1.804,1.046-1.804,1.046c-2.361,2.467-7.169,1.323-7.169,1.323
	c-2.702,1.39-5.341,0.099-5.341,0.099c-4.815,0.822-8.464-6.775-8.464-6.775c-0.023,1.608,3.623,6.168,3.623,6.168
	c-0.735,1.418-4.787-2.278-4.787-2.278c0.338,3.694-3.597,2.199-3.597,2.199c-4.096-0.955,1.146-2.791,1.146-2.791
	c-2.063-1.069-4.731,2.31-3.684,1.975c-1.455,0.218-10.672-5.952-10.672-5.952c0.658,3.762-2.724,2.823-2.724,2.823
	c-6.452,1.159-5.305-3.838-5.305-3.838c-3.412,1.021-3.483-1.123-2.741-1.472c-2.063,1.222-4.752,0.466-4.752,0.466
	c-3.894-0.839-3.328-1.799-2.733-2.26c-0.831,0.255-2.053-0.492-2.053-0.492c-1.278,1.947-4.312,1.545-4.312,1.545l-3.063,1.563
	c1.585,1.632-1.656,3.192-1.656,3.192c-3.233,1.025,2.528,2.812,2.528,2.812l-1.64,2.12c-0.384,1.782-4.85,1.537-4.85,1.537
	c-3.18-2.549-1.024-3.232-1.024-3.232c-3.345-3.446,3.977-2.98,3.977-2.98c-1.063-0.553,1.824-2.474,1.824-2.474
	c3.773-1.375,8.028,1.013,7.827,0.116s0.943-0.88,0.943-0.88c-2.822-2.545,1.843-3.727,1.843-3.727
	c-0.331-1.792,3.232-1.024,3.232-1.024c-0.744-0.429-0.784-0.923-0.617-1.33c-1.817,0.604-4.491,1.869-8.427,4.36
	c0,0-7.162-8.125-12.644,1.886c0,0-11.304-3.658-17.505,6.262c0,0-5.434-3.845-8.676-0.945c-3.242,2.901,5.17,6.265,8.784,6.659
	c0,0-6.724,0.885-10.921,5.788c0.111,0.193,0.168,0.304,0.168,0.304c0.188,6.663-3.784,2.721-3.784,2.721
	c-2.302,12.703-17.792,3.595-17.792,3.595c-0.921,1.956-1.582,3.091-2.055,3.676c1.16,7.983-8.283-4.452-8.283-4.452
	c-3.201,8.048-11.612,1.744-11.612,1.744l-1.11,5.578c-3.335,5.91-10.275-0.938-10.275-0.938c-13.028,3.3-11.496-5.552-11.496-5.552
	c-13.556,9.587-14.979-2.498-14.979-2.498l-4.738,2.403l-5.186,0.076c-10.894-6.84-0.136-9.226-0.136-9.226
	c3.734-0.055,2.758,4.187,2.758,4.187l5.188-0.077c-3.35-1.95,9.433-4.173,7.41-4.11c6.215-0.758,10.434,3.846,10.434,3.846
	l-0.079-5.331c1.046-13.35,14.054-3.874,14.054-3.874c13.323,2.806,7.534,4.222,7.534,4.222c27.359-2.405,12.69,1.812,12.69,1.812
	c7.295,1.894,0.05,3.334,0.05,3.334c6.859,0.565,7.683,0.553,7.683,0.553c-5.049-6.052,7.372-6.777,7.372-6.777
	c6.613-5.021,11.713-1.009,14.354,2.173c-1.58-3.659-6.979-8.054-23.993-7.484c0,0-5.155-6.806-14.439-2.17
	c0,0,0.355-10.189-15.685-3.963c0,0-14.11-7.393-15.917,7.098l-6.458,3.395c0,0,2.629-10.706-11.437-9.186
	c0,0-11.547-1.465-10.257,6.836c0,0-8.236-4.975-22.654,6.51c0,0-1.357-0.964-11.567-1.26c0,0-6.35-8.85-28.634,0.962
	c0,0,2.275,5.959,8.87,5.861c0,0-2.52,2.99,4.622,4.584c0,0-7.317,0.021-10.911,6.155c0,0-2.063-5.578-6.313-3.021
	c-0.539,0.746-1.181,1.29-1.66,1.634c0.168,0.264,0.252,0.427,0.252,0.427c-0.733,2.848-1.697,4.878-2.785,6.311l4.271,0.03
	c7.905-3.011,17.361,2.397,17.361,2.397c9.212-1.554,11.224,3.171,11.224,3.171c8.689,0.063,2.481,10.241,2.481,10.241
	c4.185-13.327-18.866-6.218-18.866-6.218c-6.651,1.023-13.77-4.237-13.77-4.237l-4.769,1.501
	c-14.49,2.964-10.067,0.439-10.067,0.439c-8.703,1.981-11.746-1.106-11.746-1.106l-6.667,3.021c-10.225,0.438-6.113-3.11-12.75-4.18
	c-6.636-1.068-13.799-0.096-13.799-0.096l12.282-2.321c6.662-2.362,4.622-3.039,4.622-3.039c1.589-7.519,5.65-3.935,5.65-3.935
	c2.141-13.541,19.438-2.136,19.438-2.136c10.511-9.066,16.09-2.581,17.516-0.455c0.632-0.646,1.225-1.116,1.781-1.45
	c1.61-2.229,2.28-6.256-5.206-12.104c0,0-0.351-10.226-12.792-10.16c0,0-17.221,3.625-17.024,8.544c0,0-14.384-0.753-12.189,5.198
	c0,0-2.136-1.162-8.34,0.271c-2.516,0.581-5.634,0.982-9.617,2.667l-7.669,3.242l-5.422-0.591l3.934-5.893
	c0,0,12.716,4.141,24.155-6.853c0,0,33.043-1.144,9.146-16.802c0,0-14.72-6.602-16.244,8.089
	c-0.724-0.069-11.836,1.206-19.494,7.715c-0.712,3.187-2.18-3.48-14.538,2.516c0,0-9.115,3.097-12.031,9.714
	c-2.916,6.618-2.916,6.623-2.916,6.623c2.915-6.619,4.032-10.165-3.654-13.451c0,0-9.114,3.087-5.939,7.513
	c0,0-11.656-0.453-8.479,3.974c0,0-15.486-0.174-3.166,7.09c1.29-0.31,1.587,0.897,1.587,0.897c-0.58-0.313-1.098-0.608-1.587-0.897
	c-1.102,0.265-2.925,1.632-5.912,5.81c0,0-18.423,4.504-15.335,9.735c0,0-1.688,8.792,10.122,1.103c0,0-19.351,23.185,20.329,1.399
	c0,0,7.338,6.511,9.114-3.086c0,0,4.529,5.422,7.208-5.726c0,0,0.921,4.979,7.583-2.455c0,0,15.534,1.527,18.231-3.074l4.318,2.668
	l-2.308,2.611c0,0-6.194-3.946-18.427,1.273l-9.092,9.6c0,0,0.459,2.498,7.142,1.594c0,0,11.411,9.404,20.242,2.206
	c0,0,10.054,8.438,15.113,8.989c0,0-14.265,3.342-8.831,7.197c0,0,0.485,17.188,13.484,11.261c0,0,17.905,2.767,10.724-11.887
	c0,0,6.965,3.206,3.771-7.748c0,0,13.403,1.477,8.1-8.318l0.958,0.437c0,0-8.794,5.462,4.219,6.88c0,0,3.352,2.813,9.311,1.831
	c0,0,5.613,20.193,20.694,10.413c0,0,13.721-10.744,4.763-15.8l2.599-2.982c0,0,9.076,9.966,19.09,5.345l10.734-4.523l-4.403,6.846
	c0,0-13.649-2.303-11.724,6.883c0,0,9.44,14.084,23.574-1.512c0,0,9.662-1.396,7.297-6.548l6.876,4.012
	c0,0-18.011,17.622-1.823,23.464c0,0,18.249,0.356,16.675-12.054c0,0,14.011,3.158,10.767-9.434c0,0,6.01,0.654,1.143-10.484
	l4.286-1.164c0,0,0.937,11.558,8.06,6.607c0,0,25.327,2.514,19.799-13.886c0,0,7.987,0.597,2.273-5.795
	c-0.735,0.246-0.814-0.866-0.814-0.866c0.302,0.304,0.566,0.59,0.814,0.866c0.675-0.225,1.903-1.596,4.138-6.04
	c0,0,4.054-0.308,5.716-2.128c-1.045-1.703,0.047-3.771,0.047-3.771c0.998,1.69,0.746,2.903-0.047,3.771
	c0.869,1.417,3.217,2.582,8.918,2.092c0,0-18.801,18.121,7.149,14.943c0,0,16.747,0.715,16.092-6.7c0,0,18.621,3.661,6.927-9.853
	l5.028-3.531c0,0,6.903,9.727,19.437,2.118l8.032,1.69c0,0-6.536,4.59-0.571,5.24c0,0,13.897,5.187,18.389-2.483
	c0,0,14.853,10.593,20.468-14.089c0,0,4.688,10.301,15.971,7.451c0,0,7.526,6.321,18.097,3.647c2.55-1.09,5.104-1.936,5.104-1.936
	c-1.765,0.9-3.47,1.522-5.104,1.936c-3.97,1.697-7.926,3.988-2.203,4.611c0,0,10.682,9.324,19.142-1.177
	c0,0,18.179,7.692,23.834-3.932c0,0,14.263-3.342-5.735-14.496c0,0-14.834-4.879-16.259,1.492c0,0-0.02-6.528-16.715-1.005
	c0,0-6.063-3.469-12.159-5.311c-2.055,0.435-3.759-0.116-5.12-1.06c-1.847-0.158-3.514,0.012-4.78,0.703
	c0,0-2.072-2.085-5.354-3.446c-2.745,0.387-5.567-0.086-8.097-0.882c-1.954,0.397-4.023,1.276-6.142,2.88
	c0,0-10.863-7.729-19.681-0.643c0,0,1.567-4.963-15.093-6.674c1.754-0.752,8.267-2.008,8.07-6.937c0,0,9.887,2.706,16.958,1.516
	c0,0,11.016,8.325,15.887,9.857c3.077-0.626,5.867-0.043,8.097,0.882c2.111-0.297,4.175-1.096,6.021-2.661
	c0,0,1.354,3.491,4.114,5.404c1.614,0.139,3.367,0.529,5.12,1.06c1.904-0.405,4.104-1.651,6.617-4.249
	c0,0,12.591,5.277,22.464,1.944c0,0,6.737,5.3,13.4-2.134c0,0,15.823,10.699,15.79-3.176c0,0-4.54,7.247,2.678,4.758
	c0,0,26.342,8.336,14.91-7.596c0,0,0.476-3.269-5.847-1.597C1550.757,1319.053,1540.713,1313.879,1536.834,1315.904"/>
<path style="fill:#F4F4F4;" d="M1133.865,884.241c0,0-0.273,0.18-0.649,0.516l0.141,0.17
	C1133.524,884.713,1133.693,884.486,1133.865,884.241z"/>
<path style="fill:#F4F4F4;" d="M880.154,959.408c-0.057-0.24-0.126-0.488-0.224-0.751
	C879.931,958.657,879.863,958.948,880.154,959.408z"/>
<path style="fill:#F4F4F4;" d="M893.613,934.86c-0.222,0.058-0.412,0.128-0.55,0.213
	C893.214,935.025,893.408,934.951,893.613,934.86z"/>
<path style="fill:#F4F4F4;" d="M859.266,945.8c-0.316,0.413-0.638,0.847-0.973,1.335L859.266,945.8z"/>
<path style="fill:#FDFDFD;" d="M142.927,508.657c0,0,7.542-18.065-13.481-20.21c0,0-7.709-16.015-16.585-10.521
	c0,0-24.562,4.808-18.025,14.222c0,0-18.435,4.577-15.692,18.737c0,0-6.034-1.095-8.346,9.781c0,0-26.301,1.504-28.447,22.526
	c0,0,1.383,6.421,2.971,7.24l-7.41-3.829c0,0,2.409-0.768-16.938-8.752c0,0-1.481-8.814-16.338-13.809
	c0,0-6.377-21.402-37.527-23.416c0,0-8.197-4.906-10.569-6.803c0,0-0.263-20.256-22.944-17.894c0,0-7.649-5.964-13.524-4.976
	c0,0-15.818,1.886-15.087,9.641c0,0-17.378-13.005-31.247-12.124c0,0-13.208,11.282,12.984,25.488c0,0,9.695,12.387,21.173,10.941
	c0,0-6.221,6.846,17.615,17.821c0,0,7.804,6.963,30.12,15.689c0,0,3.685,7.146,10.805,12.837c0,0,2.01,9.086,8.16,7.569
	c0,0-1.677,5.841,3.598,9.908c0,0-5.25,14.053,22.76,11.762c0,0,1.457,6.264,8.605,11.897c0,0-8.755-5.12-11.645-6.017
	c0,0-2.485,8.702,13.21,10.776c0,0-0.019,1.332,10.877,3.609l-2.046-6.423c0,0,8.725,5.181,12.192,4.959
	c0,0-4.798,0.204-5.364,2.594c0,0,6.537,9.414,21.428,11.744l6.368,1.95l-6.135,2.792c0,0,12.567,14.614,24.247,17.968
	c0,0,0.563,5.4,18.833,10.275c0,0,15.518,11.501,25.902,12.171c0,0,3.907,6.714,13.505,6.309c0,0,12.466,4.43,19.144,3.188
	c0,0,9.581,0.926,14.345,3.388c0,0-2.726-15.491-10.682-18.262c0,0-14.714-15.651-22.434-16.288c0,0-7.904-6.767-11.354-7.878
	l16.242,1.015c0,0,4.931,9.925,12.704,6.564c0,0,8.724,5.181,13.321,0.178c0,0,11.848,10.816,16.153,7.675
	c0,0,17.759,7.167,19.417,2.658c0,0-12.084-12.951-15.808-13.534c0,0-5.222-8.065-10.514-10.799c0,0-6.245-11.276-14.221-12.713
	c0,0-0.186-6.133-8.927-9.979c0,0-3.953-10.09-17.027-15.505c0,0,18.184-11.393,12.045-30.661c0,0,4.412-11.133-2.979-16.294
	c0,0,20.272-1.595,16.93-10.701C157.283,527.142,160.24,513.246,142.927,508.657z"/>
<path style="fill:#F4F4F4;" d="M923.479,941.899c-0.161,0.069-0.309,0.163-0.414,0.323
	C923.064,942.222,923.277,942.094,923.479,941.899z"/>
<path style="fill:#F4F4F4;" d="M413.865,701.864c0.368,0,2.188-0.728,1.27-0.728C414.767,701.136,412.947,701.864,413.865,701.864z"
	/>
<g>
	<path style="fill:#FFFDC7;" d="M630,948.667c0,0,20.333,0.895,33,9.563c-1-0.229,13-6.771,22,0c0,0,10.834-9.563,22.834-3.563
		c0,0,11.166-10.709,24.166-5.188c0,0,11.668-1.573,18,3.855c4.667,4,14.334,2.333,28-4.667c0,0-12.666,0.895-26-7.13
		c0,0-13.833-2.703-20.166,2.963c0,0-10.834-3.833-16.668,0.833c0,0-23.666-2.667-22.666,1.333c0,0-6.166-1.333-10,2
		c0,0-14.741-5.855-18.5,0C664,948.667,643.702,945.703,630,948.667z"/>
	<path style="fill:#FFFDC7;" d="M0.159,900.979c0,0,27-15.344,26,2.992c0,0,14.297-1.015,15.148,12.661
		c-0.877-4.413,22.412-0.251,21.632,13.712c0,0,22.925,4.95,20.572,12.957c0,0,18.644-11.253,17.646,5.877
		c0,0,7.075,7.472,0.039,11.301c4.963,1.829,9.507,2.829,18.235,2.829c0,0-19.255,9-24.264,1c0,0,4.797,9.543-9.105,13.271
		c0,0-13.693,3.532-9.798-7.37c0,0-19.373-1.56-18.239-9.731c0,0-1.898,11.773-15.382,11.301c0,0-9.504,6.29-18.484,6.345
		c0,0-13.811,38.321-40.08,21.675C-15.921,999.8-82.841,916.651,0.159,900.979z"/>
	<path style="fill:#FFFDC7;" d="M354.5,1117.5c-13-9.5-14.5,0-14.5,0l-0.5-10c-0.5-10-13.918-8.44-13.918-8.44
		c-6.918-6.94,2.033-6.714,2.033-6.714c-8.386-10.154,11.886-10.363,11.886-10.363c-5.5-4.518-10,0-10,0
		c-6-7.518,2.427-7.522,2.427-7.522c-10.151-3.79-4.594-6.959-4.594-6.959c-1.167-2.333,1.342-2.875,1.342-2.875
		c-3.824-0.541-2.676,2.208-2.676,2.208c-5.667-0.833-4,5.5-4,5.5c-8.167,4.667,1.667,10.333,1.667,10.167
		c-4.167-0.333-1.667,6.999-1.667,6.999c-6.505-5-9.555,4.561-9.555,4.561c-3.657,2.71-3.912,5.953-3.276,8.493
		c-0.459,0.091-0.956,0.232-1.502,0.446c0,0-1.833-1.001-8.5-1.167c0,0-7.5-6.214-12.833-2.773c0,0-10.833-4.893-14.667,1.107
		c0,0-7.167-7.546-12.5-2.356c0,0-12.667-2.155-11.333,4.101c0,0-6.5-1.412-4.333,2.422c0,0-11.189,2.015-9.991,5.322
		c0,0-2.139,4.332,3.26,4.672c0,0-6.935-2.328,1.565-5.994c0,0-0.333,2.001,2.667,3.334c0,0-5.5-5.168,7.333-2.334
		c0,0,0-4.999,6-3.166c0,0-1.333,2.333,7.833,0.333c0,0,0.167,4.333,8.167,3.333c0,0-1.667,3.667-8.833,2.667
		c0.883,0.101,3.833,1.166,8.833,0.833c0,0-2.333,4.7-9.333,4.167c0,0,5.5,2.166,9.5-0.667c0,0,3.98,3.039,11,1.459
		c0,0,5.079,2.909,9.954,0.621C292.985,1118.999,294,1119,294,1119c4.5,5,12,4,12,4c2,5,12,3.75,12,3.75c3.5,6.75,12-1.75,12-1.75
		c8.5,9.5,11.5,5,11.5,5c-6-8,8.5-6.5,8.5-6.5C338.75,1114.5,354.5,1117.5,354.5,1117.5z"/>
	<path style="fill:#FFFDC7;" d="M163.785,885.269c0,0,17.469,0.522,21.769,6.397c0,0-5.57,2.442,6.438,9.138
		c0,0,4.693,3.696,13.851,4.696c0,0-9.842-3.456-9.842-7.978c0,0-11.171-5.694-3.335-7.858l6.963-0.164
		c0,0-19.584-7.346-20.356-13.923c0,0-0.272,2.396-7.772,1.409c0,0,6.57,8.577-7.715,6.045"/>
	<path style="fill:#FFFDC7;" d="M225.484,869.847c0,0,10.516,7.153,11.516,11.153c0,0,1.261-3.7,0-5.423c0,0,23-0.5,27.5,14.961
		c0,0,13-2.995,14,6.983c0,0-0.903-8.089-8.917-10.378c0,0,17.417,1.022,25.417,9.189c0,0-2.5,0.346-6.5,3.506
		c0,0,13.84-2.303,16.5,8.061c0,0,7.936-7.042,0-11.567c0,0-10.192-13.878-17.846-12.605c0,0-12.832-11.521-23.154-8.15
		c0,0-9.033-7.884-21.267-5.73C242.733,869.847,233.968,864.193,225.484,869.847z"/>
	<path style="fill:#FFFDC7;" d="M597.101,923.156c0,0-3.601-2.984-2.601-11.656c0,0,18.505-2.315,6.5-8.408
		c0,0-3.899-5.018,11-6.759c0,0-10.5-5.158-4.5-19.347c0,0-31.834,8.347-25,19.014c0,0-12.467-10.956-8.983,1.522
		c0,0-23.256-0.178-12.386,21.15c0,0-13.516-0.911-7.961,6.72c-2.071-2.066-9.591-7.247-35.927-13.396c0,0-15.53-9.195-21.386-4.095
		c0,0,38.514,8.6,39.514,20.6c0,0-2.497,0.962-5.596,2.62L518,927c0,0-10.787-4-22.144,0c0,0-1.992-12.617-15.174-13.309
		c0,0-5.017-10.191-17.35-8.191c0,0-8.333-10.352-15.833-7.426c0,0-3.666-2.908-13.833-1.741c0,0-4.728-10.838-17.156-6.667
		c0,0-0.435-8.582-10.524-5.056c0,0-5.654-8.121-13.321-7.366l-3.094,0.244c2.754,0.199,8.012,1.753,15.594,9.011
		c0,0,11.333,0.5,11,6.333c0,0,11.5,5.833,11.5,7.833c0,0-5.833,5.5,6.167,8.167c0,0,3,7.333,14.667,4.833c0,0-7.167,3.066,5,4.033
		c0,0-0.472,3.905-6,2.467c0,0,4,3.666,9.833-0.167c0,0,1.476,2.558,4.37,4.065c-4.246,0.372-8.774,2.298-9.036,8.769
		c0,0-9.422,2.329-6.961,6.748c0,0-9.587-4.496-14.23-1.205c0,0-14.937,1.121-13.207,6.956c0,0-7.38,3.73,0.925,11.783
		c0,0-3.028-7.448,2.639-9.115c0,0,3,5.833,7.833,6.5c0,0-3-2.167,0.333-7c0,0,3.325,3.537,7.996,3.019
		c0,0-2.996-11.292,13.004-7.905c0,0,6.167,4.613,14.333,0c0,0,15.786-10.329,19.476-1.721c0,0,6.403-11.743,11.047-6.567
		l9.144,6.567l7.5,1.721l6.072,6.865l3.246,0.884l0.182,0.156c0,0-25-8.519-22,2.481c0,0-6.5,0.203,27.5,5.229
		c0,0,9-2.229,26.428,12.771c0,0-16.928-20.318,11.072-12.771l7.196-8.751c0,0,8.804,5.616,12.804-10.431c0,0,21,1.602,21-4.723
		C606,934.325,602.201,933.313,597.101,923.156z"/>
	<path style="fill:#FFFDC7;" d="M658.667,921.664c0,0-8.167,4.669,1.464,8.206c0,0-5.631-3.37-2.464-4.537c0,0,0.288,2.932,5,3.5
		c0,0-1.5-6.167,5.167-3.333c0,0-1.667,4.667,3.833,5.333c0,0,3.167-5.333,7.167-1.833c0,0-1.667-1.166,5.833-1.333
		c0,0-3.833-6.771,2.5-2.219c0,0,0.167-6.961,6-1.455c0,0,2-4.931,5.167,1.455c0,0,0.166-4.787,4.166-3.784c0,0,5.834,1.678,3,7.169
		c0,0,4-2.847,3.334-4.84c0,0,4.833,3.001,7.5-2.329c0,0,0.166-6.669,2.333,0c0,0,1.462-4.81,0-5.997c0,0,4.743-6.621,7.833,1.667
		c0,0,8.449-7.594,11.834,0.667c0,0,4.833-1.839,7,3.664c0,0,6.057-0.321,3.111,3.674c0,0,4.555-2.505,3.722-8.005
		c0,0,4.499-0.002,7.833,1.249c0,0,2.5-2.416,7.167-1.749c0,0,2.754,0.494,3.377-2.336c0,0-3.377-0.997-9.71,0.336
		c0,0-4.168-7.333-7.584-2.583c0,0-0.106-8.657-6.307-3.749c0,0,0.557-6.65-4.443-5.409c0,0-7.168-6.247-8,2.408
		c0,0-4.334,5.5-2,5.833l1.334-2.5c0,0,0.499-4.333-8.834-2.833c0,0-7,0.334-2.833,3.667c0,0-8.054-1.397-6,3.5l-0.167,1
		c0,0-5.5-3.164-9.5,2.167l-1.422,0.853c0,0-7.246-8.521-12.244-0.02c0,0-0.834-5.666-7,2c0,0-4.667-5.667-14,0.833
		C671.833,920,667.166,915.828,658.667,921.664z"/>
	<path style="fill:#FFFDC7;" d="M850.425,867.063c-0.105,2.425-19.8,0-26.251,8.712c-5.628-3.533-22.956-12.793-31.174,1.211
		c0,0-21.001-8.68-29.001,0c0,0-13.333-10.013-20,0c0,0,0.597,2.233,3.051,4.24c-0.298-1.875,0.692-3.098,4.616-2.226
		c0,0,3.335-5.667,10.501,1c0,0,0.5,2.24,4.333,2.87c0,0-4.167-4.37,1.5-4.037c0,0,1.173,4.532,5.345,6.721
		c1.069,0.562,2.326,0.976,3.822,1.112c0,0,1.999,3.667,4.666,3.5c0,0,3.175,0.515,3.613,1.053c1.254-0.762,2.909-2.044,1.221-2.719
		c0,0,3-2,2-3.5c0,0,3.832,0.407,3.166-2.13l1.167,1.423c0,0-2.628,2.373,0,5.873c0,0-0.167-5.333,2-4.167
		c0,0-0.001,3.833,6.333,3.667c0,0-3.999-1.413-2.666-5.373c0,0,4.833,10.707,12.833,7.54c0,0,2.833,3.667,5.5-1.833
		c0,0,4.166-3.667,0.833-4.167c0,0,2.5-3.927-3.833-2.963c0,0,9.667-3.204,11,1.296c0,0-2.833,2.5,1,3.5c0,0-6.011,1.748-0.833,4.5
		c0,0-2.234-4.775,4.833-3.833c0,0-2.999-7.834,6.667-6.167l3.333-0.5c0,0-7.333-0.194-7-4.68c0,0,3.984,3.172,10.333-0.233
		c0,0,4.651-0.417,3.535-3.573l0.309-0.057l-0.177-0.08v-0.002c0-0.103,0.117-0.187,0.306-0.259
		c0.885,0.133,2.436,0.257,2.953-0.389l0.125-0.26l0.014-0.011C851.835,869.928,850.452,867.32,850.425,867.063z"/>
	<path style="fill:#FFFDC7;" d="M813.167,945.077c0.957,0.117,6.302-0.399,6.302-0.399c-1.118-0.433,0.405-5.243,0.405-5.243
		c3.809-3.41,7.126,5.065,7.126,5.065c1.451-1.752,7.998-6.486,7.998-6.486c4.722-1.341,3.71,1.267,11.473-0.181
		c7.762-1.447,4.665,1.896,4.665,1.896c5.044-1.73,3.26,2.207,3.26,2.207c4.942-2.798,8.669-1.353,8.669-1.353l-3.799,5.217
		c3.406-4.448,5.645-4.671,5.645-4.671l-1.09-2.052c0.417-1.296,1.68-1.235,1.68-1.235c2.08-2.708,6.983-2.092,6.983-2.092
		c2.536-1.675,5.299-0.677,5.299-0.677c4.698-1.338,9.147,5.819,9.147,5.819c-0.15-1.602-4.27-5.739-4.27-5.739
		c0.577-1.49,5.006,1.746,5.006,1.746c-0.736-3.635,3.337-2.575,3.337-2.575c4.176,0.505-0.837,2.897-0.837,2.897
		c2.166,0.84,4.453-2.808,3.447-2.362c1.424-0.374,11.255,4.762,11.255,4.762c-1.063-3.669,2.401-3.102,2.401-3.102
		c6.289-1.852,5.689,3.24,5.689,3.24c3.281-1.385,3.584,0.739,2.884,1.166c1.919-1.438,4.674-0.978,4.674-0.978
		c3.962,0.413,3.503,1.428,2.962,1.951c0.799-0.342,2.094,0.268,2.094,0.268c1.061-2.074,4.119-2.003,4.119-2.003l2.875-1.885
		c-1.752-1.451,1.301-3.353,1.301-3.353c3.104-1.369-2.817-2.521-2.817-2.521l1.4-2.286c0.188-1.813,4.654-2.053,4.654-2.053
		c3.438,2.19,1.368,3.103,1.368,3.103c3.698,3.063-3.63,3.393-3.63,3.393c1.117,0.434-1.546,2.657-1.546,2.657
		c-3.603,1.774-8.091-0.137-7.794,0.732c0.298,0.87-0.842,0.977-0.842,0.977c3.081,2.225-1.429,3.904-1.429,3.904
		c0.523,1.746-3.103,1.368-3.103,1.368c0.786,0.345,0.88,0.833,0.758,1.255c1.741-0.797,4.263-2.345,7.905-5.247
		c0,0,8,7.301,12.364-3.244c0,0,11.634,2.413,16.724-8.122c0,0,5.818,3.234,8.728,0c2.909-3.235-5.818-5.667-9.454-5.667
		c0,0,6.589-1.608,10.23-6.938c-0.132-0.18-0.2-0.283-0.2-0.283c-0.909-6.604,3.467-3.115,3.467-3.115
		c0.913-12.877,17.298-5.5,17.298-5.5c0.704-2.045,1.238-3.245,1.646-3.877c-2.019-7.811,8.716,3.529,8.716,3.529
		c2.311-8.348,11.355-2.992,11.355-2.992l0.5-5.667c2.675-6.236,10.316-0.179,10.316-0.179c12.594-4.692,12.029,4.274,12.029,4.274
		c12.438-10.999,15.162,0.861,15.162,0.861l4.45-2.903l5.146-0.637c11.57,5.62,1.135,9.156,1.135,9.156
		c-3.707,0.459-3.195-3.863-3.195-3.863l-5.149,0.638c3.541,1.577-8.926,5.17-6.922,4.889c-6.096,1.427-10.788-2.693-10.788-2.693
		l0.656,5.292c0.405,13.384-13.552,5.373-13.552,5.373c-13.549-1.346-7.947-3.381-7.947-3.381
		c-26.938,5.354-12.813-0.427-12.813-0.427c-7.457-1.091-0.41-3.308-0.41-3.308c-6.881,0.18-7.697,0.282-7.697,0.282
		c5.675,5.47-6.595,7.537-6.595,7.537c-6.03,5.708-11.534,2.271-14.505-0.606c1.968,3.467,7.811,7.251,24.663,4.841
		c0,0,5.862,6.208,14.59,0.594c0,0,0.75,10.169,16.021,2.24c0,0,14.828,5.822,15.055-8.779l6.052-4.074
		c0,0-1.453,10.928,12.364,7.892c0,0,11.638,0.205,9.456-7.907c0,0,8.727,4.053,21.816-8.925c0,0,1.454,0.812,11.636,0
		c0,0,7.271,8.109,28.361-4.058c0,0-2.908-5.678-9.453-4.867c0,0,2.181-3.246-5.092-4.056c0,0,7.272-0.812,10.181-7.3
		c0,0,2.655,5.322,6.604,2.32c0.455-0.801,1.034-1.412,1.474-1.805c-0.195-0.245-0.297-0.397-0.297-0.397
		c0.421-2.911,1.159-5.032,2.085-6.575l-4.249,0.433c-7.533,3.849-17.52-0.503-17.52-0.503c-8.989,2.542-11.501-1.937-11.501-1.937
		c-8.645,0.879-3.576-9.912-3.576-9.912c-2.716,13.702,19.429,4.138,19.429,4.138c6.502-1.738,14.147,2.721,14.147,2.721
		l4.578-2.008c14.084-4.516,9.961-1.528,9.961-1.528c8.438-2.911,11.797-0.172,11.797-0.172l6.301-3.726
		c10.116-1.543,6.414,2.43,13.127,2.774s13.729-1.399,13.729-1.399l-11.959,3.639c-6.367,3.069-4.266,3.521-4.266,3.521
		c-0.765,7.646-5.19,4.523-5.19,4.523c-0.662,13.694-19.093,4.229-19.093,4.229c-9.467,10.151-15.715,4.308-17.362,2.35
		c-0.559,0.71-1.097,1.242-1.614,1.635c-1.359,2.39-1.589,6.465,6.486,11.469c0,0,1.456,10.127,13.817,8.714
		c0,0,16.727-5.469,15.999-10.337c0,0,14.381-0.81,11.555-6.488c0,0,2.249,0.924,8.262-1.173c2.438-0.85,5.494-1.586,9.271-3.692
		l7.272-4.054h5.454l-3.272,6.284c0,0-13.089-2.739-23.271,9.428c0,0-32.725,4.716-7.273,17.694c0,0,15.349,4.968,15.272-9.801
		c0.728-0.009,11.636-2.48,18.544-9.781c0.363-3.245,2.544,3.225,14.181-4.075c0,0,8.726-4.065,10.908-10.96
		c2.182-6.895,2.182-6.899,2.182-6.899c-2.182,6.895-2.908,10.542,5.09,12.976c0,0,8.726-4.056,5.091-8.111
		c0,0,11.636-0.813,7.999-4.869c0,0,15.414-1.504,2.379-7.391c-1.249,0.447-1.675-0.72-1.675-0.72
		c0.61,0.248,1.157,0.486,1.675,0.72c1.066-0.382,2.731-1.94,5.248-6.416c0,0,17.827-6.473,14.19-11.339c0,0,0.726-8.922-10.182,0
		c0,0,16.726-25.144-20.361,0.812c0,0-8-5.678-8.727,4.055c0,0-5.09-4.9-6.545,6.473c0,0-1.455-4.851-7.272,3.261
		c0,0-15.608,0.164-17.791,5.03l-4.582-2.185l2.011-2.845c0,0,6.585,3.252,18.181-3.261l7.999-10.527c0,0-0.728-2.434-7.272-0.812
		c0,0-12.362-8.112-20.362,0c0,0-10.908-7.3-15.998-7.3c0,0,13.818-4.867,8-8.112c0,0-2.345-17.034-14.625-9.733
		c0,0-18.1-0.812-9.373,12.979c0,0-7.271-2.433-2.909,8.111c0,0-13.484-0.017-7.151,9.146l-0.999-0.33c0,0,8.15-6.382-4.939-6.382
		c0,0-3.637-2.435-9.454-0.812c0,0-7.768-19.467-21.7-8.11c0,0-12.477,12.167-3.023,16.223l-2.261,3.246
		c0,0-10.102-8.923-19.557-3.246l-10.181,5.661l3.636-7.283c0,0,13.818,0.811,10.909-8.112c0,0-10.91-12.979-23.271,4.055
		c0,0-9.454,2.434-6.545,7.3l-7.271-3.244c0,0,15.996-19.469-0.729-23.523c0,0-18.181,1.622-15.271,13.789
		c0,0-14.271-1.622-9.682,10.544c0,0-6.045,0,0,10.546l-4.135,1.622c0,0-2.183-11.39-8.728-5.695c0,0-25.45,0.244-18.179,15.948
		c0,0-8.005,0.271-1.632,6.006c0.704-0.324,0.903,0.774,0.903,0.774c-0.333-0.27-0.627-0.525-0.903-0.774
		c-0.646,0.297-1.72,1.794-3.46,6.453c0,0-3.996,0.745-5.451,2.735c1.224,1.58,0.361,3.754,0.361,3.754
		c-1.175-1.572-1.056-2.804-0.361-3.754c-1.018-1.314-3.478-2.218-9.092-1.113c0,0,16.727-20.051-8.727-14.081
		c0,0-16.726,1.103-15.271,8.403c0,0-18.908-1.623-5.818,10.545l-4.616,4.055c0,0-7.917-8.922-19.552,0L927,897.219
		c0,0,6-5.272,0-5.272c0,0-14.377-3.651-18.012,4.46c0,0-15.912-8.921-18.821,16.223c0,0-5.775-9.732-16.684-5.678
		c0,0-8.167-5.468-18.386-1.666c-2.416,1.36-4.864,2.478-4.864,2.478c1.656-1.086,3.284-1.889,4.864-2.478
		c3.763-2.117,7.447-4.823,1.691-4.823c0,0-11.629-8.112-18.901,3.244c0,0-18.905-5.678-23.269,6.49c0,0-13.816,4.867,7.272,13.789
		c0,0,15.274,3.244,16.001-3.245c0,0,0.727,6.489,16.726-0.812c0,0,6.403,2.792,12.663,3.963c1.995-0.655,3.749-0.292,5.204,0.499
		c1.854-0.042,3.492-0.392,4.676-1.216c0,0,2.286,1.848,5.696,2.845c2.688-0.681,5.544-0.517,8.146,0
		c1.899-0.606,3.861-1.705,5.793-3.528c0,0,11.637,6.507,19.635-1.493c0,0-1.021,5.104,15.727,5c-1.662,0.938-8,2.892-7.271,7.77
		c0,0-10.122-1.619-17.022,0.331c0,0-11.853-7.083-16.86-8.079c-2.992,0.956-5.828,0.678-8.146,0
		c-2.066,0.524-4.031,1.542-5.696,3.298c0,0-1.725-3.324-4.676-4.927c-1.62,0.037-3.404-0.162-5.204-0.499
		c-1.85,0.608-3.902,2.086-6.118,4.94c0,0-13.089-3.883-22.543,0.5c0,0-7.271-4.538-13.09,3.574c0,0-16.89-8.922-15.354,4.867
		c0,0,3.729-7.696-3.177-4.441c0,0-27.09-5.434-14,9.167c0,0-0.119,3.3,5.985,0.954C798.985,943.454,809.53,947.51,813.167,945.077"
		/>
	<path style="fill:#FFFDC7;" d="M715.333,789.57c0,0-9.333-1.848-20.667-0.98l-13.333,0.98c0,0,12-12.209-14.667-13.937
		c0,0,6.667-19.008-22.667-19.008l-8,7.776l4,8.64c0,0-2.667-5.372-9.333-4.414c0,0-4-7.006-21.333,0c0,0-8-2.686-17.333,0
		c-9.333,2.686-6.667-9.598-20,0c0,0-11.667-2.41-21-5.002c0,0-14.667,2.404-5.333,12.002c0,0,0.893-6.096,26.333,0.006
		c0,0,7.333,14.688,20,0c0,0,5.823,3.984,9.249,3.514c-2.719,1.354-7.89,5.179,0.917,9.442c0,0,4.236,0.396,7.578,0.381
		c-0.501-1.878-0.485-3.977,2.023-4.15c0,0,3.905-1.267,7.206-0.768c0,0,0.509-4.482,4.299-6.104c0,0,4.02-0.912,5.508,4.884
		c0,0-0.471,3.386-1.651,3.376c0,0,9.617,0.617,14.047,3.385l-8.166,2.649c0,0,19-3.12,23.231-0.961c0,0-0.406,4.793-8.438,5.437
		c0,0,20.307-1.51,24.423,0.293l3.039,3.319l2.388-3.527c0,0,3.466-1.115,5.68,1.629c3.714-0.102,10.669-0.219,16.667,0.087
		c0,0,23.334-3.522,28,3.644c0,0,14.666,6.302,20.666-8.386C748.666,793.777,726.666,789.684,715.333,789.57z"/>
	<path style="fill:#FFFDC7;" d="M365.883,694.272c1.586,0.217,3.024,0.542,4.123,1.011c-0.903-0.781-1.756-2.403-0.198-5.618
		c0,0,14.927-4.191,23.625,5.102c0,0-0.512-5.607,9.412-4.184c0,0,16.375,10.953,14.722,11.312c0,0-1.655,7.534-5.713,8.332
		c0,0,9.293,5.832,12.916,4.702c0,0-10.082-1.219-6.219-8.039c0,0,6.929-1.848,12.44,5.319c0,0,6.064,1.069,12.325,4.574
		l1.531,6.072c0,0,4.566,8.399,15.79,7.237c0,0,10.438-3.726,16.933,1.265c0,0,5.582,0.289,10.327,3.813L486,731
		c-6-5.333-41.333-14-41.333-14c14,3.333,17.333-4.667,17.333-4.667c-6-6-40-11.333-40-11.333h15.334c-6-7-22-13.334-22-13.334
		c2,0.667,4.667-4.667,4.667-4.667c0.667-10.667-6.667-11.333-6.667-11.333c-7.333,0.667-10.667,8-10.667,8
		C397.333,676.999,390,677,390,677c-8-2-5.333,11.667-5.333,11.667c-2-4.333-22.333-5.667-22.333-5.667
		C361.425,691.488,365.191,693.903,365.883,694.272z"/>
	<path style="fill:#FFFDC7;" d="M946.377,1163.499c-2.539-3.229,5.275-7.742,5.275-7.742c2.823-1.802,8.513-0.973,8.513-0.973
		c11.301-6.318,17.065,2.492,17.065,2.492c1.779,0.276,7.462,0.502,7.462,0.502c16.981-6.373,26.287,1.49,26.287,1.49
		c9.22-1.271,12.447,2.18,12.447,2.18c12.42-1.006,11.359-0.241,11.359-0.241l4.971-0.049c-1.063,0.01-3.575-2.347-3.575-2.347
		c-4.709-9.716,8.738-16.366,8.738-16.366c-1.801-5.306,1.685-6.23,1.685-6.23c-2.604-2.696-1.964-5.562-0.613-7.803l-3.991,0.921
		c0,0,1-2.666-3-3.333c0,0,6.666-3.334,5.333-4.667c0,0,1.334-1.822-1.333-3.411c0,0-10-6.921-14-2.255c0,0-6.333,1.999-4,5.666
		c0,0-0.333,3.667,2.667,4.667c0,0-4.652,2.038-3.77,7.877c-0.572-1.064-2.168-2.731-6.481-4.794c0,0,5.959-3.083,3.271-7.083H1015
		c0,0-2.667-7.333-11-2.333c0,0-12.001,10.236-2.667,13.951c0,0-8,5.716-0.333,11.049c0,0-1.999,0.332-5.333,5.666
		c0,0-3.647,0.565-4.761,2.207c0.528-1.085,1.612-3.814-0.239-4.873c0,0-0.001-2-6.334,0c0,0,1-6.333-2.333-7
		c0,0,3.333-2.764-1.667-7.049c0,0-5.667-2.049-9,0c0,0,1.334-3.618-5.666-1.618c0,0-4-0.764-6.667,1.618c0,0-9.667,6.048-3,12.715
		c0,0-0.517,5.22,2.143,6.416c-1.792-0.358-5.577-1.054-11.143-1.749c0,0-3,2.333,0,4c0,0-6.667-1.333-6,2
		c0,0-7.664,2.064-4.136,6.194C941.947,1162.927,946.377,1163.499,946.377,1163.499z"/>
	<path style="fill:#FFFDC7;" d="M1125.429,1172.144c-1.034,3.262-7.073,3.022-7.073,3.022c-3.164,3.282-8.518,0.082-8.518,0.082
		l-8.847,3.338c2.129-0.316,8.175,0.809,8.175,0.809c4.246-1.52,16.352,1.915,16.352,1.915c1.643-0.211,3.365,0.326,4.941,1.134
		c0.635-0.297,1.263-0.658,1.874-1.11c0,0,2.585-6.123,2.216-8.664C1131.501,1173.442,1125.429,1172.144,1125.429,1172.144z"/>
	<path style="fill:#FFFDC7;" d="M1163.333,1152c0,0,2.668-4.666-4.666-5.333c0,0-2.001-7-13.334-3.667c0,0-11,0.334-10,3.667
		c0,0-3.999,1.332-4.666,4.666c0,0-5.667-5.332-15.667-2.666c0,0,6.334-15.001-20.333-17.334c0,0,4-12.156-5-13.411
		c0,0-7.313,0.539-10.083,2.266c0.021,0.123,0.029,0.196,0.029,0.196c10.401-2.021,12.703,4.757,12.703,4.757
		c4.292,3.213-5.953,8.634-5.953,8.634c5.331,0.54,6.098,6.447,6.098,6.447c8.589,7.018,2.164,16.246,2.164,16.246
		c8.398-0.673,13.284,2.83,13.284,2.83c5.676-0.35,7.478,2.293,7.478,2.293c4.604-1.227,11.029,2.262,11.029,2.262
		c3.548-0.034,8.543,2.284,8.543,2.284c2.124-0.612,12.094,2.25,12.094,2.25c0.287,1.806-6.268,2.812-9.379,3.186
		c4.855-0.286,12.62-1.39,10.993-5.572c0,0,3.666-0.333,4.333-6.333c0,0,8.333,3.666,10.333-1.334
		C1163.333,1158.333,1167.666,1153,1163.333,1152z"/>
	<path style="fill:#FFFDC7;" d="M861.7,1057.979l13.538-1.718c9.285-2.184,6.428-2.769,6.428-2.769
		c2.145-6.819,7.86-3.573,7.86-3.573c0.168-0.721,0.415-1.356,0.721-1.928c-6.74-2.021-22.464-5.547-25.588,4.345
		c0,0-6.287-4.001-6.142,2.665C858.518,1055.002,859.634,1056.39,861.7,1057.979z"/>
	<path style="fill:#FFFDC7;" d="M1005.332,1050H997l-7.668,2.333c0,0-2-12.104-24-2.719c0,0,2.672-8.829-18.331-5.722
		c0,0-9.835-24.113-25.835-4.113l-5.916,3.943c0,0-3.293-8.028-8.626-0.028c0,0-10.278-5.619-10.081,0.402
		c8.121-1.255,20.126,3.817,20.126,3.817c17.144-9.722,25,0.135,25,0.135c-1.047,2.714-2.455,4.626-4.054,5.951h6.196
		c11.016-3,24.286,1.843,24.286,1.843c12.044-1.374,15.313,2.094,15.68,2.538c4.765-0.748,12.379-2.071,8.888-3.381H1001
		c0,0-1.668,4.227,4.332,4.227C1005.332,1059.227,1022.666,1057,1005.332,1050z"/>
	<path style="fill:#FFFDC7;" d="M1082.664,1038.999c0,0-2.667-6.146-14.667-4.034c0,0-12.386-6.965-22.667-2.965h-5.574
		c1.404-1.88,2.644-4.535,3.574-8.258c0,0-7.333-14.038-23.333-0.038c0,0-22.666-14.718-25.333,2.965c0,0-4.152-3.603-6.503,2.297
		c0.975,0.349,0.904,0.625,0.904,0.625c1.296,0.827,0.156,1.671-0.373,1.985c1.04-0.406,3.896,0.172,3.896,0.172
		c3.158-1.384,4.726-1.076,4.726-1.076c-5.26-3.8,1.514-4.309,1.514-4.309c-6.721-3.523,3.629-4.947,3.629-4.947
		c6.947-0.152,8.153,3.343,8.153,3.343l4.353,1.249c1.602,2.176-3.311,2.09-3.311,2.09c3.066,1.766,4.099,2.777,4.416,3.325
		c-0.012-2.51,3.78-2.295,3.78-2.295c-2.181-1.057-1.511-2.438-1.511-2.438c-1.367-1.966,3.708-1.366,3.708-1.366
		c3.592-0.973,10.458,3.969,10.458,3.969c1.859,1.217,0.631,1.646,0.631,1.646c0.869,0.822-4.612,0.679-4.612,0.679
		c2.985,1.145,1.917,1.981,1.917,1.981l3.158,0.512c-1.288,0.592-2.104,1.588-0.418,3.229c0,0-2.772-0.399-1.999,2.101
		c0,0-7.705-0.219-8.787,2.56c0.521-0.101,1.047-0.203,1.604-0.334c0,0-5.744,3.334,13.128-0.666l6.205-2c0,0,9.333,6.795,18,5.397
		c0,0,30-9.484,24.667,7.936C1085.997,1052.332,1093.998,1038.999,1082.664,1038.999z"/>
	<path style="fill:#FFFDC7;" d="M1232.116,1235.061l3.494-6.211l-11.678,6.005
		C1223.933,1234.854,1228.362,1234.376,1232.116,1235.061z"/>
	<path style="fill:#FFFDC7;" d="M1222.301,1255.107c0.115-0.23,0.25-0.458,0.43-0.682c0,0-0.415-12.083,4.131-16.734
		c-1.376-0.071-2.849,0.216-4.398,1.115c-8.03,4.662-3.964,2.799-5.408-1.786c0,0-4.034,3.857-9.173,8.022
		C1220.028,1243.668,1222.052,1253.489,1222.301,1255.107z"/>
	<path style="fill:#FFFDC7;" d="M1469.333,893l-25.665-8.833c0,0-5.891-4.224-12.762-6.204c-0.039,5.928,5.74,21.551-3.057,24.708
		c-13.237,4.751-1.868,13.021,2.313,7.828c4.177-5.192,0.678-11.444,16.587-4.629c0,0,8.522,8.567,1.114,14.583
		c0,0-6.299,6.52-11.374,8.667c5.571-0.525,14.772-0.002,8.723,10.588c0,0,10.615,1.699,2.675,11.567c0,0,2.875,13.438-11.681,6.004
		c0,0-8.652,4.373-12.174-1.885c0,0-8.323,12.158-13.938,13.51c3.281-0.201,11.284-0.114,6.227,6.172
		c0,0-22.728,21.501-34.563,13.259l-2.64-2.124c0,0-0.279,6.193-7.776,7.006c0,0,4.031,9.234-4.362,13.604
		c0,0-7.567,0.086-11.438-2.42c0.428,2.95-0.542,5.265-0.542,5.265c10-2.666,15.667,2.666,15.667,2.666
		c0.667-3.334,4.666-4.666,4.666-4.666c-1-3.333,10-3.667,10-3.667c11.333-3.333,13.334,3.667,13.334,3.667
		c7.334,0.667,4.666,5.333,4.666,5.333c4.333,1,0,6.333,0,6.333c-2,5-10.333,1.334-10.333,1.334c-0.667,6-4.333,6.333-4.333,6.333
		c2.334,6-14.667,5.667-14.667,5.667c2,1-1.667,9.666-1.667,9.666c-1.193,0.882-2.443,1.448-3.703,1.777
		c-1.39,2.898-3.354,5.733-6.143,7.958c0,0,12.289,12.374,4.145,20.366c-8.145,7.995-8.145,7.995-8.145,7.995
		c8.145-7.995,10.007-3.927,3.636,2.926c0,0-7.727,7.474-11.476,7.879c0,0-0.214,5.818-6.023,13.98c0,0,20.68-5.607,12.802,18.004
		c0,0-7.305,5.886-10.892,3.963c0,0,2.532,6.423-11.971,17c0,0,27.576,5.078,14.415,19.305c0,0,6.345,1.685-24.068,5.447
		c0,0,12.643,9.371-4.302,11.381c2.541-0.158,6.568,0.131-1.055,4.846c0,0,11.419-1.077,11.637,1.665c0,0,6.629,0.626,3.067,7.175
		c0,0,5.771,5.071-3.107,15.041c0,0-8.253,7.051-12.193,1.313l-6.674,4.041c0,0-0.812-7.499,1.899-8.739
		c0,0-7.087,0.298-2.898-7.033l-7.603,2.005c0,0-3.519-6.263,1.9-8.743l-7.815,2.27c0,0,16.493,20.976,5.941,33.021
		c0,0-22.028,19.926-29.817,13.655c0,0-4.226,14.532-15.488,17.595c5.33,1.332,7.336,6.239,7.336,6.239
		c9.406-3.333,8.594,2.667,8.594,2.667c6.667,2,13.333,0,13.333,0c-9.334,6-16,4.666-16,4.666c-5.334,2-5.927-2-5.927-2
		l-12.739,5.419c-9.333,2.752-12.667-4.085-12.667-4.085c-32.667,8.667-29.333-6.667-29.333-6.667l-12.667,4
		c-12.667,13.333-25.333,10.419-25.333,10.419c-6.917,3.235-13.041,3.523-17.967,2.658c1.66,1.769,1.756,3.865-2.679,5.896
		c0,0-7.118,13.099-22.001,11.391c0,0,8.726,6.168,0.911,8.436c0,0-23.628-1.478-14.138-6.889c0,0-9.604-16.249,15.885-20.802
		c0,0,0.095-1.266,0.782-3c-4.52,0.396-8.465,0.713-11.91,0.969c-0.925,0.917-1.926,1.876-2.984,2.837
		c0.302,0.456,0.615,0.919,0.953,1.396c0,0-0.41-0.496-1.121-1.246c-3.499,3.159-7.543,6.261-11.121,7.632
		c-2.603,5.121-8.65,9.151-8.65,9.151c-8.276,4.365-10.817,2.807-10.817,2.807l1.824,6.717c10.591,4.403-7.885,21.397-7.885,21.397
		c-5.064,2.49-9.371,1.861-12.664,0.303c-0.722,1.166-1.633,2.407-2.778,3.734c0,0-8.792,15.173-19.811,9.728
		c0,0,0.81,7.499-8.132,3.725c0,0-3.939-5.737,2.418-8.322c0,0-3.49,1.096-7.656-1.259c-0.521,0.594-1.033,1.248-1.532,1.975
		c1.938,1.557,2.81,3.959-0.83,7.48c-3.192,3.086-7.35,5.819-11.406,7.76l457.644,12.11L1469.333,893z"/>
	<path style="fill:#FFFDC7;" d="M1241.5,728.5l5.825,2.718c0.814-0.267,1.703-0.585,2.689-0.974
		c11.229-4.425,7.553,1.492,7.553,1.492c7.067-4.061,5.531,2.366,5.531,2.366c6.605-5.634,12.617-4.546,12.617-4.546l-4.185,8.93
		c3.818-7.663,7.114-8.648,7.114-8.648l-2.232-2.763c0.251-2.066,2.163-2.341,2.163-2.341c2.335-4.668,9.873-5.167,9.873-5.167
		c3.319-3.248,7.756-2.553,7.756-2.553c6.663-3.372,12.319,2.088,12.319,2.088c-0.691-2.36-4.976-3.383-4.976-3.383
		c0.436-2.404,3.211-2.647,3.211-2.647c-2.302-7.866,7.354-11.831,7.354-11.831c6.414-0.454,5.34,7.548,5.34,7.548
		c3.495,0.631,1.826,2.351,0.448,3.312c2.026-0.974,6.316-1.592,6.316-1.592c-2.659-5.199,2.704-5.353,2.704-5.353
		c8.9-4.604,9.479,3.212,9.479,3.212c4.521-3.031,5.592,0.069,4.664,0.913c2.465-2.714,6.731-2.823,6.731-2.823
		c5.95-0.521,5.686,1.067,5.05,2.016c1.114-0.695,3.181-0.155,3.181-0.155c0.651-2.245,2.854-3.348,4.297-3.844
		c0.059-0.16,0.117-0.309,0.175-0.475c0,0,0.043,0.154,0.154,0.367c0.579-0.178,0.977-0.248,0.977-0.248l3.768-3.664
		c-3.051-1.669,0.979-5.41,0.979-5.41c0.567-0.394,1.105-0.629,1.616-0.757c-0.047-0.952-0.428-4.788-3.493-4.788c0,0-8.5-9-10.5-1
		c0,0-4-1-3,5.5h-6c0,0,7.5-2.5,7-9c0,0,13.5-3.5,12-9c0,0-14-19.5-26,4c0,0-9-0.5-9,7l-2.5,3.125L1327,692c0,0,7.5-16-2.5-13.5
		c0,0-12,1.5-7.5,10l-2,6.5c0,0-4-7-8-5.5l-6,0.5c0,0,12.5-6-0.5-11c0,0-21.5,0-12.5,12.5c0,0-8.166,6,4.417,9.5
		c0,0-8.917-2.5-12.417,0c0,0-13,3.455-8,9.978c0,0-14.77-6.022-16.885,0c0,0-5.115,4.522,3.885,6.522l1.5,3c0,0-13-6.5-14.5-1
		c0,0-10-3.5-7,3c0,0-12-4.5-11,1C1228,723.5,1230,731.5,1241.5,728.5z"/>
	<path style="fill:#FFFDC7;" d="M1198,743.5c0,0-7,4,7.5,7l0.015,0.03c2.866-1.337,5.962-2.179,5.962-2.179
		c-1.803-0.326-0.913-7.987-0.913-7.987c0.097-0.127,0.199-0.245,0.3-0.365H1210c0,0,8-6,8-8c0,0-19.5-3-20,4
		C1198,736,1187.5,735.5,1198,743.5z"/>
	<path style="fill:#FFFDC7;" d="M1224.843,737.609c1.671-3.05,8.008-3.765,8.008-3.765c0.593-0.299,1.124-0.537,1.613-0.728
		c-2.886,0.014-7.021,0.738-12.964,2.884l-1.066,0.711C1222.95,736.924,1224.843,737.609,1224.843,737.609z"/>
	<path style="fill:#FFFDC7;" d="M1391.5,680c0,0-4.673-0.919-7,9c0,0-4.598-1.139-5.497,1.936c1.852-1.061,4.198-1.652,4.198-1.652
		c5.793,2.29,2.953,4.26,2.953,4.26c0.34,0.186,0.62,0.368,0.867,0.549c1.548-1.057,3.427-2.726,4.479-5.092
		C1391.5,689,1381,685,1391.5,680z"/>
	<path style="fill:#FFFDC7;" d="M504.667,741.666c-1.333-8-9.333-8-9.333-8l-5.044,3.924c0.871,1.483,2.688,4.956,2.05,7.125
		c12.23,3.463,16.328,2.951,16.328,2.951L504.667,741.666z"/>
	<path style="fill:#FFFDC7;" d="M365.862,694.27l-7.195-3.27c1.412,1.083,2.714,2.063,3.936,2.968
		C363.712,694.032,364.817,694.128,365.862,694.27z"/>
	<path style="fill:#FFFDC7;" d="M904.525,1059.354l-1.47,0.44c0.543,0.17,1.667,0.304,3.602,0.375
		C905.174,1059.767,904.525,1059.354,904.525,1059.354z"/>
	<path style="fill:#FFFDC7;" d="M1375.373,697.552l1.439-3.837c-0.031-0.356,0.054-0.693,0.22-1.011
		c-1.337-0.198-3.417-0.006-6.394,1.476C1373.58,693.979,1375.373,697.552,1375.373,697.552z"/>
	<path style="fill:#FFFDC7;" d="M1325.15,733.416c-0.146,0.508-0.293,0.97-0.438,1.391c0.271-0.397,0.534-0.825,0.788-1.306
		C1325.5,733.5,1325.371,733.471,1325.15,733.416z"/>
	<path style="fill:#FFFDC7;" d="M387.331,877.667l2.242-0.177C388.09,877.382,387.331,877.667,387.331,877.667z"/>
	<path style="fill:#FFFDC7;" d="M850.259,872.393c0.063-0.079,0.109-0.168,0.139-0.271l-0.009,0.001
		C850.349,872.212,850.306,872.302,850.259,872.393z"/>
	<path style="fill:#FFFDC7;" d="M846.708,872.765l0.241-0.042c-0.173-0.032-0.282-0.057-0.282-0.057L846.708,872.765z"/>
	<path style="fill:#FFFDC7;" d="M785.446,891.219c-0.603,0.366-1.113,0.614-1.113,0.614
		C785.368,891.646,785.619,891.431,785.446,891.219z"/>
	<path style="fill:#FFFDC7;" d="M850.424,872.043l0.001-0.002L850.424,872.043z"/>
	<path style="fill:#FFFDC7;" d="M849.895,867.82l-0.002-0.154C849.893,867.667,849.878,867.667,849.895,867.82z"/>
	<path style="fill:#FFFDC7;" d="M872.485,924.392c-1.455-0.791-3.209-1.154-5.204-0.499
		C869.081,924.23,870.865,924.429,872.485,924.392z"/>
	<path style="fill:#FFFDC7;" d="M855.098,905.287c-1.58,0.588-3.208,1.391-4.864,2.478
		C850.233,907.764,852.682,906.646,855.098,905.287z"/>
	<path style="fill:#FFFDC7;" d="M891.003,926.021c-2.602-0.517-5.458-0.681-8.146,0
		C885.175,926.699,888.011,926.977,891.003,926.021z"/>
	<path style="fill:#FFFDC7;" d="M1007.155,881.033c0.276,0.249,0.57,0.504,0.903,0.774
		C1008.059,881.807,1007.859,880.708,1007.155,881.033z"/>
	<path style="fill:#FFFDC7;" d="M998.605,893.975c0,0,0.862-2.174-0.361-3.754C997.55,891.17,997.431,892.402,998.605,893.975z"/>
	<path style="fill:#FFFDC7;" d="M1257.688,865.494c-0.518-0.234-1.064-0.472-1.675-0.72
		C1256.014,864.774,1256.439,865.941,1257.688,865.494z"/>
	<path style="fill:#FFFDC7;" d="M1133.356,884.926l-0.141-0.17c-0.439,0.393-1.019,1.003-1.474,1.805
		C1132.26,886.168,1132.798,885.636,1133.356,884.926z"/>
	<path style="fill:#FFFDC7;" d="M1133.356,884.926c1.647,1.958,7.896,7.801,17.362-2.35c0,0,18.431,9.465,19.093-4.229
		c0,0,4.426,3.123,5.19-4.523c0,0-2.102-0.452,4.266-3.521l11.959-3.639c0,0-7.016,1.743-13.729,1.399s-3.011-4.317-13.127-2.774
		l-6.301,3.726c0,0-3.359-2.739-11.797,0.172c0,0,4.123-2.988-9.961,1.528l-4.578,2.008c0,0-7.646-4.459-14.147-2.721
		c0,0-22.145,9.564-19.429-4.138c0,0-5.068,10.791,3.576,9.912c0,0,2.512,4.479,11.501,1.937c0,0,9.986,4.352,17.52,0.503
		l4.249-0.433c4.379-7.3,13.036-1.327,13.036-1.327l-13.036,1.327c-0.926,1.542-1.664,3.664-2.085,6.575
		c0,0,0.102,0.153,0.297,0.397c0.376-0.335,0.649-0.516,0.649-0.516C1133.693,884.486,1133.524,884.713,1133.356,884.926z"/>
</g>
<path style="fill:#FFFDC7;" d="M641.999,1359.5C641.497,1346.5,616,1348,616,1348c9-8.5-13.995-11-13.995-11
	c-5.495-14,7.995-4.5,7.995-4.5c9,8,29,0.5,29,0.5c-26,3.5-28-6.5-28-6.5c-11-10.5-30-3-30-3c-2-12.5-17-12-17-12
	c-2.5-11.5-17.5-10.524-17.5-10.524c7-10.524-28.5-26.976-28.5-26.976c-14.5-0.5-6,19.5-6,19.5l-5.5,2.498
	c-19-13.502-21.92,10.218-19.5,11.002c-20-7.5-17,16.5-17,16.5c-0.5,9,6.5,6,6.5,6s-7.014,4.936-4.5,4.5
	c-22.5,3-10.5,22.5-10.5,22.5c-2.5,7.5,0.982,8.063,3.31,8c-19.691,0.262-27.896,6.254-31.245,11.919
	c-3.643-12.274-32.065-14.919-32.065-14.919c29.5-2.5,14.5-27,14.5-27c25.5-7.5,10.5-22.5,10.5-22.5c35.5,1,33.5-11.024,33.5-11.024
	c36.5-8.524,29-20.476,29-20.476c8-6-13.144-20-13.144-20c-39.644,8-48.856-18-48.856-18c-24-6-12.5-35-12.5-35c4-7-8.5-9-8.5-9
	c10.5-14.5,3.499-23,3.499-23C388.998,1180,387,1171,387,1171c-7,5.5-0.5,10-0.5,10c-1.979,5.276,2.566,7.651,5.891,8.658
	c-3.195,1.502-1.891,11.842-1.891,11.842c-9-2-3.5,9-3.5,9c-8-7.5-13.5,5.5-13.5,5.5c-9.5-3-10.5,9.5-10.5,9.5
	c-14,11.5-1,28.5-1,28.5c-7-1.5-6-9.5-6-9.5c-7,1.5-1.5,15-1.5,15c2,10,23.5,11,23.5,11c-4,7.5,1,7,1,7c-6,8.5-16.5-1.5-16.5-1.5
	c-3.5,9,12,10.708,12,10.708c-3.5,6.208,10,9.29,10,9.29C377,1296.496,376,1311,376,1311c-1.25-3.749-10.697-3.008-17.611-1.925
	c2.896-4.415,3.111-13.077,3.111-13.077c1-10.502-18.5-9.29-18.5-9.29c-1.5-12.792-9.247-5.708-9.247-5.708
	c2.423-10.058-14.994-16.227-24.038-18.721c4.65-2.967,9.285-13.779,9.285-13.779c4,7.5,20.5,0,20.5,0c6.5,6,6-5,6-5
	c-0.5-10-15-8.5-15-8.5c-3-14.5-14.5,0.5-14.5,0.5c0.5-11-9.5-4-12-4.5c2.5-9-8-4-9-6.5c8.5,1,12.5-5,12.5-5
	c-11,5-20.5-11.5-20.5-11.5c1-13-14.5-5.5-14.5-5.5c0-10.5-14-7-14-7c-10.5-3.5-12,12.5-12,12.5c-1-8.5-12-4.5-12-4.5
	c-16,3.5-6,17.5-6,17.5c-13,1-11.5,10.5-11.5,10.5c0,6.5,16.5,0.5,16.5,0.5c-15,7.5-5,15.5-5,15.5c-1.5,8.5,17.5,7,17.5,7
	c-4.5,9,19.5,11,19.5,11c-28-0.5-17.5,34.75-17.5,34.75c-10-1.25-3,14.25-3,14.25c1.5,5.5-12.5,4.5-12.5,4.5c1-15.5-14.5-12-14.5-12
	c0-16-16.5-9-16.5-9c-5-5-10,2.25-10,2.25c-3.5-18.75-19.5-7.75-19.5-7.75c-1-6.5-24,0-20-2s7.272-8.5,7.272-8.5
	c6.272,6,23.228-4.5,23.228-4.5c-4.454,2.969-12.76-0.121-16.748-1.912c5.32-0.469,18.248-7.088,18.248-7.088
	c-6,2-9.5-10.5-9.5-10.5c0-3.424-13.913-8.311-17.922-9.647C160.104,1248.381,165,1239,165,1239c6-4.5-11.5-16-11.5-16
	c-35-9-26,23.5-26,23.5c-21-7-24.5,9-24.5,9c-15-5-17,16-17,16c-20.5-4-7.151,19.5-7.151,19.5c-2.651,0-2.349,4.998-2.349,4.998
	c-11.5-1.002-6,11.502-6,11.502c-7-1-1,13.5-1,13.5c-17-9-38.23,10.708-38.23,10.708L11.5,1352.5l-7.49,23.718
	c-0.318,0.346-0.628,0.711-0.92,1.118c0,0-14.622,0.893,3.213,15.255c0,0,13.799,7.308,16.277,1.268c0,0-1.081,6.438,16.307,3.806
	c0,0,5.392,4.44,11.091,7.283c2.099-0.083,3.686,0.747,4.868,1.906c1.794,0.468,3.466,0.58,4.83,0.112c0,0,1.692,2.403,4.698,4.299
	c2.771,0.081,5.473,1.022,7.833,2.233c1.993-0.063,4.181-0.581,6.539-1.805c0,0,9.407,9.448,19.292,3.947
	c0,0-2.38,4.629,13.753,9.121c-1.855,0.445-8.486,0.587-9.123,5.478c0,0-9.29-4.332-16.46-4.35c0,0-9.456-10.062-14-12.392
	c-3.139,0.098-5.791-0.946-7.833-2.233c-2.131-0.063-4.299,0.376-6.382,1.609c0,0-0.747-3.67-3.146-6.021
	c-1.568-0.409-3.229-1.089-4.868-1.906c-1.945,0.078-4.325,0.936-7.238,3.073c0,0-11.522-7.323-21.816-5.7
	c0,0-5.748-6.359-13.568-0.153c0,0-9.791-9.374-14.253-4.148c-0.413-0.592-1.479-0.884-3.684-0.521c0,0-24.562-12.653-15.977,4.976
	c0,0-1.02,3.142,5.495,2.559c0,0,9.029,6.792,13.193,5.448c0.888,0.376,6.169,1.345,6.169,1.345
	c-0.957-0.723,1.827-4.931,1.827-4.931c4.598-2.234,5.464,6.825,5.464,6.825c1.875-1.287,9.47-4.045,9.47-4.045
	c4.908,0.006,3.22,2.236,11.083,2.974c7.861,0.736,3.966,3.102,3.966,3.102c5.325-0.28,2.53,3.016,2.53,3.016
	c5.52-1.335,8.708,1.077,8.708,1.077l-5.084,3.975c4.496-3.344,6.709-2.944,6.709-2.944l-0.485-2.272
	c0.756-1.132,1.954-0.728,1.954-0.728c2.743-2.033,7.289-0.097,7.289-0.097c2.898-0.914,5.281,0.803,5.281,0.803
	c4.885,0,7.201,8.104,7.201,8.104c0.294-1.582-2.532-6.69-2.532-6.69c0.963-1.273,4.335,3.052,4.335,3.052
	c0.289-3.698,3.915-1.562,3.915-1.562c3.877,1.632-1.6,2.558-1.6,2.558c1.653,1.25,4.37-0.902,4.164-1.273
	c1.857,0.538,9.317,7.612,9.317,7.612c-0.016-3.819,3.16-2.324,3.16-2.324c6.556-0.056,4.583,4.676,4.583,4.676
	c3.535-0.432,3.244,1.694,2.454,1.912c2.239-0.855,4.763,0.342,4.763,0.342c3.697,1.482,2.977,2.334,2.313,2.688
	c0.445-0.057,0.945,0.166,1.327,0.396c-0.853,0.354-1.819,0.433-1.819,0.433c0.024,1.823-3.359,0.467-3.359,0.467
	c0.662,0.547,0.618,1.041,0.385,1.414c1.886-0.288,4.724-1.081,8.997-2.86c0.021,0.003,0.041,0.006,0.061,0.009
	c0.341,0.533,5.897,8.907,12.763,0.244c0,0,10.527,5.509,18.31-3.225c0,0,4.709,4.705,8.393,2.393
	c3.685-2.313-4.041-7.046-7.538-8.043c0,0,6.777,0.261,11.741-3.866c-0.078-0.209-0.115-0.327-0.115-0.327
	c0.936-6.6,4.188-2.045,4.188-2.045c4.409-12.134,18.143-0.547,18.143-0.547c1.238-1.773,2.08-2.78,2.646-3.276
	c0.2-8.065,7.414,5.783,7.414,5.783c4.511-7.394,11.741,0.236,11.741,0.236l2.034-5.312c4.282-5.264,9.97,2.655,9.97,2.655
	c13.397-1.058,10.396,7.409,10.396,7.409c14.977-7.167,14.345,4.985,14.345,4.985l5.075-1.571l5.124,0.799
	c9.586,8.576-1.419,9.116-1.419,9.116c-3.691-0.574-2.014-4.591-2.014-4.591l-5.127-0.798c2.973,2.486-10.001,2.524-7.997,2.804
	c-6.253-0.3-9.636-5.549-9.636-5.549l-0.82,5.27c-3.28,12.981-14.506,1.451-14.506,1.451c-12.66-5.01-6.716-5.431-6.716-5.431
	c-27.373-2.236-12.204-3.924-12.204-3.924c-6.872-3.094,0.513-3.294,0.513-3.294c-6.667-1.713-7.479-1.839-7.479-1.839
	c3.958,6.816-8.409,5.438-8.409,5.438c-7.364,3.836-11.715-0.978-13.783-4.559c0.942,3.873,5.523,9.114,22.39,11.418
	c0,0,3.936,7.577,13.868,4.572c0,0-2.066,9.983,14.793,6.547c0,0,12.664,9.664,16.885-4.314l6.937-2.259
	c0,0-4.394,10.11,9.726,10.98c0,0,11.136,3.388,11.262-5.011c0,0,7.281,6.29,23.428-2.602c0,0,1.176,1.179,11.19,3.19
	c0,0,4.768,9.792,28.387,3.874c0,0-1.24-6.257-7.756-7.271c0,0,2.987-2.523-3.785-5.297c0,0,7.217,1.212,11.792-4.229
	c0,0,1.094,5.846,5.714,4.042c0.657-0.646,1.381-1.073,1.912-1.332c-0.121-0.288-0.177-0.462-0.177-0.462
	c1.203-2.685,2.495-4.522,3.808-5.752l-4.205-0.749c-8.3,1.636-16.71-5.287-16.71-5.287c-9.342-0.021-10.529-5.017-10.529-5.017
	c-1.662-0.296-2.699-0.876-3.302-1.614l28.345,3.22c2.786,1.756,4.645,3.685,4.645,3.685l4.953-0.677
	c14.782-0.48,9.998,1.263,9.998,1.263c8.913-0.487,11.392,3.069,11.392,3.069l7.081-1.856c10.151,1.29,5.501,4.097,11.863,6.268
	s13.586,2.419,13.586,2.419l-12.499,0.22c-6.965,1.206-5.068,2.217-5.068,2.217c-2.832,7.144-6.231,2.927-6.231,2.927
	c-4.392,12.987-19.521-1.169-19.521-1.169c-11.888,7.167-16.294-0.165-17.341-2.501c-0.732,0.53-1.395,0.895-2,1.13
	c-1.963,1.926-3.301,5.782,3.093,12.808c0,0-1.376,10.139,10.898,12.169c0,0,17.585-0.673,18.22-5.554
	c0,0,14.052,3.165,12.891-3.071c0,0,1.91,1.505,8.267,1.138c2.577-0.148,5.719-0.019,9.929-1.009l8.105-1.904l5.245,1.496
	l-4.87,5.146c0,0-11.836-6.223-24.964,2.687c0,0-32.763-4.438-11.846,15.021c0,0,13.398,8.985,17.374-5.238
	c0.703,0.19,11.87,0.806,20.516-4.321c1.239-3.021,1.562,3.799,14.754-0.03c0,0,9.506-1.518,13.495-7.55
	c3.666-5.543,3.963-5.994,3.987-6.031c-3.987,6.03-5.683,9.337,1.34,13.869c0,0,9.503-1.508,7.12-6.405
	c0,0,11.413,2.409,9.027-2.489c0,0,15.236,2.78,4.314-6.455c-1.324,0.088-1.413-1.152-1.413-1.152
	c0.519,0.406,0.979,0.785,1.413,1.152c1.13-0.075,3.159-1.115,6.806-4.73c0,0,18.918-1.337,16.755-7.014
	c0,0,3.145-8.382-9.791-2.792c0,0,22.979-19.594-19.804-4.802c0,0-6.137-7.654-9.504,1.506c0,0-3.551-6.107-8.069,4.43
	c0,0-0.069-5.063-7.888,1.143c0,0-15.055-4.121-18.488-0.04l-3.808-3.357l2.714-2.186c0,0,5.441,4.933,18.378,1.849l10.579-7.931
	c0,0-0.032-2.54-6.771-2.774c0,0-9.665-11.191-19.582-5.583c0,0-4.358-5.14-8.63-8.567l28.327-4.245
	c2.497,2.19,6.229,4.292,7.919-0.669c0,0,1.695,0.566,2.721-0.926l0.677-0.101c-0.976,1.193-1.684,2.724-1.697,4.682
	c0,0-13.745,2.36-12.709,7.966c0,0,12.323,20.602,26.243-1.814c0,0,8.927,1.25,9.553-6.224l2.752-2.905l1.651-1.743
	c0,0-8.81,15.317,1.364,13.661c0,0,12.083-0.492,8.309-9.339l2.536-6.31c0,0,3.401,7.31,7.513,6.148l6.021,0.003
	c0,0-12.957,4.936-0.42,11.003c0,0,21.425,1.796,13.5-11.412c0,0,3.531-2.171,2.868-4.922c1.826,0.356,4.146,0.313,7.095-0.456
	l5.825,2.719c0.814-0.268,1.703-0.586,2.689-0.975c11.229-4.424,7.553,1.492,7.553,1.492c7.067-4.061,5.531,2.365,5.531,2.365
	c6.605-5.633,12.617-4.545,12.617-4.545l-4.185,8.93c3.818-7.663,7.114-8.648,7.114-8.648l-2.232-2.762
	c0.251-2.066,2.163-2.342,2.163-2.342c2.335-4.668,9.873-5.166,9.873-5.166c3.319-3.248,7.756-2.553,7.756-2.553
	c6.663-3.373,12.319,2.088,12.319,2.088c-0.691-2.359-4.976-3.383-4.976-3.383c0.436-2.404,3.211-2.648,3.211-2.648
	c-0.411-1.403-0.436-2.681-0.208-3.835l12.964-1.942c0.017,0.874-0.062,1.495-0.062,1.495c3.495,0.632,1.826,2.351,0.448,3.312
	c2.026-0.975,6.316-1.592,6.316-1.592c-1.101-2.152-0.82-3.432-0.121-4.201l10.579-1.586c1.554,1.372,1.726,3.646,1.726,3.646
	c4.521-3.031,5.592,0.069,4.664,0.912c2.465-2.713,6.731-2.822,6.731-2.822c5.95-0.521,5.686,1.066,5.05,2.016
	c1.114-0.695,3.181-0.155,3.181-0.155c0.651-2.245,2.854-3.349,4.297-3.845c0.059-0.159,0.117-0.309,0.175-0.475
	c0,0,0.043,0.154,0.154,0.367c0.579-0.179,0.977-0.248,0.977-0.248l3.768-3.664c-0.156-0.086-0.283-0.18-0.403-0.275L664.5,1373
	C669,1358,641.999,1359.5,641.999,1359.5z M75.075,1400.392c0,0-2.886-10.943-14.487-10.035c0,0-1.16-1.358-3.317-2.851
	l23.875,2.835C79.081,1392.506,77.015,1395.712,75.075,1400.392z M112.025,1433.732c0.956,0.724-2.215,2.131-2.215,2.131
	c-0.427,0.078-0.851,0.104-1.27,0.104c-0.126-1.41,2.447-2.152,2.447-2.152c3.36-0.466-2.018-3.197-2.018-3.197l1.973-1.814
	c0.678-1.69,5.039-0.697,5.039-0.697c2.705,3.048,0.465,3.358,0.465,3.358C119.163,1435.424,112.025,1433.732,112.025,1433.732z
	 M141.099,1403.937l0.2,0.046l-0.142,0.067C141.157,1404.05,141.138,1404.009,141.099,1403.937z M184.473,1412.184
	c-0.36-0.944-0.411-1.706-0.252-2.323l1.118,0.127C185.203,1411.218,184.473,1412.184,184.473,1412.184z M485.289,1403.031
	c0.002,0.005,0.003,0.009,0.005,0.014c-0.105-0.04-0.2-0.081-0.309-0.121C484.985,1402.924,485.104,1402.967,485.289,1403.031z
	 M508.715,1396.346l0.891-0.134c2.115,0.841,4.888,1.768,7.395,2.058l0.556,1.112
	C517.557,1399.382,512.805,1397.009,508.715,1396.346z"/>
<path style="fill:#FFFDC7;" d="M1005.34,1371.593c0,0-12.253-0.918-26.364,2.726l-16.608,4.227c0,0,12.146-21.13-21.986-18.321
	c0,0,3.724-30.439-33.351-24.441l-8.187,13.531l7.193,12.398c0,0-4.701-7.673-12.89-4.845c0,0-6.79-9.897-26.963,4.362
	c0,0-10.773-2.472-21.906,3.545c-11.132,6.017-10.801-13.318-25.277,4.089c0,0-15.342-1.301-27.78-3.357
	c0,0-17.941,6.678-3.771,19.451c0,0-0.381-9.508,33.284-5.376c0,0,12.904,20.971,25.278-4.09c0,0,8.344,4.905,12.558,3.485
	c-3.102,2.627-8.688,9.535,3.497,14.256c0,0,5.452-0.26,9.672-0.966c-1.099-2.771-1.599-5.983,1.529-6.763
	c0,0,4.623-2.736,8.918-2.647c0,0-0.467-6.961,3.922-10.216c0,0,4.855-2.217,8.17,6.344c0,0,0.243,5.276-1.25,5.502
	c0,0,12.308-1.021,18.591,2.308l-9.665,5.723c0,0,23.242-8.658,29.123-6.221c0,0,0.673,7.416-9.318,10.04
	c0,0,25.291-6.462,30.94-4.546l4.661,4.457l2.146-5.885c0,0,4.105-2.413,7.582,1.332c4.67-0.915,13.432-2.517,21.088-3.276
	c0,0,28.619-10.158,36.291-0.15c0,0,20.095,6.641,24.044-17.055C1048.511,1371.213,1019.691,1369.449,1005.34,1371.593z"/>
<path style="fill:#FFFDC7;" d="M718.372,1404.77c0.121-2.424,19.8,0.127,26.307-8.544c5.604,3.568,22.873,12.94,31.181-1.012
	c0,0,20.944,8.814,29,0.186c0,0,13.269,10.099,20,0.128c0,0-0.583-2.236-3.023-4.26c0.285,1.877-0.713,3.095-4.631,2.197
	c0,0-3.371,5.645-10.494-1.067c0,0-0.485-2.243-4.314-2.897c0,0,4.139,4.396-1.526,4.026c0,0-1.144-4.539-5.301-6.755
	c-1.066-0.567-2.32-0.99-3.815-1.136c0,0-1.976-3.68-4.644-3.529c0,0-3.172-0.536-3.606-1.076c-1.259,0.754-2.922,2.024-1.238,2.711
	c0,0-3.013,1.98-2.022,3.487c0,0-3.829-0.432-3.18,2.109l-1.157-1.431c0,0,2.643-2.356,0.037-5.873c0,0,0.133,5.333-2.026,4.153
	c0,0,0.025-3.833-6.31-3.706c0,0,3.99,1.438,2.632,5.39c0,0-4.765-10.737-12.784-7.623c0,0-2.81-3.684-5.512,1.799
	c0,0-4.189,3.64-0.86,4.16c0,0-2.524,3.912,3.814,2.988c0,0-9.688,3.143-10.991-1.366c0,0,2.849-2.481-0.978-3.506
	c0,0,6.021-1.71,0.861-4.495c0,0,2.204,4.789-4.857,3.802c0,0,2.949,7.853-6.706,6.125l-3.336,0.479c0,0,7.331,0.24,6.97,4.725
	c0,0-3.964-3.197-10.335,0.166c0,0-4.653,0.388-3.558,3.551l-0.309,0.056l0.176,0.081v0.002c-0.001,0.104-0.118,0.187-0.308,0.257
	c-0.884-0.139-2.434-0.272-2.955,0.371l-0.127,0.259l-0.014,0.011C716.98,1401.896,718.347,1404.512,718.372,1404.77z"/>
<path style="fill:#FFFDC7;" d="M830.693,1419.424c0.091-3.929,31.835-0.641,41.924-14.954c9.163,5.537,37.325,19.969,50.081-2.971
	c0,0,34.048,13.373,46.628-0.938c0,0,21.763,15.78,32.157-0.646c0,0-1.033-3.596-5.044-6.767c0.539,3.026-1.014,5.04-7.351,3.754
	c0,0-5.176,9.281-16.915-1.279c0,0-0.877-3.609-7.061-4.505c0,0,6.842,6.939-2.281,6.583c0,0-2.033-7.3-8.811-10.708
	c-1.738-0.873-3.772-1.504-6.182-1.675c0,0-3.334-5.872-7.617-5.515c0,0-5.122-0.733-5.843-1.588
	c-1.991,1.273-4.61,3.401-1.875,4.44c0,0-4.758,3.335-3.101,5.732c0,0-6.175-0.536-5.022,3.549l-1.921-2.266
	c0,0,4.147-3.927-0.193-9.509c0,0,0.443,8.627-3.079,6.811c0,0-0.123-6.206-10.302-5.73c0,0,6.477,2.157,4.463,8.612
	c0,0-8.12-17.176-20.879-11.793c0,0-4.675-5.843-8.783,3.147c0,0-6.578,6.07-1.205,6.771c0,0-3.891,6.44,6.261,4.675
	c0,0-15.438,5.5-17.729-1.742c0,0,4.473-4.139-1.722-5.634c0,0,9.607-3.025,1.192-7.313c0,0,3.749,7.657-7.646,6.361
	c0,0,5.078,12.585-10.518,10.201l-5.342,0.917c0,0,11.795,0.076,11.405,7.35c0,0-6.509-5.006-16.605,0.71c0,0-7.465,0.826-5.567,5.9
	l-0.494,0.103l0.286,0.124v0.003c0.004,0.168-0.183,0.307-0.483,0.43c-1.427-0.188-3.924-0.338-4.734,0.727l-0.193,0.424
	l-0.021,0.018C828.333,1414.832,830.642,1419.007,830.693,1419.424z"/>
<path style="fill:#FDFDFD;" d="M1171.003,1329.391c0,0,0.916-2.417-6.75-6.083c0,0,5.959-3.083,3.271-7.083h-5.688
	c0,0-2.667-7.333-11-2.333c0,0-12.001,10.236-2.667,13.951c0,0-8,5.716-0.333,11.049c0,0-1.999,0.332-5.333,5.666
	c0,0-4.333,0.667-5,2.667c0,0,2.334-3.999,0-5.333c0,0-0.001-2-6.334,0c0,0,1-6.333-2.333-7c0,0,3.333-2.764-1.667-7.049
	c0,0-5.667-2.049-9,0c0,0,1.334-3.618-5.666-1.618c0,0-4-0.764-6.667,1.618c0,0-9.667,6.048-3,12.715c0,0-0.667,6.667,3.333,6.667
	c0,0-4.333-1-12.333-2c0,0-3,2.333,0,4c0,0-6.667-1.333-6,2c0,0-8.666,2.333-3.333,7c0,0-2.135,0.001-1.734,1.667s-7.6-2.666-14.6,0
	c0,0-5.333,3.666-3.333,4.666c0,0-13.666-0.666-7.333,5.667c0,0-4,1.333,2,6c0,0,8.334,0.333,9-3l3-4c0,0,1.333,7.333,7.333,5.333
	c0,0,6-3,3-6l5.667-3c0,0,5.667,0.666,8-3c0,0,3.332,2.001,4.666,0.334c0,0-5.666,2.666,4.334,4.666c0,0,5.035,1.333,8.851-1
	c-1.375,0.67-1.184,4.667,5.149,2.667c0,0-2,9.351,10,7.009c0,0,6.334,1.658,5-5.342c0,0,7,1,9,0c-1.692,0.382-6.334,2-1.667,4.333
	c0,0-3.999,9.001,3.667,10.667c0,0,12.666-1.334,12.666-11.334c0,0,3.334,0.666,4.667-2c0,0-4.667-2.666-4.667-5.666
	c0,0,4.753,8.332,13.71,6.666c0,0,4.957,2.334,9.957-0.333c0,0,8.999,1.999,13.333-2.667c0,0,2.334,0.333,3.334-2l-1.667-4
	c0,0,4.999,0,13.333-10l-10,11.334c0,0,6.668,3.334,16.334-1c0,0-4.001,6.999,5.666,4.666c0,0-6.332,5.668,8.334,4.334
	s12.333,3.332,21.333,1.666c0,0,7.667,1.334,10.667-1.666c0,0,9.999,7.332,17.666,1.666c0,0,3.667-8.666,1.667-9.666
	c0,0,17.001,0.333,14.667-5.667c0,0,3.666-0.333,4.333-6.333c0,0,8.333,3.666,10.333-1.334c0,0,4.333-5.333,0-6.333
	c0,0,2.668-4.666-4.666-5.333c0,0-2.001-7-13.334-3.667c0,0-11,0.334-10,3.667c0,0-3.999,1.332-4.666,4.666
	c0,0-5.667-5.332-15.667-2.666c0,0,6.334-15.001-20.333-17.334c0,0,4-12.156-5-13.411c0,0-14.668,1.078-10.334,5.078h-6.333
	c0,0-15.667-10.334-26.667,5.333l-4.333,1c0,0,1-2.666-3-3.333c0,0,6.666-3.334,5.333-4.667c0,0,1.334-1.822-1.333-3.411
	c0,0-10-6.921-14-2.255c0,0-6.333,1.999-4,5.666c0,0-0.333,3.667,2.667,4.667
	C1174.504,1320.225,1169.169,1322.557,1171.003,1329.391z"/>
<path style="fill:#FDFDFD;" d="M43.309,1270.642c0,0,0.916-2.417-6.75-6.083c0,0,5.959-3.083,3.271-7.083h-5.688
	c0,0-2.667-7.333-11-2.333c0,0-12.001,10.236-2.667,13.951c0,0-8,5.716-0.333,11.049c0,0-1.999,0.332-5.333,5.666
	c0,0-4.333,0.667-5,2.667c0,0,2.334-3.999,0-5.333c0,0-0.001-2-6.334,0c0,0,1-6.333-2.333-7c0,0,3.333-2.764-1.667-7.049
	c0,0-5.667-2.049-9,0c0,0,1.334-3.618-5.666-1.618c0,0-4-0.764-6.667,1.618c0,0-9.667,6.048-3,12.715c0,0-0.667,6.667,3.333,6.667
	c0,0-4.333-1-12.333-2c0,0-3,2.333,0,4c0,0-6.667-1.333-6,2c0,0-8.666,2.333-3.333,7c0,0-2.135,0.001-1.734,1.667s-7.6-2.666-14.6,0
	c0,0-5.333,3.666-3.333,4.666c0,0-13.666-0.666-7.333,5.667c0,0-4,1.333,2,6c0,0,8.334,0.333,9-3l3-4c0,0,1.333,7.333,7.333,5.333
	c0,0,6-3,3-6l5.667-3c0,0,5.667,0.666,8-3c0,0,3.332,2.001,4.666,0.334c0,0-5.666,2.666,4.334,4.666c0,0,5.035,1.333,8.851-1
	c-1.375,0.67-1.184,4.667,5.149,2.667c0,0-2,9.351,10,7.009c0,0,6.334,1.658,5-5.342c0,0,7,1,9,0c-1.692,0.382-6.334,2-1.667,4.333
	c0,0-3.999,9.001,3.667,10.667c0,0,12.666-1.334,12.666-11.334c0,0,3.334,0.666,4.667-2c0,0-4.667-2.666-4.667-5.666
	c0,0,4.753,8.332,13.71,6.666c0,0,4.957,2.334,9.957-0.333c0,0,8.999,1.999,13.333-2.667c0,0,2.334,0.333,3.334-2l-1.667-4
	c0,0,4.999,0,13.333-10l-10,11.334c0,0,6.668,3.334,16.334-1c0,0-4.001,6.999,5.666,4.666c0,0-6.332,5.668,8.334,4.334
	s12.333,3.332,21.333,1.666c0,0,7.667,1.334,10.667-1.666c0,0,9.999,7.332,17.666,1.666c0,0,3.667-8.666,1.667-9.666
	c0,0,17.001,0.333,14.667-5.667c0,0,3.666-0.333,4.333-6.333c0,0,8.333,3.666,10.333-1.334c0,0,4.333-5.333,0-6.333
	c0,0,2.668-4.666-4.666-5.333c0,0-2.001-7-13.334-3.667c0,0-11,0.334-10,3.667c0,0-3.999,1.332-4.666,4.666
	c0,0-5.667-5.332-15.667-2.666c0,0,6.334-15.001-20.333-17.334c0,0,4-12.156-5-13.411c0,0-14.668,1.078-10.334,5.078h-6.333
	c0,0-15.667-10.334-26.667,5.333l-4.333,1c0,0,1-2.666-3-3.333c0,0,6.666-3.334,5.333-4.667c0,0,1.334-1.822-1.333-3.411
	c0,0-10-6.921-14-2.255c0,0-6.333,1.999-4,5.666c0,0-0.333,3.667,2.667,4.667C46.81,1261.476,41.475,1263.808,43.309,1270.642z"/>
<path style="fill:#FFFDC7;" d="M134.285,1265.348c0,0-4.629-0.666-8.303-8.585c0,0,14.575-11.635,1.155-10.564
	c0,0-5.945-2.244,5.854-11.507c0,0-11.648,1.081-13.937-14.153c0,0-22.796,23.737-11.398,29.269c0,0-16.353-2.838-6.868,5.986
	c0,0-19.929,11.988,0.476,24.506c0,0-12.004,6.278-3.282,9.889c-2.845-0.682-11.964-1.176-37.636,7.327
	c0,0-18.046,0.264-20.379,7.671c0,0,37.339-12.77,44.456-3.057c0,0-1.627,2.124-3.405,5.155l-12.193,2.633
	c0,0-11.289,2.219-18.887,11.559c0,0-8.285-9.722-19.89-3.43c0,0-9.6-6.074-19.074,2.069c0,0-12.511-4.479-17.381,1.932
	c0,0-4.645-0.567-12.708,5.735c0,0-9.69-6.776-18.113,3.269c0,0-4.851-7.092-11.615,1.183c0,0-9.062-3.976-15.207,0.671
	l-2.511,1.822c2.453-1.268,7.749-2.687,18.004-0.454c0,0,9.928-5.489,12.689-0.34c0,0,12.854-1.027,13.898,0.679
	c0,0-2.105,7.736,9.522,3.746c0,0,6.387,4.689,15.033-3.533c0,0-4.512,6.356,6.37,0.83c0,0,1.636,3.577-3.83,5.236
	c0,0,5.326,1.038,8.3-5.276c0,0,2.594,1.411,5.849,1.187c-3.427,2.534-6.284,6.54-3.129,12.196c0,0-6.821,6.904-2.416,9.389
	c0,0-10.524,1.17-12.766,6.4c0,0-12.155,8.753-7.633,12.827c0,0-4.347,7.034,6.94,9.567c0,0-6.471-4.773-2.507-9.152
	c0,0,5.604,3.409,10.074,1.455c0,0-3.69-0.282-3.37-6.145c0,0,4.683,1.281,8.396-1.6c0,0-8.45-8.067,6.965-13.53
	c0,0,7.668,0.715,12.226-7.482c0,0,8.072-17.051,15.713-11.635c0,0-0.668-13.358,5.994-11.369l11.228,0.83l7.295-2.447l8.763,2.686
	l3.23-0.939l0.236,0.037c0,0-25.77,5.784-17.469,13.601c0,0-5.438,3.566,26.186-9.895c0,0,6.512-6.6,29.208-2.903
	c0,0-25.045-8.493,2.777-16.672l1.57-11.221c0,0,10.441,0.194,5.476-15.581c0,0,18.749-9.596,15.447-14.99
	C147.706,1270.228,143.937,1271.348,134.285,1265.348z"/>
<path style="fill:#FFFDC7;" d="M333.735,842.556c0,0-15.075-18.902-31.742-6.902c0,0,9.413-14.474-25.503-14.215
	c0,0,6.304-14.656-14.836-16.93c0,0-12.186-14.495-18.92-4.679c0,0,11.762-19.014-15.572-10.674c0,0,12.26-10.191-11.829-28.155
	c0,0,0.538-15.638-19.064-11.152c0,0,6.276-17.515-16.997-16.848c0,0,7.395-18.525-14.605-16.929c0,0-2.171-4.149-5.061-5.88
	c-0.099-0.131-0.185-0.269-0.292-0.395c0,0,0.018,0.09,0.033,0.243c-2.164-1.166-4.696-0.893-7.016,3.444
	c-0.448-1.642-1.31-3.712-2.939-5.501c3.705-5.65,14.644-26.772-6.223-54.772c-9.333-12.523-35.523-17.064-64.372-17.892
	c-3.188-3.954-7.301-8.969-12.606-15.333c0,0-4.885-2.596-9.296-13.419c3.436-0.883,7.477-4.245,10.741-13.648
	c0,0,27.449,4.599,28.199-3.725c0,0-4.88-1.783-10.389-15.754c0,0-4.384-4.355-2.04-15.649c0,0,24.63-0.853,9.552-10.295
	c0,0-4.537-7.067,15.279-7.591c0,0-13.208-8.034-3.628-25.997c0,0-42.888,7.21-35.158,22.06c0,0-15.108-15.898-12.003,0.938
	c0,0-30.586-2.993-18.81,26.367c0,0-17.681-2.802-11.274,7.901c-2.481-2.965-11.763-10.675-45.695-21.892
	c0,0-19.349-13.943-27.662-7.926c0,0,49.669,15.886,49.563,31.798c0,0-3.401,0.97-7.675,2.784l-15.008-6.818
	c0,0-13.723-6.543-29.144-2.626c0,0-1.125-16.842-18.393-19.315c0,0-5.395-14.009-21.863-12.839c0,0-9.739-14.612-19.957-11.651
	c0,0-4.48-4.262-18-3.932c0,0-4.937-14.825-21.789-10.809c0,0,0.445-11.346-13.251-7.902c0,0-6.479-11.358-16.658-11.274
	l-4.101-0.046c3.601,0.589,10.336,3.257,19.455,13.709c0,0,14.857,2.002,13.727,9.64c0,0,14.443,9.042,14.207,11.674
	c0,0-8.33,6.547,7.147,11.479c0,0,3.078,10.007,18.73,8.101c0,0-9.796,3.186,6.103,5.901c0,0-1.084,5.084-8.189,2.535
	c0,0,4.83,5.299,12.961,0.946c0,0,1.639,3.541,5.269,5.868c-5.632-0.014-11.82,1.984-12.933,10.469c0,0-12.676,1.948-9.961,8.055
	c0,0-12.085-7.054-18.586-3.274c0,0-19.792-0.296-18.207,7.589c0,0-10.155,4.035-0.179,15.617c0,0-3.102-10.162,4.554-11.684
	c0,0,3.257,8.033,9.539,9.484c0,0-3.692-3.208,1.269-9.173c0,0,3.957,5.05,10.166,4.921c0,0-2.604-15.217,18.052-8.862
	c0,0,7.57,6.803,18.865,1.7c0,0,22-11.722,25.837,0.044c0,0,9.82-14.695,15.318-7.333l11.255,9.728l5.865,1.914
	c-0.309,1.646-0.721,3.468-1.268,5.496c0,0,0.093,0.665-0.077,1.815c-7.227-1.427-13.795-0.944-12.537,6.117
	c0,0-4.042-0.237,7.711,3.06c-0.798,0.898-1.724,1.829-2.797,2.784c0,0-20.274-14.012-13.808,2.563c0,0-0.575,8.378-16.791-3.024
	c0,0,5.805,14.328-12.6,23.027c0,0,38.719,19.803,41.376,3.274c0,0,2.639,21.772,10.192,6.409c0,0,4.554,4.129,10.31,5.959L-44,851
	c0,0,35.667,13.988,51,21.041c0,0,1,8.932,32.007,12.885c0,0,41.993,0,37.159-9.325C104.896,876.986,101.148,859,101.148,855
	c0,0-28.358-3.812-31.148-9.495c-7.028-14.314,6.19-30.654,47.866-16.698c0,0,24.186,29.387,50.133,16.192
	c0,0-23.527,2.667-22.097-8.667c0,0-21.236-1.184-8.903-14.259c0,0,16.241-1.21,31-17.557c0,0,15.686,25.796,37.843,14.806
	c0,0,15.097,22.343,24.96,15.01c0,0-2.058,20.667,17.236,21.333c0,0-12.73-2.208-7.051-12.104c0,0,11.119,11.828,24.345,4.529
	c0,0,3.363,13.78,16,7.575c0,0,9.695,9.892,19.514,6.279c0,0,13.875,1.054,13.847-4.279c0,0,12.578,1.387,10.639-9.575
	c0,0,9.253,4.011,12,0c0,0,6.217,2.962,9.775,0.269C347.108,848.36,346.803,840.671,333.735,842.556z M66.466,635
	c-0.007,0-0.015,0-0.023,0l-1.581-2.349l-0.042-0.357C64.82,632.294,65.431,634,66.466,635z M-6.581,640.331
	c1.871-2.561,3.521-6.121,4.801-10.974c0,0,12.517,12.797,13.762,0.386c0.084,1.462,0.547,4.055,2.203,8.298
	C6.248,638.805-0.833,639.616-6.581,640.331z"/>
</svg>
