<?xml version="1.0" encoding="iso-8859-1"?>
<!-- Generator: Adobe Illustrator 15.1.0, SVG Export Plug-In . SVG Version: 6.00 Build 0)  -->
<!DOCTYPE svg PUBLIC "-//W3C//DTD SVG 1.1//EN" "http://www.w3.org/Graphics/SVG/1.1/DTD/svg11.dtd">
<svg version="1.1" id="Layer_1" xmlns="http://www.w3.org/2000/svg" xmlns:xlink="http://www.w3.org/1999/xlink" x="0px" y="0px"
	 width="462.667px" height="462.667px" viewBox="0 0 462.667 462.667" style="enable-background:new 0 0 462.667 462.667;"
	 xml:space="preserve">
<g>
	<defs>
		<circle id="SVGID_1_" cx="231.333" cy="231.333" r="231.333"/>
	</defs>
	<clipPath id="SVGID_2_">
		<use xlink:href="#SVGID_1_"  style="overflow:visible;"/>
	</clipPath>
	<g style="clip-path:url(#SVGID_2_);">
		<path style="fill:#F15A24;" d="M269.91,316.92c-19.06,11.104-29.5,13.212-82.925,10.776c-22.326-1.02-45.092,49.309-64.583,52.427
			c-5.639,0.901-21.988,1.319-30.747-0.868c-2.065-0.517,10.188-61.785,1.987-59.453c-12.617,3.588-27.703,8.367-30.523,7.634
			c-20.033-5.216-0.637-42.825-0.637-42.825s18.129-66.425,67.051-102.957c48.923-36.529,109.16-47.77,109.16-47.77
			s43.993-51.853,65.855-58.233c21.86-6.38,62.799,7.873,68.914,42.95C379.58,153.679,334.313,279.399,269.91,316.92z"/>
		<path style="fill:#FFFABD;" d="M260.481,321.919c0,0-15.677,9.006-36.695,9.557c-13.648,0.355-30.157-10.661-44.021-3.443
			c-20.135,10.482-25.133,25.309-40.6,37.539c-9.785,7.736-25.973,5.394-33.127,3.006c5.6-36.066,12.531-49.271,29.808-61.51
			c17.275-12.238,66.696-29.101,99.99-63.146c21.224-21.7,37.827-93.413,37.827-93.413s25.414-69.387,69.226-64.223
			c49.911,5.885,24.079,81.381,18.605,97.39s-15.945,52.076-38.927,83.527C299.588,298.654,260.481,321.919,260.481,321.919z"/>
		<path style="fill:#736357;" d="M394.746,143.28L366,153.963c0,0,1.602-2.046,1.363-17.795
			c-0.243-15.897,4.918-12.608,4.918-12.608l12.761,9.738L394.746,143.28z"/>
		<path style="fill:#736357;" d="M402.449,124.385l-26.586,15.284c0,0-1.468-0.725-4.303-16.218
			c-2.865-15.639,2.768-13.248,2.768-13.248l14.194,7.498L402.449,124.385z"/>
		<path style="fill:none;stroke:#442A2C;stroke-width:12;stroke-miterlimit:10;" d="M269.91,316.92
			c-19.06,11.104-29.5,13.212-82.925,10.776c-22.326-1.02-45.092,49.309-64.583,52.427c-5.639,0.901-21.988,1.319-30.747-0.868
			c-2.065-0.517,10.188-61.785,1.987-59.453c-12.617,3.588-27.703,8.367-30.523,7.634c-20.033-5.216-0.637-42.825-0.637-42.825
			s18.129-66.425,67.051-102.957c48.923-36.529,109.16-47.77,109.16-47.77s43.993-51.853,65.855-58.233
			c21.86-6.38,62.383,5.785,68.498,40.862c0.628,3.594,0.969,14.402-1.856,32.748C363.208,201.089,321.377,286.935,269.91,316.92z"
			/>
		<g>
			<path style="fill:#442A2C;" d="M72.558,267.885c-1.71,3.572-3.219,7.574-4.085,11.395c-0.427,1.912-0.687,3.834-0.602,5.515
				c0.042,0.834,0.175,1.598,0.394,2.189c0.219,0.603,0.491,1.009,0.853,1.332c0.68,0.656,2.23,1.019,4.035,0.899
				c1.8-0.101,3.762-0.554,5.701-1.152c3.897-1.22,7.773-3.007,11.562-4.953l6.529-3.354l-3.304,6.43
				c-1.253,2.437-2.331,5.247-2.907,7.951c-0.573,2.694-0.634,5.551,0.614,7.418c1.183,1.896,3.933,2.68,6.746,2.704
				c2.839,0.045,5.786-0.473,8.677-1.169c5.8-1.435,11.47-3.634,17.03-6.028c5.563-2.414,11.021-5.094,16.419-7.895
				c-5.207,3.141-10.491,6.167-15.921,8.949c-5.437,2.763-10.993,5.348-16.902,7.221c-2.96,0.911-6.01,1.674-9.26,1.837
				c-1.622,0.067-3.31-0.015-5.016-0.51c-1.69-0.479-3.434-1.495-4.603-3.052c-1.185-1.541-1.734-3.389-1.937-5.115
				c-0.205-1.744-0.1-3.431,0.13-5.061c0.235-1.631,0.611-3.208,1.07-4.75c0.474-1.559,0.984-3.01,1.681-4.578l3.226,3.075
				c-3.805,2.268-7.722,4.409-12.03,6.072c-2.164,0.816-4.423,1.53-6.955,1.849c-1.268,0.148-2.611,0.201-4.054-0.015
				c-1.429-0.212-2.999-0.732-4.368-1.736c-1.375-0.991-2.416-2.407-3.034-3.807c-0.635-1.409-0.935-2.804-1.096-4.129
				c-0.301-2.656-0.08-5.098,0.277-7.451c0.37-2.351,0.916-4.609,1.562-6.82c0.659-2.228,1.37-4.332,2.284-6.566L72.558,267.885z"/>
		</g>
		<g>
			<path style="fill:#442A2C;" d="M101.419,214.16c-5.174,7.257-10.137,14.792-14.553,22.512c-2.188,3.865-4.263,7.807-5.864,11.808
				c-0.784,1.987-1.463,4.033-1.719,5.892c-0.13,0.91-0.104,1.79,0.05,2.244c0.074,0.23,0.141,0.314,0.197,0.375
				c0.056,0.059,0.164,0.137,0.415,0.203c0.498,0.141,1.4,0.113,2.316-0.065c0.928-0.171,1.913-0.466,2.895-0.814
				c1.972-0.706,3.952-1.632,5.901-2.635c3.904-2.02,7.718-4.358,11.471-6.792c7.504-4.892,14.786-10.207,21.973-15.645l8.798-6.656
				l-5.99,9.234c-4.427,6.825-8.662,13.862-12.476,21.05c-1.893,3.601-3.692,7.255-5.158,10.986
				c-0.723,1.862-1.372,3.757-1.755,5.623c-0.186,0.926-0.304,1.858-0.251,2.666c0.025,0.399,0.096,0.764,0.207,1.022
				c0.113,0.263,0.229,0.405,0.396,0.515c0.315,0.236,1.123,0.3,1.972,0.135c0.856-0.153,1.764-0.46,2.656-0.823
				c1.793-0.738,3.559-1.704,5.285-2.735c3.455-2.081,6.786-4.447,10.055-6.892c6.532-4.91,12.828-10.176,19.033-15.54l3.756-3.247
				l-2.26,4.412c-3.699,7.22-7.085,14.681-9.696,22.364c-1.261,3.843-2.399,7.784-2.653,11.764c-0.09,1.948,0.037,4.048,1.13,5.505
				c0.542,0.713,1.348,1.166,2.261,1.333c0.913,0.174,1.898,0.104,2.863-0.076c1.939-0.372,3.826-1.144,5.648-2.012
				c1.823-0.879,3.592-1.888,5.324-2.955c3.465-2.142,6.79-4.518,10.047-6.98c6.506-4.942,12.737-10.247,18.856-15.671
				c-6.012,5.544-12.14,10.972-18.562,16.052c-3.217,2.533-6.505,4.983-9.956,7.212c-1.727,1.11-3.494,2.166-5.337,3.1
				c-1.845,0.922-3.76,1.759-5.836,2.201c-1.035,0.213-2.125,0.324-3.231,0.138c-1.1-0.17-2.212-0.752-2.928-1.667
				c-0.728-0.904-1.087-1.992-1.286-3.049c-0.194-1.064-0.23-2.13-0.198-3.181c0.189-4.207,1.279-8.224,2.48-12.157
				c2.502-7.858,5.749-15.401,9.358-22.804l1.496,1.164c-6.121,5.505-12.335,10.915-18.844,16.012
				c-3.262,2.539-6.591,5.008-10.134,7.239c-1.778,1.107-3.604,2.162-5.596,3.03c-1.002,0.428-2.041,0.815-3.204,1.052
				c-0.583,0.114-1.201,0.19-1.878,0.16c-0.67-0.034-1.434-0.184-2.146-0.618c-0.718-0.423-1.265-1.128-1.557-1.806
				c-0.304-0.685-0.418-1.346-0.475-1.968c-0.099-1.245,0.045-2.37,0.235-3.46c0.403-2.171,1.063-4.189,1.784-6.17
				c1.463-3.948,3.231-7.713,5.088-11.422c3.747-7.407,7.856-14.55,12.234-21.6l2.808,2.578
				c-7.126,5.614-14.355,11.114-21.905,16.251c-3.783,2.56-7.639,5.036-11.726,7.254c-2.049,1.104-4.152,2.146-6.422,3.013
				c-1.139,0.428-2.318,0.815-3.608,1.084c-1.292,0.249-2.697,0.46-4.414,0.088c-0.847-0.192-1.797-0.603-2.582-1.305
				c-0.79-0.694-1.323-1.613-1.608-2.451c-0.562-1.705-0.479-3.149-0.35-4.472c0.322-2.634,1.078-4.916,1.896-7.148
				c1.676-4.433,3.756-8.551,5.938-12.596c4.411-8.068,9.26-15.755,14.436-23.325L101.419,214.16z"/>
		</g>
		<g>
			<path style="fill:#442A2C;" d="M115.269,198.089c-0.996,1.374-1.938,3.269-2.103,4.558c-0.089,0.666,0.013,0.98,0.105,1.128
				c0.084,0.167,0.465,0.477,1.17,0.694c1.417,0.442,3.465,0.464,5.448,0.294c2.014-0.17,4.083-0.522,6.147-0.957
				c4.137-0.878,8.276-2.083,12.383-3.407c4.108-1.33,8.19-2.798,12.251-4.34l8.271-3.141l-5.624,6.761
				c-4.295,5.163-8.537,10.424-12.051,15.985c-0.862,1.39-1.672,2.805-2.318,4.222c-0.317,0.705-0.6,1.415-0.782,2.083
				c-0.189,0.659-0.254,1.313-0.188,1.622c0.032,0.155,0.054,0.19,0.07,0.214c0.015,0.026,0.083,0.089,0.267,0.154
				c0.369,0.134,1.056,0.172,1.757,0.103c1.433-0.133,3.006-0.562,4.541-1.061c3.092-1.022,6.159-2.375,9.183-3.808
				c3.026-1.439,6.017-2.987,8.984-4.585c5.935-3.203,11.778-6.608,17.574-10.096l9.274-5.58l-7.729,7.549
				c-5.72,5.587-11.247,11.474-16.235,17.731c-2.467,3.141-4.842,6.388-6.657,9.886c-0.876,1.741-1.661,3.594-1.774,5.416
				c-0.048,0.901,0.127,1.765,0.632,2.398c0.498,0.641,1.314,1.054,2.211,1.281c1.816,0.448,3.836,0.325,5.792,0.086
				c1.969-0.255,3.929-0.674,5.871-1.165c3.886-0.992,7.71-2.268,11.494-3.645c7.564-2.774,14.979-5.976,22.322-9.315
				c-7.255,3.53-14.584,6.925-22.099,9.903c-3.761,1.48-7.566,2.862-11.474,3.969c-1.955,0.549-3.936,1.027-5.961,1.345
				c-2.024,0.292-4.108,0.505-6.244,0.046c-1.049-0.239-2.168-0.718-2.952-1.663c-0.794-0.942-1.043-2.191-1.009-3.288
				c0.093-2.232,0.911-4.197,1.779-6.065c1.811-3.721,4.146-7.079,6.571-10.342c4.91-6.493,10.297-12.539,15.969-18.375l1.546,1.969
				c-5.728,3.652-11.51,7.228-17.421,10.619c-2.958,1.692-5.947,3.341-9.004,4.894c-3.062,1.547-6.17,3.023-9.486,4.22
				c-1.67,0.583-3.371,1.123-5.312,1.365c-0.977,0.1-2.023,0.17-3.283-0.192c-0.622-0.189-1.325-0.539-1.893-1.135
				c-0.576-0.586-0.916-1.354-1.061-2.024c-0.275-1.361-0.063-2.432,0.16-3.405c0.24-0.974,0.569-1.851,0.924-2.699
				c0.719-1.688,1.562-3.24,2.445-4.753c3.581-6.002,7.745-11.426,11.974-16.793l2.647,3.62c-4.074,1.669-8.184,3.27-12.36,4.743
				c-4.18,1.468-8.415,2.827-12.81,3.881c-2.2,0.522-4.439,0.97-6.779,1.231c-1.171,0.128-2.366,0.21-3.616,0.192
				c-1.249-0.023-2.552-0.128-3.964-0.52c-0.705-0.203-1.442-0.481-2.185-0.923c-0.737-0.436-1.483-1.058-2.063-1.861
				c-0.584-0.798-0.963-1.745-1.134-2.636c-0.175-0.896-0.169-1.736-0.088-2.504c0.174-1.536,0.623-2.821,1.14-4.012
				c0.539-1.205,1.104-2.237,1.882-3.376L115.269,198.089z"/>
		</g>
		<path style="fill:#442A2C;stroke:#442A2C;stroke-miterlimit:10;" d="M331.108,116.63l3.474-9.389
			c-1.461-2.757-3.473-4.385-5.387-4.053c-2.972,0.516-4.568,5.621-3.567,11.385s4.215,9.971,7.186,9.455
			c2.431-0.423,4.042-3.321,3.854-8.363L331.108,116.63z"/>
		<g>
			<g>
				<polygon style="fill:#442A2C;" points="255.333,369.666 228.333,365.666 214.333,368.166 173.833,400.166 141.333,405.666 
					89.333,394.666 38.341,403.761 12.333,405.187 -19.616,396.238 -98.667,414.681 -29.885,328.789 30.833,346.666 88.833,351.666 
					142.833,373.166 156.333,372.166 207.333,349.125 234.234,348.965 254.333,355.666 286.111,348.939 288.333,351.666 				"/>
				<polygon style="fill:#6D533A;" points="255.333,369.666 228.333,365.666 214.333,368.166 173.833,400.166 141.333,405.666 
					89.333,394.666 38.341,403.761 12.333,405.187 -29.885,418 -98.667,414.681 -29.885,388.332 13,394 37,395.332 49.667,387.666 
					80.333,383.173 94.833,389.332 131.667,396 149.667,394 174.333,390.666 213.67,362.017 225.038,359.5 234.333,362.997 
					254.333,366.664 279.667,353.999 288.333,351.666 				"/>
			</g>
		</g>
		
			<line style="fill:none;stroke:#442A2C;stroke-width:8;stroke-miterlimit:10;" x1="198.498" y1="328.173" x2="208.683" y2="356.279"/>
		
			<line style="fill:none;stroke:#442A2C;stroke-width:6;stroke-miterlimit:10;" x1="224.356" y1="328.39" x2="228.12" y2="350.066"/>
		<path style="fill:none;" d="M225.167,396.166"/>
		<g>
			<path style="fill:#442A2C;" d="M211.333,367.305c-0.822-0.774-1.512-1.581-2.128-2.404c-0.614-0.824-1.179-1.66-1.673-2.514
				c-1.01-1.701-1.805-3.454-2.485-5.234l-1.635-4.282l5.482-0.324c3.373-0.2,6.722,0.033,10.043,0.738
				c1.66,0.359,3.313,0.84,4.957,1.495c1.643,0.675,3.279,1.444,4.893,2.641c-1.738,1.006-3.451,1.585-5.16,2.07
				c-1.707,0.464-3.404,0.755-5.095,0.924c-3.38,0.324-6.732,0.178-10.062-0.403l3.848-4.606c0.203,1.896,0.292,3.818,0.165,5.792
				c-0.052,0.984-0.176,1.986-0.348,3C211.961,365.21,211.714,366.242,211.333,367.305z"/>
		</g>
		<g>
			<polygon style="fill:#442A2C;" points="208.109,356.642 188.125,357.98 205.992,348.927 			"/>
		</g>
		<g>
			<polygon style="fill:#442A2C;" points="228.333,352.666 216.333,348.666 228.333,344.666 			"/>
		</g>
		<g>
			<path style="fill:#442A2C;" d="M209.333,355.72c1.857-0.473,3.45-0.409,4.964-0.183c1.503,0.249,2.904,0.704,4.215,1.346
				c1.312,0.638,2.53,1.466,3.646,2.502c1.106,1.058,2.131,2.281,2.89,4.046c-1.86,0.479-3.455,0.418-4.968,0.19
				c-1.503-0.249-2.903-0.706-4.211-1.354c-1.309-0.644-2.526-1.474-3.643-2.51C211.122,358.7,210.095,357.478,209.333,355.72z"/>
		</g>
		<g>
			<path style="fill:#442A2C;" d="M230.312,350.159c1.598-0.617,2.94-0.695,4.206-0.61c1.256,0.106,2.412,0.422,3.479,0.928
				c1.069,0.499,2.048,1.19,2.927,2.094c0.869,0.923,1.659,2.013,2.192,3.646c-1.602,0.625-2.945,0.704-4.21,0.618
				c-1.256-0.106-2.411-0.425-3.476-0.936c-1.066-0.504-2.045-1.198-2.923-2.101C231.64,352.873,230.848,351.786,230.312,350.159z"
				/>
		</g>
		<g>
			<path style="fill:#442A2C;" d="M229.07,355.901c-1.175-0.86-1.954-1.748-2.59-2.646c-0.309-0.449-0.58-0.901-0.813-1.355
				c-0.222-0.456-0.438-0.912-0.588-1.372l-1.07-3.281l4.852-0.575c3.043-0.36,6.061-0.216,9.054,0.417
				c1.496,0.326,2.985,0.796,4.467,1.43c1.48,0.645,2.953,1.451,4.406,2.654c-1.564,1.055-3.109,1.712-4.646,2.208
				c-1.537,0.485-3.064,0.806-4.586,0.983c-3.041,0.335-6.059,0.183-9.051-0.476l3.781-3.856c-0.086,0.477-0.237,0.958-0.395,1.439
				c-0.168,0.482-0.375,0.968-0.619,1.455C230.766,353.902,230.116,354.887,229.07,355.901z"/>
		</g>
	</g>
</g>
</svg>
