<?xml version="1.0" encoding="iso-8859-1"?>
<!-- Generator: Adobe Illustrator 15.1.0, SVG Export Plug-In . SVG Version: 6.00 Build 0)  -->
<!DOCTYPE svg PUBLIC "-//W3C//DTD SVG 1.1//EN" "http://www.w3.org/Graphics/SVG/1.1/DTD/svg11.dtd">
<svg version="1.1" xmlns="http://www.w3.org/2000/svg" xmlns:xlink="http://www.w3.org/1999/xlink" x="0px" y="0px"
	 width="3934.396px" height="1806px" viewBox="0 0 3934.396 1806" style="enable-background:new 0 0 3934.396 1806;"
	 xml:space="preserve">
<g id="Logo_base">
	<path style="fill:#442A2C;" d="M524.614,400c0-137.64-111.578-249.219-249.219-249.219C137.755,150.781,26.176,262.36,26.176,400
		c0,0.669,0.02,1.333,0.025,2h498.387C524.594,401.333,524.614,400.669,524.614,400z"/>
	<path style="display:none;fill:#442A2C;" d="M29.202,402c1.077,74.105,112.222,134,249.194,134s248.116-59.895,249.193-134H29.202z
		"/>
	<g>
		<g>
			<defs>
				<rect id="SVGID_1_" x="-12.604" y="399" width="585" height="130"/>
			</defs>
			<clipPath id="SVGID_2_">
				<use xlink:href="#SVGID_1_"  style="overflow:visible;"/>
			</clipPath>
			<ellipse style="clip-path:url(#SVGID_2_);fill:#44441A;" cx="279.395" cy="399" rx="237.219" ry="122.571"/>
			<g style="clip-path:url(#SVGID_2_);">
				<defs>
					<ellipse id="SVGID_3_" cx="279.395" cy="399" rx="237.219" ry="122.571"/>
				</defs>
				<clipPath id="SVGID_4_">
					<use xlink:href="#SVGID_3_"  style="overflow:visible;"/>
				</clipPath>
				<polygon style="clip-path:url(#SVGID_4_);fill:#BEC14F;" points="661.396,539 -148.604,539 206.396,423 351.396,423 				"/>
			</g>
		</g>
	</g>
	<g>
		<defs>
			<path id="SVGID_5_" d="M569.396,384.869c0,0-119,0.131-295,0.131s-290-0.131-290-0.131V149h585V384.869z"/>
		</defs>
		<clipPath id="SVGID_6_">
			<use xlink:href="#SVGID_5_"  style="overflow:visible;"/>
		</clipPath>
		<circle style="clip-path:url(#SVGID_6_);fill:#FCF9BA;" cx="276.395" cy="401" r="237.219"/>
		<circle style="clip-path:url(#SVGID_6_);fill:#4FBA89;" cx="276.395" cy="403" r="220.72"/>
		<circle style="clip-path:url(#SVGID_6_);fill:#FFE150;" cx="276.395" cy="421" r="72.478"/>
		<ellipse style="clip-path:url(#SVGID_6_);fill:#FFD836;" cx="277.395" cy="425.732" rx="64.001" ry="67.747"/>
	</g>
	<g>
		<defs>
			<circle id="SVGID_7_" cx="276.395" cy="402" r="237.219"/>
		</defs>
		<clipPath id="SVGID_8_">
			<use xlink:href="#SVGID_7_"  style="overflow:visible;"/>
		</clipPath>
		<polygon style="clip-path:url(#SVGID_8_);fill:#FCF9BA;" points="150.396,280 131.396,292 118.396,292 92.396,269 19.396,287 
			59.396,197 95.396,247.5 152.396,239 164.396,240 170.396,255 212.818,243.12 243.396,250 243.396,263 222.396,275 200.396,298 
			181.396,298 		"/>
		<polygon style="clip-path:url(#SVGID_8_);fill:#BEC14F;" points="435.413,362.212 401.396,365 394.396,360 408.396,354 
			404.351,349.666 408.063,344 394.396,339 376.396,335 354.396,332 354.396,322.5 375.396,312 399.091,314.424 404.729,316.667 
			422.396,317.667 430.396,309.333 444.396,307.667 459.396,305 473.396,315 470.796,323.2 447.396,326.667 457.693,337.946 
			457.242,345.23 		"/>
	</g>
	<g id="Bird">
		<path style="fill:#F15A24;" d="M337.972,259.255c-19.06,11.104-29.5,13.212-82.925,10.776
			c-22.326-1.019-45.092,49.309-64.583,52.427c-5.639,0.902-21.987,1.319-30.747-0.869c-2.065-0.516,10.188-61.784,1.987-59.452
			c-12.616,3.587-27.703,8.367-30.523,7.633c-20.034-5.215-0.637-42.825-0.637-42.825s18.129-66.425,67.051-102.957
			c48.922-36.53,109.16-47.77,109.16-47.77s43.993-51.853,65.855-58.234c21.86-6.38,62.799,7.873,68.914,42.951
			C447.642,96.013,402.375,221.733,337.972,259.255z"/>
		<path style="fill:#FFFABD;" d="M328.543,264.253c0,0-15.677,9.007-36.695,9.557c-13.648,0.356-30.157-10.661-44.021-3.442
			c-20.134,10.482-25.132,25.308-40.6,37.539c-9.785,7.737-25.973,5.394-33.127,3.006c5.599-36.066,12.531-49.271,29.808-61.51
			c17.275-12.238,66.696-29.101,99.99-63.146c21.224-21.701,37.827-93.414,37.827-93.414s25.414-69.386,69.226-64.222
			c49.911,5.884,18.605,97.389,18.605,97.389s-15.945,52.076-38.927,83.527C367.65,240.988,328.543,264.253,328.543,264.253z"/>
		<path style="fill:#736357;" d="M466.736,78.526l-28.745,10.684c0,0-1.327-0.958-1.565-16.707
			c-0.243-15.898,4.918-12.608,4.918-12.608l12.761,9.737L466.736,78.526z"/>
		<path style="fill:none;stroke:#442A2C;stroke-width:12;stroke-miterlimit:10;" d="M337.972,259.255
			c-19.06,11.104-29.5,13.212-82.925,10.776c-22.326-1.019-45.092,49.309-64.583,52.427c-5.639,0.902-21.987,1.319-30.747-0.869
			c-2.065-0.516,10.188-61.784,1.987-59.452c-12.616,3.587-27.703,8.367-30.523,7.633c-20.034-5.215-0.637-42.825-0.637-42.825
			s18.129-66.425,67.051-102.957c48.922-36.53,109.16-47.77,109.16-47.77s43.993-51.853,65.855-58.234
			c21.86-6.38,62.799,7.873,68.914,42.951c0.628,3.593,25.513,11.613,25.095,16.917c-0.226,2.859-25.395,2.462-25.907,5.732
			C432.894,133.463,392.222,227.648,337.972,259.255z"/>
		<g>
			<path style="fill:#442A2C;" d="M140.62,210.22c-1.71,3.572-3.219,7.575-4.085,11.395c-0.427,1.913-0.687,3.834-0.602,5.515
				c0.042,0.834,0.175,1.597,0.394,2.19c0.219,0.603,0.491,1.008,0.853,1.332c0.68,0.656,2.23,1.018,4.035,0.898
				c1.8-0.1,3.762-0.554,5.701-1.152c3.897-1.22,7.773-3.007,11.562-4.953l6.529-3.354l-3.304,6.429
				c-1.252,2.438-2.331,5.248-2.907,7.952c-0.573,2.695-0.634,5.551,0.615,7.417c1.182,1.896,3.932,2.681,6.746,2.705
				c2.838,0.045,5.786-0.473,8.676-1.169c5.8-1.435,11.47-3.634,17.031-6.028c5.562-2.415,11.021-5.094,16.418-7.895
				c-5.208,3.14-10.491,6.167-15.92,8.949c-5.437,2.763-10.994,5.349-16.902,7.221c-2.96,0.911-6.01,1.674-9.26,1.837
				c-1.622,0.067-3.31-0.014-5.017-0.51c-1.69-0.479-3.433-1.496-4.602-3.052c-1.185-1.542-1.733-3.389-1.936-5.115
				c-0.206-1.744-0.101-3.431,0.129-5.061c0.235-1.631,0.611-3.208,1.071-4.75c0.473-1.558,0.984-3.009,1.681-4.578l3.225,3.075
				c-3.805,2.268-7.722,4.41-12.03,6.073c-2.164,0.815-4.423,1.53-6.955,1.848c-1.268,0.148-2.611,0.201-4.054-0.015
				c-1.429-0.212-2.999-0.732-4.368-1.736c-1.375-0.991-2.416-2.408-3.034-3.807c-0.635-1.409-0.935-2.804-1.096-4.129
				c-0.301-2.656-0.08-5.098,0.277-7.451c0.37-2.351,0.916-4.609,1.562-6.82c0.659-2.228,1.37-4.332,2.284-6.566L140.62,210.22z"/>
		</g>
		<g>
			<path style="fill:#442A2C;" d="M169.481,156.494c-5.174,7.257-10.137,14.792-14.553,22.512
				c-2.188,3.866-4.263,7.807-5.864,11.808c-0.783,1.987-1.463,4.033-1.719,5.892c-0.131,0.91-0.104,1.79,0.05,2.244
				c0.074,0.23,0.141,0.315,0.196,0.375c0.057,0.058,0.164,0.136,0.416,0.203c0.498,0.141,1.399,0.113,2.315-0.065
				c0.928-0.172,1.913-0.466,2.895-0.815c1.971-0.706,3.951-1.631,5.9-2.634c3.904-2.02,7.717-4.359,11.471-6.792
				c7.504-4.892,14.786-10.207,21.973-15.645l8.798-6.657l-5.99,9.235c-4.427,6.825-8.662,13.862-12.476,21.05
				c-1.893,3.6-3.692,7.254-5.159,10.986c-0.723,1.863-1.372,3.757-1.755,5.623c-0.186,0.925-0.303,1.858-0.251,2.666
				c0.025,0.399,0.096,0.764,0.207,1.022c0.113,0.264,0.23,0.406,0.396,0.515c0.316,0.237,1.123,0.3,1.972,0.135
				c0.856-0.154,1.763-0.46,2.656-0.823c1.793-0.738,3.559-1.705,5.286-2.736c3.456-2.081,6.786-4.447,10.055-6.892
				c6.532-4.91,12.828-10.176,19.033-15.54l3.756-3.247l-2.26,4.412c-3.699,7.22-7.085,14.681-9.697,22.365
				c-1.26,3.843-2.398,7.784-2.653,11.763c-0.09,1.948,0.037,4.048,1.13,5.504c0.542,0.713,1.347,1.166,2.26,1.333
				c0.913,0.174,1.898,0.104,2.863-0.076c1.939-0.372,3.826-1.144,5.648-2.012c1.824-0.878,3.592-1.888,5.325-2.955
				c3.464-2.141,6.79-4.518,10.046-6.98c6.506-4.942,12.738-10.247,18.857-15.671c-6.012,5.544-12.139,10.971-18.562,16.052
				c-3.216,2.533-6.505,4.983-9.956,7.211c-1.727,1.111-3.495,2.167-5.337,3.1c-1.845,0.922-3.76,1.759-5.835,2.202
				c-1.036,0.212-2.125,0.324-3.231,0.138c-1.1-0.17-2.213-0.752-2.928-1.667c-0.727-0.905-1.087-1.992-1.286-3.048
				c-0.195-1.065-0.231-2.13-0.199-3.181c0.19-4.207,1.28-8.223,2.481-12.158c2.502-7.857,5.749-15.401,9.358-22.804l1.496,1.165
				c-6.121,5.504-12.335,10.916-18.844,16.012c-3.262,2.539-6.59,5.008-10.134,7.239c-1.778,1.108-3.604,2.163-5.596,3.031
				c-1.001,0.427-2.041,0.814-3.204,1.051c-0.583,0.114-1.201,0.191-1.877,0.16c-0.67-0.034-1.434-0.183-2.146-0.618
				c-0.718-0.423-1.265-1.128-1.556-1.806c-0.304-0.685-0.418-1.346-0.475-1.968c-0.099-1.246,0.045-2.371,0.235-3.46
				c0.403-2.17,1.063-4.189,1.784-6.169c1.463-3.949,3.231-7.713,5.088-11.423c3.747-7.407,7.856-14.549,12.234-21.599l2.808,2.578
				c-7.125,5.615-14.355,11.115-21.905,16.251c-3.784,2.559-7.639,5.035-11.726,7.253c-2.049,1.104-4.152,2.146-6.422,3.012
				c-1.14,0.428-2.318,0.816-3.608,1.085c-1.292,0.249-2.697,0.459-4.414,0.087c-0.846-0.192-1.797-0.602-2.582-1.305
				c-0.79-0.694-1.323-1.612-1.607-2.451c-0.562-1.705-0.48-3.149-0.35-4.471c0.322-2.634,1.078-4.916,1.895-7.148
				c1.676-4.433,3.756-8.55,5.938-12.596c4.41-8.068,9.26-15.754,14.436-23.325L169.481,156.494z"/>
		</g>
		<g>
			<path style="fill:#442A2C;" d="M183.33,140.424c-0.996,1.374-1.938,3.269-2.102,4.558c-0.089,0.666,0.012,0.979,0.105,1.127
				c0.083,0.167,0.465,0.477,1.17,0.694c1.417,0.442,3.465,0.464,5.448,0.294c2.013-0.171,4.083-0.523,6.147-0.958
				c4.137-0.878,8.276-2.083,12.382-3.407c4.108-1.33,8.19-2.798,12.251-4.34l8.272-3.141l-5.625,6.761
				c-4.295,5.163-8.537,10.424-12.051,15.985c-0.862,1.39-1.672,2.805-2.318,4.221c-0.317,0.706-0.6,1.416-0.782,2.084
				c-0.19,0.658-0.254,1.312-0.189,1.622c0.032,0.155,0.053,0.19,0.071,0.214c0.014,0.026,0.082,0.089,0.266,0.154
				c0.369,0.134,1.055,0.172,1.757,0.103c1.433-0.134,3.005-0.563,4.541-1.061c3.091-1.023,6.159-2.375,9.183-3.808
				c3.026-1.439,6.017-2.987,8.984-4.585c5.935-3.202,11.778-6.608,17.574-10.095l9.275-5.58l-7.729,7.549
				c-5.72,5.587-11.248,11.475-16.235,17.73c-2.467,3.142-4.842,6.388-6.657,9.887c-0.876,1.741-1.661,3.593-1.774,5.416
				c-0.048,0.901,0.127,1.764,0.632,2.397c0.498,0.641,1.314,1.055,2.211,1.281c1.816,0.449,3.836,0.325,5.792,0.086
				c1.969-0.255,3.929-0.674,5.872-1.166c3.886-0.992,7.71-2.267,11.494-3.645c7.565-2.774,14.979-5.975,22.323-9.315
				c-7.255,3.53-14.584,6.924-22.099,9.904c-3.76,1.48-7.566,2.862-11.473,3.968c-1.955,0.548-3.935,1.028-5.961,1.344
				c-2.024,0.292-4.108,0.505-6.244,0.046c-1.049-0.239-2.167-0.718-2.953-1.662c-0.793-0.943-1.042-2.192-1.008-3.289
				c0.092-2.232,0.911-4.196,1.779-6.065c1.811-3.72,4.146-7.079,6.572-10.341c4.909-6.494,10.296-12.54,15.968-18.376l1.546,1.969
				c-5.728,3.652-11.509,7.227-17.421,10.619c-2.958,1.693-5.947,3.341-9.003,4.894c-3.062,1.547-6.17,3.023-9.486,4.219
				c-1.67,0.583-3.371,1.124-5.312,1.365c-0.976,0.101-2.023,0.171-3.284-0.192c-0.621-0.188-1.324-0.539-1.892-1.134
				c-0.576-0.586-0.916-1.354-1.061-2.024c-0.275-1.362-0.063-2.432,0.161-3.405c0.24-0.974,0.569-1.851,0.924-2.7
				c0.719-1.687,1.562-3.24,2.445-4.753c3.582-6.002,7.746-11.426,11.974-16.792l2.647,3.62c-4.074,1.669-8.184,3.27-12.36,4.743
				c-4.18,1.468-8.415,2.827-12.81,3.881c-2.2,0.522-4.439,0.97-6.778,1.231c-1.171,0.127-2.367,0.21-3.617,0.191
				c-1.249-0.023-2.552-0.128-3.964-0.519c-0.706-0.203-1.442-0.481-2.185-0.923c-0.737-0.436-1.484-1.057-2.063-1.861
				c-0.584-0.798-0.963-1.745-1.134-2.636c-0.174-0.896-0.168-1.737-0.088-2.504c0.174-1.536,0.623-2.821,1.14-4.012
				c0.54-1.205,1.103-2.237,1.882-3.376L183.33,140.424z"/>
		</g>
		<path style="fill:#442A2C;stroke:#442A2C;stroke-miterlimit:10;" d="M399.17,58.965l3.474-9.389
			c-1.461-2.757-3.473-4.386-5.387-4.054c-2.972,0.516-4.568,5.622-3.567,11.385c1.001,5.764,4.215,9.97,7.186,9.455
			c2.431-0.422,4.042-3.321,3.854-8.363L399.17,58.965z"/>
		
			<line style="fill:none;stroke:#442A2C;stroke-width:8;stroke-miterlimit:10;" x1="266.56" y1="270.507" x2="276.745" y2="298.613"/>
		
			<line style="fill:none;stroke:#442A2C;stroke-width:6;stroke-miterlimit:10;" x1="291.347" y1="273.07" x2="295.11" y2="294.746"/>
		<path style="display:none;fill:#FBB03B;" d="M279.692,305.488c-2.772,2.604-16.141-3.877-16.304-9.425
			c-0.163-5.549,11.018-13.105,16.315-9.408C285.003,290.354,282.468,302.884,279.692,305.488z"/>
		<path style="display:none;fill:#FBB03B;" d="M297.057,299.64c-2.693,1.03-10.203-7.36-8.723-11.297
			c1.481-3.939,11.495-6.023,14.148-1.907C305.133,290.553,299.753,298.611,297.057,299.64z"/>
		<path style="fill:#F15A24;" d="M1184.972,284.255c-19.06,11.104-29.5,13.212-82.925,10.776
			c-22.326-1.02-45.092,49.309-64.583,52.427c-5.639,0.901-21.988,1.319-30.747-0.868c-2.065-0.517,10.188-61.785,1.987-59.453
			c-12.617,3.588-27.703,8.367-30.523,7.634c-20.033-5.216-0.637-42.825-0.637-42.825s18.129-66.425,67.051-102.957
			c48.923-36.529,109.16-47.77,109.16-47.77s43.993-51.853,65.855-58.233c21.86-6.38,62.799,7.873,68.914,42.95
			C1294.642,121.014,1249.375,246.733,1184.972,284.255z"/>
		<path style="fill:#FFFABD;" d="M1175.543,289.254c0,0-15.677,9.006-36.695,9.557c-13.648,0.355-30.157-10.661-44.021-3.443
			c-20.135,10.482-25.133,25.309-40.6,37.539c-9.785,7.736-25.973,5.394-33.127,3.006c5.6-36.066,12.531-49.271,29.808-61.51
			c17.275-12.238,66.696-29.101,99.99-63.146c21.224-21.7,37.827-93.413,37.827-93.413s25.414-69.387,69.226-64.223
			c49.911,5.885,18.605,97.39,18.605,97.39s-15.945,52.076-38.927,83.527C1214.65,265.988,1175.543,289.254,1175.543,289.254z"/>
		<path style="fill:#736357;" d="M1313.736,103.525l-28.745,10.684c0,0-1.327-0.957-1.565-16.706
			c-0.243-15.897,4.918-12.608,4.918-12.608l12.761,9.738L1313.736,103.525z"/>
		<path style="fill:none;stroke:#442A2C;stroke-width:12;stroke-miterlimit:10;" d="M1184.972,284.255
			c-19.06,11.104-29.5,13.212-82.925,10.776c-22.326-1.02-45.092,49.309-64.583,52.427c-5.639,0.901-21.988,1.319-30.747-0.868
			c-2.065-0.517,10.188-61.785,1.987-59.453c-12.617,3.588-27.703,8.367-30.523,7.634c-20.033-5.216-0.637-42.825-0.637-42.825
			s18.129-66.425,67.051-102.957c48.923-36.529,109.16-47.77,109.16-47.77s43.993-51.853,65.855-58.233
			c21.86-6.38,62.799,7.873,68.914,42.95c0.628,3.594,25.513,11.613,25.095,16.918c-0.226,2.858-25.395,2.462-25.907,5.732
			C1279.894,158.463,1239.222,252.648,1184.972,284.255z"/>
		<g>
			<path style="fill:#442A2C;" d="M987.62,235.22c-1.71,3.572-3.219,7.575-4.086,11.395c-0.426,1.913-0.686,3.834-0.602,5.515
				c0.042,0.834,0.175,1.597,0.394,2.19c0.219,0.603,0.491,1.008,0.853,1.332c0.68,0.656,2.23,1.018,4.035,0.898
				c1.8-0.1,3.761-0.554,5.7-1.152c3.897-1.22,7.773-3.007,11.562-4.953l6.529-3.354l-3.305,6.429
				c-1.252,2.438-2.33,5.248-2.906,7.952c-0.573,2.695-0.634,5.55,0.614,7.417c1.183,1.896,3.933,2.68,6.747,2.704
				c2.838,0.045,5.785-0.473,8.676-1.168c5.8-1.435,11.47-3.634,17.031-6.029c5.562-2.414,11.021-5.093,16.418-7.894
				c-5.207,3.14-10.491,6.167-15.92,8.949c-5.438,2.763-10.994,5.349-16.903,7.221c-2.96,0.911-6.01,1.674-9.259,1.837
				c-1.623,0.067-3.311-0.015-5.018-0.51c-1.689-0.479-3.433-1.496-4.602-3.052c-1.185-1.542-1.733-3.389-1.937-5.115
				c-0.205-1.744-0.101-3.431,0.13-5.061c0.235-1.631,0.611-3.208,1.07-4.75c0.474-1.558,0.984-3.009,1.681-4.578l3.226,3.075
				c-3.805,2.268-7.722,4.41-12.03,6.073c-2.164,0.816-4.423,1.53-6.954,1.848c-1.268,0.148-2.611,0.201-4.055-0.015
				c-1.429-0.212-2.998-0.732-4.367-1.736c-1.375-0.991-2.416-2.408-3.034-3.807c-0.636-1.409-0.935-2.804-1.097-4.129
				c-0.301-2.656-0.079-5.098,0.277-7.451c0.37-2.351,0.916-4.609,1.562-6.82c0.658-2.228,1.37-4.332,2.284-6.566L987.62,235.22z"/>
		</g>
		<g>
			<path style="fill:#442A2C;" d="M1016.481,181.494c-5.174,7.257-10.137,14.792-14.553,22.512
				c-2.188,3.866-4.264,7.807-5.863,11.808c-0.784,1.987-1.463,4.033-1.72,5.892c-0.131,0.91-0.104,1.79,0.051,2.244
				c0.073,0.23,0.141,0.315,0.196,0.375c0.057,0.058,0.164,0.136,0.415,0.203c0.498,0.141,1.399,0.113,2.315-0.065
				c0.929-0.172,1.913-0.466,2.896-0.815c1.971-0.706,3.951-1.631,5.9-2.634c3.904-2.02,7.718-4.359,11.471-6.792
				c7.504-4.892,14.786-10.207,21.973-15.645l8.798-6.657l-5.99,9.235c-4.427,6.825-8.662,13.862-12.476,21.05
				c-1.892,3.6-3.692,7.254-5.158,10.986c-0.724,1.862-1.372,3.757-1.755,5.623c-0.186,0.925-0.304,1.858-0.251,2.666
				c0.025,0.399,0.097,0.764,0.207,1.022c0.113,0.264,0.229,0.406,0.396,0.515c0.315,0.237,1.123,0.3,1.972,0.135
				c0.856-0.154,1.764-0.46,2.656-0.823c1.793-0.738,3.559-1.705,5.285-2.736c3.455-2.081,6.786-4.447,10.055-6.892
				c6.532-4.91,12.828-10.176,19.033-15.54l3.756-3.247l-2.26,4.412c-3.699,7.22-7.085,14.682-9.696,22.365
				c-1.261,3.843-2.399,7.784-2.653,11.763c-0.09,1.948,0.037,4.048,1.13,5.505c0.542,0.713,1.348,1.166,2.261,1.333
				c0.913,0.174,1.898,0.104,2.863-0.076c1.939-0.372,3.826-1.144,5.648-2.013c1.823-0.878,3.592-1.887,5.324-2.955
				c3.465-2.141,6.79-4.518,10.047-6.981c6.506-4.941,12.737-10.246,18.856-15.67c-6.012,5.544-12.14,10.971-18.562,16.052
				c-3.217,2.533-6.505,4.983-9.956,7.211c-1.727,1.111-3.494,2.167-5.337,3.1c-1.845,0.922-3.76,1.759-5.836,2.202
				c-1.035,0.212-2.125,0.323-3.231,0.138c-1.1-0.17-2.212-0.752-2.928-1.667c-0.728-0.905-1.087-1.992-1.286-3.048
				c-0.194-1.065-0.23-2.13-0.198-3.181c0.189-4.207,1.279-8.223,2.48-12.158c2.502-7.857,5.749-15.401,9.358-22.804l1.496,1.165
				c-6.121,5.504-12.335,10.916-18.844,16.012c-3.262,2.539-6.591,5.008-10.134,7.239c-1.778,1.108-3.604,2.163-5.597,3.031
				c-1,0.427-2.04,0.815-3.203,1.051c-0.583,0.114-1.201,0.191-1.878,0.16c-0.67-0.034-1.434-0.183-2.146-0.618
				c-0.718-0.423-1.265-1.129-1.557-1.806c-0.304-0.685-0.418-1.346-0.475-1.968c-0.099-1.245,0.045-2.37,0.235-3.46
				c0.403-2.17,1.063-4.189,1.784-6.169c1.463-3.949,3.231-7.714,5.088-11.423c3.747-7.407,7.856-14.549,12.234-21.599l2.808,2.578
				c-7.126,5.615-14.355,11.115-21.905,16.251c-3.783,2.559-7.639,5.035-11.726,7.253c-2.05,1.104-4.152,2.146-6.422,3.012
				c-1.14,0.428-2.318,0.816-3.608,1.085c-1.292,0.249-2.697,0.459-4.414,0.087c-0.847-0.192-1.798-0.602-2.582-1.305
				c-0.789-0.694-1.322-1.612-1.607-2.451c-0.562-1.705-0.479-3.149-0.35-4.471c0.322-2.634,1.078-4.916,1.896-7.148
				c1.676-4.433,3.756-8.55,5.938-12.596c4.41-8.068,9.26-15.754,14.436-23.325L1016.481,181.494z"/>
		</g>
		<g>
			<path style="fill:#442A2C;" d="M1030.331,165.424c-0.996,1.374-1.938,3.269-2.103,4.558c-0.089,0.666,0.013,0.98,0.105,1.128
				c0.084,0.167,0.465,0.477,1.17,0.694c1.417,0.442,3.465,0.464,5.448,0.294c2.014-0.17,4.083-0.522,6.147-0.957
				c4.138-0.878,8.276-2.083,12.383-3.407c4.108-1.33,8.19-2.798,12.251-4.34l8.271-3.141l-5.624,6.761
				c-4.295,5.163-8.537,10.424-12.051,15.985c-0.862,1.39-1.672,2.805-2.318,4.221c-0.317,0.706-0.6,1.416-0.782,2.084
				c-0.189,0.658-0.254,1.312-0.188,1.622c0.032,0.155,0.054,0.19,0.07,0.214c0.015,0.026,0.083,0.089,0.267,0.154
				c0.369,0.134,1.056,0.172,1.757,0.103c1.433-0.134,3.006-0.563,4.541-1.061c3.092-1.023,6.159-2.375,9.183-3.808
				c3.026-1.439,6.017-2.987,8.984-4.585c5.935-3.202,11.778-6.608,17.574-10.095l9.275-5.58l-7.729,7.549
				c-5.72,5.587-11.247,11.475-16.235,17.73c-2.467,3.142-4.842,6.388-6.657,9.887c-0.876,1.741-1.661,3.593-1.774,5.416
				c-0.048,0.901,0.127,1.764,0.632,2.397c0.498,0.641,1.314,1.055,2.211,1.281c1.816,0.449,3.836,0.325,5.792,0.086
				c1.969-0.255,3.929-0.674,5.871-1.166c3.886-0.992,7.71-2.267,11.494-3.645c7.564-2.774,14.979-5.975,22.322-9.315
				c-7.256,3.53-14.584,6.924-22.099,9.904c-3.761,1.48-7.566,2.862-11.474,3.968c-1.955,0.548-3.936,1.028-5.961,1.344
				c-2.024,0.292-4.108,0.505-6.244,0.046c-1.049-0.239-2.168-0.718-2.952-1.662c-0.794-0.943-1.043-2.192-1.009-3.289
				c0.093-2.232,0.911-4.196,1.779-6.065c1.811-3.72,4.146-7.079,6.571-10.341c4.91-6.494,10.297-12.54,15.969-18.376l1.546,1.969
				c-5.728,3.652-11.51,7.227-17.421,10.619c-2.958,1.693-5.947,3.341-9.004,4.894c-3.062,1.547-6.17,3.023-9.486,4.219
				c-1.671,0.583-3.371,1.124-5.312,1.365c-0.977,0.101-2.023,0.171-3.283-0.192c-0.622-0.188-1.325-0.539-1.893-1.134
				c-0.576-0.586-0.916-1.355-1.061-2.024c-0.275-1.362-0.063-2.432,0.16-3.406c0.24-0.974,0.569-1.851,0.924-2.7
				c0.719-1.687,1.562-3.24,2.445-4.753c3.581-6.002,7.745-11.425,11.974-16.792l2.647,3.62c-4.074,1.669-8.184,3.27-12.36,4.743
				c-4.18,1.468-8.415,2.827-12.81,3.881c-2.2,0.522-4.439,0.97-6.779,1.231c-1.171,0.128-2.367,0.21-3.616,0.192
				c-1.249-0.023-2.552-0.128-3.964-0.52c-0.705-0.203-1.442-0.481-2.185-0.923c-0.737-0.435-1.483-1.057-2.063-1.861
				c-0.584-0.798-0.963-1.745-1.134-2.636c-0.175-0.896-0.169-1.736-0.088-2.504c0.174-1.536,0.623-2.821,1.14-4.012
				c0.539-1.205,1.103-2.237,1.882-3.376L1030.331,165.424z"/>
		</g>
		<path style="fill:#442A2C;stroke:#442A2C;stroke-miterlimit:10;" d="M1246.17,83.965l3.474-9.389
			c-1.461-2.757-3.473-4.385-5.387-4.053c-2.972,0.516-4.568,5.621-3.567,11.385s4.215,9.971,7.186,9.455
			c2.431-0.423,4.042-3.321,3.854-8.363L1246.17,83.965z"/>
		
			<line style="fill:none;stroke:#442A2C;stroke-width:8;stroke-miterlimit:10;" x1="1113.56" y1="295.508" x2="1123.745" y2="323.613"/>
		
			<line style="fill:none;stroke:#442A2C;stroke-width:6;stroke-miterlimit:10;" x1="1138.347" y1="298.07" x2="1142.11" y2="319.746"/>
		<path style="display:none;fill:#FBB03B;" d="M1126.692,330.488c-2.772,2.604-16.141-3.877-16.304-9.425
			c-0.163-5.549,11.018-13.105,16.315-9.408C1132.003,315.354,1129.468,327.884,1126.692,330.488z"/>
		<path style="display:none;fill:#FBB03B;" d="M1143.057,668.64c-2.693,1.03-10.203-7.36-8.723-11.298
			c1.481-3.938,11.495-6.023,14.148-1.906C1151.133,659.553,1145.753,667.611,1143.057,668.64z"/>
	</g>
	<g>
		<defs>
			<circle id="SVGID_9_" cx="276.395" cy="399" r="237.219"/>
		</defs>
		<clipPath id="SVGID_10_">
			<use xlink:href="#SVGID_9_"  style="overflow:visible;"/>
		</clipPath>
		<g style="clip-path:url(#SVGID_10_);">
			<polygon style="fill:#442A2C;" points="322.396,311 295.396,307 281.396,309.5 240.896,341.5 208.396,347 156.396,336 
				105.404,345.096 79.396,346.521 47.446,337.572 -31.604,356.016 37.176,270.123 97.896,288 155.896,293 209.896,314.5 
				223.396,313.5 274.396,290.46 301.296,290.3 321.396,297 353.173,290.273 355.396,293 			"/>
			<polygon style="fill:#6D533A;" points="322.396,311 295.396,307 281.396,309.5 240.896,341.5 208.396,347 156.396,336 
				105.404,345.096 79.396,346.521 37.176,359.334 -31.604,356.016 37.176,329.666 80.062,335.334 104.062,336.666 116.729,329 
				147.396,324.508 161.896,330.666 198.729,337.334 216.729,335.334 241.396,332 280.732,303.352 292.1,300.835 301.396,304.331 
				321.396,307.998 346.729,295.333 355.396,293 			"/>
		</g>
	</g>
	<g>
		<g>
			<polygon style="fill:#442A2C;" points="1169.396,334 1142.396,330 1128.396,332.5 1087.896,364.5 1055.396,370 1003.396,359 
				952.403,368.096 926.396,369.521 894.446,360.572 815.396,379.016 884.177,293.123 944.896,311 1002.896,316 1056.896,337.5 
				1070.396,336.5 1121.396,313.46 1148.296,313.3 1168.396,320 1200.173,313.273 1202.396,316 			"/>
			<polygon style="fill:#6D533A;" points="1169.396,334 1142.396,330 1128.396,332.5 1087.896,364.5 1055.396,370 1003.396,359 
				952.403,368.096 926.396,369.521 884.177,382.334 815.396,379.016 884.177,352.666 927.062,358.334 951.062,359.666 963.729,352 
				994.396,347.508 1008.896,353.666 1045.729,360.334 1063.729,358.334 1088.396,355 1127.732,326.352 1139.1,323.835 
				1148.396,327.331 1168.396,330.998 1193.729,318.333 1202.396,316 			"/>
		</g>
	</g>
</g>
<g id="text">
	<g>
		<path style="fill:#65AB8D;" d="M241.061,539.783c-0.032,0-0.12-0.031-0.264-0.096c-0.144-0.063-0.312-0.136-0.504-0.216
			s-0.384-0.16-0.576-0.24c-0.192-0.079-0.336-0.151-0.432-0.216c-0.064-0.031-0.16-0.08-0.288-0.145
			c-0.128-0.063-0.208-0.096-0.24-0.096c-0.576-0.224-0.992-0.424-1.248-0.6c-0.256-0.176-0.464-0.368-0.624-0.576
			c-0.16-0.208-0.312-0.448-0.456-0.72s-0.376-0.601-0.696-0.984h-0.528c-0.032,0.032-0.104,0.112-0.216,0.24
			c-0.112,0.128-0.2,0.224-0.264,0.288c-0.065,0.064-0.192,0.232-0.384,0.504s-0.32,0.44-0.384,0.504
			c-1.185,1.376-2.417,2.192-3.696,2.448c-1.28,0.255-2.448,0.136-3.504-0.36s-1.928-1.288-2.616-2.376
			c-0.689-1.088-1.032-2.304-1.032-3.648v-1.344c0-0.096,0.032-0.336,0.096-0.72c0.063-0.384,0.111-0.655,0.144-0.816
			c0.031-0.063,0.072-0.191,0.12-0.384c0.048-0.192,0.104-0.319,0.168-0.384c0.032-0.097,0.112-0.271,0.24-0.528
			c0.127-0.256,0.208-0.415,0.24-0.479c0.064-0.064,0.192-0.224,0.384-0.48c0.192-0.256,0.319-0.432,0.384-0.528l0.768-0.768
			c0.064-0.063,0.232-0.151,0.504-0.264c0.271-0.112,0.439-0.185,0.504-0.217c0.224-0.127,0.528-0.199,0.912-0.216
			c0.384-0.016,0.792-0.007,1.224,0.024c0.432,0.032,0.856,0.072,1.272,0.12c0.416,0.048,0.784,0.071,1.104,0.071h1.776v-0.768
			c-0.064-0.512-0.112-1.111-0.144-1.8c-0.032-0.688-0.088-1.504-0.168-2.448c-0.08-0.943-0.208-2.031-0.384-3.264
			c-0.176-1.231-0.44-2.647-0.792-4.248c0-0.031,0.031-0.112,0.096-0.24c0.064-0.128,0.112-0.224,0.144-0.288l0.24-0.24
			c0.063-0.031,0.192-0.079,0.384-0.144c0.192-0.063,0.32-0.096,0.384-0.096c0.096-0.032,0.352-0.049,0.768-0.049
			c0.416,0,0.672,0.017,0.768,0.049c0.16,0,0.319,0.08,0.48,0.239c0.16,0.161,0.336,0.336,0.528,0.528
			c0.031,0.032,0.08,0.112,0.144,0.24c0.063,0.128,0.096,0.208,0.096,0.24v0.768c0,0.032,0.04,0.152,0.12,0.36
			c0.08,0.208,0.12,0.344,0.12,0.407c0.031,0.064,0.08,0.232,0.144,0.504c0.063,0.272,0.112,0.44,0.144,0.505
			c0,0.032,0.031,0.151,0.096,0.359c0.064,0.209,0.112,0.329,0.144,0.36c0.032,0.16,0.088,0.408,0.168,0.744
			c0.08,0.336,0.152,0.624,0.216,0.863c0.063,0.24,0.096,0.377,0.096,0.408v0.721v1.199v1.2v0.672c0,0.129,0.008,0.36,0.024,0.696
			s0.04,0.696,0.072,1.08c0.031,0.384,0.063,0.744,0.096,1.08c0.031,0.336,0.063,0.568,0.096,0.696
			c0.064,0.064,0.151,0.224,0.264,0.479c0.112,0.257,0.184,0.432,0.216,0.528c0,0.479,0.04,0.896,0.12,1.248
			c0.08,0.353,0.2,0.712,0.36,1.08c0.16,0.368,0.352,0.76,0.576,1.176c0.224,0.416,0.463,0.929,0.72,1.536
			c0.256,0.575,0.576,1.088,0.96,1.536c0.384,0.448,1.071,1.024,2.064,1.728c0.192,0.064,0.528,0.096,1.008,0.096
			s0.816-0.031,1.008-0.096c0.032-0.031,0.208-0.128,0.528-0.288c0.319-0.16,0.672-0.336,1.056-0.528
			c0.384-0.191,0.744-0.375,1.08-0.552c0.336-0.176,0.52-0.279,0.552-0.312c0.063-0.032,0.175-0.064,0.336-0.097
			c0.16-0.031,0.271-0.063,0.336-0.096c0.064,0.064,0.192,0.112,0.384,0.145c0.192,0.032,0.32,0.048,0.384,0.048
			c0.031,0.032,0.104,0.128,0.216,0.288c0.112,0.16,0.168,0.271,0.168,0.336c0.032,0.32-0.096,0.68-0.384,1.08
			s-0.641,0.8-1.056,1.199c-0.416,0.4-0.84,0.761-1.272,1.08c-0.432,0.32-0.792,0.561-1.08,0.721
			c-0.128,0.064-0.312,0.136-0.552,0.216c-0.24,0.08-0.48,0.16-0.72,0.24c-0.24,0.08-0.456,0.151-0.648,0.216
			s-0.305,0.096-0.336,0.096h-1.008c-0.128-0.031-0.353-0.072-0.672-0.12C241.316,539.855,241.125,539.815,241.061,539.783z
			 M227.909,535.655c0.064,0.096,0.192,0.24,0.384,0.433c0.192,0.191,0.319,0.304,0.384,0.336c0.032,0.032,0.096,0.048,0.192,0.048
			c0.16,0,0.256-0.016,0.288-0.048c0.127-0.064,0.312-0.152,0.552-0.265c0.24-0.111,0.392-0.199,0.456-0.264
			c0.031-0.031,0.12-0.12,0.264-0.264c0.144-0.145,0.296-0.313,0.456-0.505c0.16-0.191,0.32-0.375,0.48-0.552
			c0.16-0.175,0.271-0.312,0.336-0.408c0.128-0.255,0.264-0.511,0.408-0.768c0.144-0.256,0.184-0.464,0.12-0.624
			c0-0.224-0.017-0.352-0.048-0.384c0-0.063-0.032-0.151-0.096-0.265c-0.064-0.111-0.113-0.199-0.144-0.264
			c-0.032-0.031-0.152-0.111-0.36-0.24c-0.208-0.127-0.344-0.207-0.408-0.239c-0.032-0.064-0.08-0.151-0.144-0.265
			c-0.064-0.111-0.096-0.199-0.096-0.264c0-0.031,0.04-0.111,0.12-0.24c0.08-0.127,0.12-0.208,0.12-0.24
			c0.032-0.031,0.048-0.079,0.048-0.144c0-0.063-0.016-0.096-0.048-0.096c0-0.032-0.032-0.08-0.096-0.145
			c-0.064-0.063-0.112-0.111-0.144-0.144c-0.128,0-0.312-0.08-0.552-0.24c-0.24-0.16-0.473-0.24-0.696-0.24
			c-0.032-0.031-0.161-0.048-0.384-0.048c-0.224,0-0.353,0.017-0.384,0.048c-0.096,0-0.272,0.032-0.528,0.097
			c-0.256,0.064-0.416,0.112-0.48,0.144c-0.032,0-0.072,0.032-0.12,0.096c-0.048,0.064-0.089,0.113-0.12,0.145
			c-0.064,0.096-0.161,0.24-0.288,0.432c-0.128,0.192-0.208,0.305-0.24,0.336c-0.033,0.064-0.081,0.232-0.144,0.504
			c-0.064,0.272-0.096,0.44-0.096,0.504c0,0.097-0.008,0.257-0.024,0.48c-0.017,0.225-0.024,0.464-0.024,0.72
			c0,0.225,0.007,0.44,0.024,0.648c0.016,0.208,0.024,0.344,0.024,0.408c0,0.032,0.032,0.112,0.096,0.239
			c0.063,0.129,0.111,0.225,0.144,0.288c0.096,0.161,0.24,0.4,0.432,0.72C227.765,535.447,227.876,535.624,227.909,535.655z"/>
		<path style="fill:#65AB8D;" d="M252.58,539.256l-2.496-1.248c-1.121-0.8-1.92-1.808-2.4-3.024c-0.48-1.216-0.792-2.4-0.936-3.552
			c-0.144-1.152-0.176-2.185-0.096-3.097c0.08-0.911,0.12-1.479,0.12-1.703c0-0.032,0.016-0.136,0.048-0.313
			c0.031-0.176,0.064-0.36,0.096-0.552c0.031-0.192,0.063-0.376,0.096-0.552c0.032-0.176,0.048-0.28,0.048-0.313
			c0-0.063,0.031-0.159,0.096-0.288c0.064-0.127,0.112-0.208,0.144-0.24c0.127-0.127,0.304-0.312,0.528-0.552
			c0.224-0.24,0.456-0.479,0.696-0.72c0.24-0.24,0.456-0.456,0.648-0.648c0.192-0.191,0.319-0.304,0.384-0.336
			c0.032-0.031,0.12-0.071,0.264-0.12c0.144-0.048,0.295-0.104,0.456-0.168c0.16-0.063,0.319-0.119,0.48-0.168
			c0.16-0.048,0.271-0.071,0.336-0.071c0.544,0,1.111,0.056,1.704,0.168c0.592,0.112,1.135,0.304,1.632,0.575
			c0.496,0.272,0.904,0.641,1.224,1.104c0.319,0.464,0.48,1.049,0.48,1.752c-0.032,1.088-0.056,1.977-0.072,2.664
			c-0.017,0.688-0.065,1.265-0.144,1.728c-0.081,0.465-0.192,0.841-0.336,1.129c-0.144,0.287-0.336,0.592-0.576,0.911
			c-0.24,0.32-0.552,0.681-0.936,1.08c-0.384,0.4-0.848,0.937-1.392,1.608c-0.096,0.096-0.096,0.192,0,0.288
			c0.032,0.064,0.104,0.152,0.216,0.264c0.112,0.112,0.2,0.185,0.264,0.216c0.48,0.288,0.888,0.504,1.224,0.648
			c0.336,0.144,0.679,0.24,1.032,0.288c0.352,0.048,0.736,0.08,1.152,0.096c0.416,0.017,0.943,0.057,1.584,0.12
			c0.031,0.032,0.223,0.048,0.576,0.048c0.256,0,0.4-0.016,0.432-0.048c0.032,0,0.256-0.096,0.672-0.288
			c0.416-0.192,0.688-0.352,0.816-0.479c0.031-0.032,0.136-0.104,0.312-0.217c0.175-0.111,0.367-0.239,0.576-0.384
			c0.208-0.144,0.4-0.279,0.576-0.408c0.175-0.127,0.28-0.207,0.312-0.239c0.063-0.064,0.192-0.12,0.384-0.168
			c0.192-0.049,0.32-0.072,0.384-0.072c0.127,0,0.288,0.152,0.48,0.456c0.192,0.305,0.288,0.488,0.288,0.552
			c0.031,0.032,0.048,0.225,0.048,0.576c0,0.257-0.017,0.4-0.048,0.432c-0.384,0.769-0.641,1.337-0.768,1.704
			c-0.128,0.368-0.264,0.648-0.408,0.84c-0.144,0.192-0.376,0.345-0.696,0.456c-0.32,0.112-0.881,0.28-1.68,0.504
			c-0.064,0.032-0.168,0.064-0.312,0.097s-0.432,0.064-0.864,0.096c-0.432,0.032-1.056,0.057-1.872,0.072
			c-0.816,0.017-1.896,0.023-3.24,0.023c-0.064-0.031-0.152-0.079-0.264-0.144c-0.113-0.063-0.201-0.112-0.264-0.145
			c-0.064-0.031-0.232-0.071-0.504-0.12C252.812,539.327,252.644,539.288,252.58,539.256z M250.516,529.943l0.48,1.056
			c0.096,0.032,0.24-0.079,0.432-0.336c0.192-0.256,0.4-0.56,0.624-0.912c0.224-0.352,0.439-0.703,0.648-1.056
			c0.208-0.352,0.344-0.607,0.408-0.768v-1.008c0-0.032-0.032-0.152-0.096-0.36c-0.064-0.208-0.112-0.344-0.144-0.408
			c-0.032-0.063-0.08-0.151-0.144-0.264c-0.064-0.112-0.112-0.2-0.144-0.265c-0.032-0.031-0.072-0.079-0.12-0.144
			c-0.048-0.063-0.089-0.096-0.12-0.096h-0.48c-0.256,0.128-0.512,0.304-0.768,0.527c-0.256,0.225-0.432,0.385-0.528,0.48
			L250.516,529.943z"/>
		<path style="fill:#65AB8D;" d="M268.948,539.928c-0.032,0-0.112-0.016-0.24-0.048c-0.128-0.032-0.264-0.056-0.408-0.072
			c-0.144-0.016-0.272-0.04-0.384-0.072c-0.113-0.031-0.185-0.048-0.216-0.048c-0.064,0-0.12-0.031-0.168-0.096
			c-0.048-0.064-0.088-0.112-0.12-0.145v-0.768c0.031-0.032,0.144-0.168,0.336-0.408s0.336-0.439,0.432-0.6l0.24-0.24
			c0.064-0.031,0.192-0.08,0.384-0.145c0.192-0.063,0.32-0.096,0.384-0.096c0.096,0,0.264-0.016,0.504-0.048
			c0.24-0.031,0.496-0.063,0.768-0.096c0.271-0.032,0.528-0.064,0.768-0.097c0.24-0.031,0.408-0.048,0.504-0.048
			c0.031,0,0.08-0.023,0.144-0.072c0.063-0.048,0.096-0.104,0.096-0.168c0.032-0.096,0.048-0.319,0.048-0.672
			c0-0.352-0.017-0.544-0.048-0.576c0-0.031-0.04-0.119-0.12-0.264c-0.081-0.144-0.168-0.312-0.264-0.504s-0.2-0.384-0.312-0.576
			c-0.112-0.191-0.216-0.336-0.312-0.432c-0.161-0.128-0.353-0.392-0.576-0.792c-0.224-0.4-0.368-0.632-0.432-0.696
			c-0.064-0.063-0.152-0.16-0.264-0.288c-0.112-0.127-0.2-0.208-0.264-0.24c-0.032-0.031-0.112-0.048-0.24-0.048
			c-0.128,0-0.208,0.017-0.24,0.048c-0.064,0.032-0.152,0.113-0.264,0.24c-0.113,0.128-0.2,0.225-0.264,0.288v0.864
			c-0.064,0.224-0.288,0.561-0.672,1.008c-0.384,0.448-0.873,0.952-1.464,1.512c-0.592,0.561-1.248,1.128-1.968,1.704
			s-1.464,1.089-2.232,1.536c-0.768,0.448-1.529,0.792-2.28,1.032s-1.432,0.312-2.04,0.216c-0.063,0-0.168-0.104-0.312-0.312
			c-0.144-0.208-0.232-0.328-0.264-0.36c-0.032-0.031-0.08-0.08-0.144-0.145c-0.064-0.063-0.096-0.111-0.096-0.144v-0.72
			c0-0.319,0.24-0.632,0.72-0.937c0.48-0.304,1.08-0.663,1.8-1.08c0.72-0.415,1.488-0.919,2.304-1.512
			c0.816-0.592,1.576-1.336,2.28-2.232l0.864-1.439c0.063-0.063,0.151-0.256,0.264-0.576c0.112-0.319,0.184-0.56,0.216-0.72
			c0.031-0.064,0.072-0.184,0.12-0.36c0.048-0.176,0.096-0.376,0.144-0.6c0.048-0.224,0.096-0.433,0.144-0.624
			c0.048-0.192,0.088-0.336,0.12-0.433v-0.479c0.064-0.256,0.144-0.512,0.24-0.769c0.096-0.255,0.175-0.415,0.24-0.479
			c0.064-0.063,0.232-0.192,0.504-0.384c0.271-0.192,0.44-0.319,0.504-0.385c0.063-0.031,0.192-0.079,0.384-0.144
			c0.192-0.063,0.319-0.096,0.384-0.096c0.032-0.032,0.08-0.048,0.144-0.048c0.064,0,0.096,0.016,0.096,0.048
			c0.096,0.032,0.24,0.071,0.432,0.12c0.192,0.048,0.304,0.088,0.336,0.119c0.063,0.033,0.192,0.145,0.384,0.337
			c0.192,0.191,0.32,0.336,0.384,0.432c0.031,0.032,0.112,0.152,0.24,0.36c0.127,0.208,0.208,0.328,0.24,0.359
			c0.063,0.064,0.231,0.265,0.504,0.601c0.271,0.336,0.52,0.632,0.744,0.888c0.16,0.16,0.255,0.257,0.288,0.288
			c0.032,0.032,0.08,0.112,0.144,0.24c0.064,0.128,0.144,0.264,0.24,0.407c0.096,0.145,0.175,0.281,0.24,0.408
			c0.064,0.096,0.144,0.192,0.24,0.288s0.224,0.288,0.384,0.576c0.128,0.128,0.24,0.257,0.336,0.384
			c0.096,0.128,0.16,0.209,0.192,0.24c0.031,0.032,0.104,0.144,0.216,0.336c0.112,0.192,0.2,0.32,0.264,0.384
			c0.063,0.128,0.192,0.353,0.384,0.672c0.192,0.32,0.32,0.528,0.384,0.624c0.031,0.064,0.079,0.152,0.144,0.265
			c0.063,0.112,0.096,0.185,0.096,0.216c0.032,0.16,0.096,0.384,0.192,0.672s0.199,0.593,0.313,0.912
			c0.111,0.32,0.216,0.616,0.312,0.888c0.096,0.272,0.16,0.456,0.192,0.552c0,0.032,0.016,0.113,0.048,0.24
			c0.031,0.128,0.056,0.264,0.072,0.408c0.016,0.144,0.039,0.272,0.071,0.384c0.032,0.112,0.049,0.185,0.049,0.216
			c0.096,0.864-0.192,1.473-0.864,1.824c-0.672,0.352-1.464,0.56-2.376,0.624c-0.912,0.063-1.793,0.031-2.64-0.096
			C269.756,540.135,269.204,540.023,268.948,539.928z"/>
		<path style="fill:#65AB8D;" d="M278.188,526.775c0.079-0.16,0.159-0.319,0.24-0.479c0.079-0.16,0.201-0.368,0.365-0.624
			c0.064-0.064,0.213-0.152,0.442-0.265c0.229-0.111,0.476-0.216,0.739-0.312c0.163-0.097,0.278-0.16,0.345-0.192
			c0.065-0.031,0.278-0.048,0.64-0.048c0.427,0,0.656,0.017,0.689,0.048c0.065,0,0.155,0.064,0.271,0.192s0.188,0.224,0.222,0.288
			s0.082,0.264,0.147,0.6c0.066,0.336,0.1,0.568,0.1,0.696v0.527v0.864l-0.246,4.464c0,0.801,0.057,1.521,0.171,2.16
			c0.114,0.641,0.363,1.121,0.747,1.44c0.384,0.32,0.943,0.424,1.68,0.312c0.736-0.111,1.729-0.52,2.977-1.224
			c0.063-0.031,0.191-0.151,0.384-0.36c0.191-0.208,0.319-0.344,0.384-0.408c0.063-0.031,0.151-0.079,0.264-0.144
			c0.112-0.063,0.184-0.096,0.216-0.096c-0.032,0,0.032,0,0.192,0s0.328,0.032,0.504,0.096c0.176,0.064,0.319,0.185,0.433,0.36
			c0.111,0.176,0.104,0.455-0.024,0.84v0.288c-0.257,0.672-0.608,1.296-1.056,1.872c-0.449,0.575-0.96,1.04-1.536,1.392
			c-1.152,0.736-2.265,1.152-3.336,1.248c-1.073,0.096-2.035-0.072-2.887-0.504c-0.853-0.433-1.524-1.12-2.017-2.064
			c-0.492-0.943-0.705-2.104-0.641-3.479l-0.576-7.104C278.051,527.063,278.107,526.936,278.188,526.775z M279.844,515.063
			c-0.064-0.192-0.113-0.336-0.145-0.432v-0.24c0.128-0.416,0.304-0.672,0.528-0.769c0.063-0.031,0.151-0.079,0.264-0.144
			c0.112-0.063,0.184-0.096,0.216-0.096s0.12-0.016,0.265-0.049c0.144-0.031,0.312-0.055,0.504-0.071
			c0.191-0.016,0.384-0.04,0.576-0.072c0.191-0.031,0.336-0.048,0.432-0.048c0.031-0.031,0.079-0.048,0.144-0.048
			s0.097,0.017,0.097,0.048c0.031,0,0.079,0.032,0.144,0.096c0.063,0.064,0.096,0.112,0.096,0.145
			c0.192,0.191,0.288,0.353,0.288,0.479v1.296c-0.128,0.129-0.224,0.209-0.288,0.24c-0.128,0.096-0.319,0.248-0.575,0.456
			c-0.257,0.208-0.4,0.312-0.433,0.312c-0.032,0.032-0.239,0.049-0.624,0.049c-0.416,0.064-0.688,0-0.815-0.192
			c-0.129-0.192-0.32-0.399-0.576-0.624C279.939,515.368,279.907,515.256,279.844,515.063z"/>
		<path style="fill:#65AB8D;" d="M292.083,556.775c-0.801-0.8-1.4-1.784-1.8-2.952c-0.401-1.168-0.473-2.28-0.217-3.336
			c0.416-1.408,1-2.696,1.752-3.864s1.592-2.327,2.521-3.479c0.031-0.032,0.12-0.112,0.264-0.24c0.145-0.128,0.232-0.208,0.265-0.24
			c0.127-0.16,0.319-0.407,0.575-0.743c0.256-0.337,0.464-0.624,0.624-0.864s0.256-0.377,0.288-0.408v-0.24
			c0-0.032-0.032-0.048-0.096-0.048c-0.064,0-0.112,0.016-0.144,0.048c-1.121,0.672-2.121,0.928-3,0.769
			c-0.881-0.161-1.625-0.568-2.232-1.225c-0.608-0.655-1.08-1.495-1.416-2.52s-0.504-2.064-0.504-3.12
			c0-1.088,0.168-2.128,0.504-3.12c0.336-0.991,0.871-1.776,1.608-2.352c0.127-0.128,0.352-0.32,0.672-0.576
			c0.319-0.256,0.511-0.4,0.576-0.433c0.063-0.063,0.295-0.191,0.695-0.384c0.4-0.191,0.68-0.319,0.84-0.384
			c0.16-0.063,0.392-0.16,0.696-0.288c0.304-0.128,0.487-0.208,0.552-0.24c0.097-0.031,0.288-0.071,0.576-0.12
			c0.288-0.048,0.601-0.096,0.937-0.144s0.647-0.096,0.936-0.145c0.288-0.048,0.48-0.071,0.576-0.071
			c0.031-0.031,0.079-0.08,0.144-0.145c0.064-0.063,0.097-0.111,0.097-0.144c0.063-0.063,0.199-0.231,0.407-0.504
			c0.208-0.271,0.328-0.439,0.36-0.504c0.031-0.032,0.08-0.072,0.145-0.12c0.063-0.048,0.096-0.088,0.096-0.12
			c0.063-0.031,0.191-0.112,0.384-0.24c0.192-0.127,0.319-0.208,0.384-0.24c0.064-0.063,0.16-0.127,0.288-0.191
			s0.208-0.097,0.24-0.097h1.488c0.063,0.032,0.159,0.072,0.288,0.12c0.127,0.049,0.207,0.104,0.239,0.168
			c0.064,0.064,0.152,0.185,0.265,0.36c0.111,0.177,0.184,0.296,0.216,0.36c0.031,0.096,0.048,0.384,0.048,0.863v1.297v1.296
			c0,0.479-0.017,0.768-0.048,0.863c0,0.097-0.041,0.329-0.12,0.696c-0.08,0.368-0.16,0.768-0.24,1.2
			c-0.08,0.432-0.16,0.832-0.24,1.2s-0.119,0.6-0.119,0.695v0.816c0,0.416,0.016,0.881,0.048,1.392
			c0.031,0.513,0.048,0.992,0.048,1.44v0.815c0.096-0.191,0.304-0.352,0.624-0.479c0.319-0.128,0.664-0.24,1.032-0.336
			c0.367-0.096,0.728-0.199,1.08-0.313c0.352-0.111,0.607-0.247,0.768-0.407c0.063,0,0.224-0.08,0.48-0.24
			c0.255-0.16,0.415-0.24,0.479-0.24c0.096-0.031,0.256-0.127,0.48-0.288c0.223-0.159,0.463-0.344,0.72-0.552
			c0.256-0.208,0.496-0.399,0.72-0.576c0.224-0.176,0.384-0.295,0.48-0.36c0.031-0.031,0.127-0.087,0.288-0.168
			c0.159-0.079,0.271-0.119,0.336-0.119c0.159-0.097,0.384-0.208,0.672-0.336s0.447-0.192,0.479-0.192
			c0.064,0,0.224,0.032,0.48,0.096c0.256,0.064,0.415,0.112,0.479,0.145c0.128,0.064,0.28,0.232,0.456,0.504
			c0.176,0.272,0.296,0.44,0.36,0.504c0,0.064-0.041,0.257-0.12,0.576c-0.08,0.32-0.152,0.544-0.216,0.672
			c-0.384,0.32-0.608,0.512-0.672,0.576c-0.288,0.353-0.801,0.776-1.536,1.271c-0.736,0.497-1.496,0.977-2.28,1.44
			s-1.488,0.856-2.112,1.176c-0.624,0.32-0.983,0.479-1.079,0.479c-0.065,0.032-0.257,0.112-0.576,0.24
			c-0.32,0.128-0.513,0.208-0.576,0.24c-0.064,0-0.248,0.024-0.552,0.072c-0.305,0.048-0.488,0.088-0.553,0.12
			c-0.096,0.096-0.16,0.223-0.191,0.384c-0.032,0.159-0.048,0.304-0.048,0.432c-0.032,0.224-0.064,0.624-0.097,1.2
			s-0.064,1.184-0.096,1.824c-0.032,0.64-0.057,1.248-0.072,1.824c-0.017,0.575-0.023,0.976-0.023,1.199v0.864v1.536v1.488v0.912
			c0,0.063-0.024,0.295-0.072,0.695s-0.104,0.68-0.168,0.84c0,0.032-0.032,0.145-0.096,0.336c-0.064,0.192-0.113,0.32-0.145,0.385
			c-0.064,0.159-0.16,0.407-0.288,0.744c-0.128,0.336-0.208,0.52-0.239,0.552c-0.065,0.127-0.225,0.352-0.48,0.672
			c-0.257,0.319-0.432,0.512-0.528,0.576c-0.064,0.063-0.248,0.191-0.552,0.384c-0.305,0.192-0.536,0.319-0.696,0.384
			c-0.064,0.031-0.191,0.08-0.384,0.145c-0.191,0.063-0.32,0.096-0.384,0.096h-2.016L292.083,556.775z M292.851,536.375
			c0.063,0.129,0.224,0.385,0.48,0.769c0.031,0.032,0.191,0.048,0.479,0.048s0.464-0.016,0.528-0.048
			c0.063,0,0.151-0.031,0.264-0.096s0.2-0.112,0.265-0.145l2.016-2.016c0.128-0.128,0.319-0.352,0.576-0.672
			c0.256-0.32,0.399-0.512,0.432-0.576c0.063-0.097,0.151-0.344,0.265-0.744c0.111-0.399,0.184-0.664,0.216-0.792
			c0.031-0.031,0.048-0.224,0.048-0.576c0-0.384-0.017-0.607-0.048-0.672c0.031-0.16-0.048-0.344-0.24-0.552s-0.353-0.36-0.48-0.456
			c-0.064-0.064-0.191-0.12-0.384-0.168c-0.191-0.048-0.32-0.088-0.384-0.12h-1.008c-0.097,0.032-0.272,0.112-0.528,0.24
			c-0.257,0.128-0.416,0.224-0.479,0.288c-0.097,0.064-0.24,0.191-0.433,0.384c-0.191,0.191-0.4,0.392-0.624,0.6
			c-0.224,0.209-0.424,0.408-0.6,0.601c-0.177,0.191-0.297,0.336-0.36,0.432c-0.064,0.128-0.12,0.384-0.168,0.768
			c-0.048,0.385-0.088,0.641-0.12,0.769v2.256c0.032,0,0.072,0.064,0.12,0.192S292.786,536.312,292.851,536.375z M295.347,554.52
			c0.063,0.063,0.16,0.12,0.288,0.168s0.208,0.072,0.24,0.072c0.096,0,0.224,0.007,0.384,0.023c0.16,0.016,0.319,0.024,0.48,0.024
			c0.159,0,0.367-0.017,0.624-0.048c0.031,0,0.111-0.129,0.239-0.385s0.224-0.464,0.288-0.624c0.031-0.064,0.08-0.232,0.145-0.504
			c0.063-0.271,0.096-0.439,0.096-0.504c0.031-0.064,0.079-0.185,0.144-0.359c0.064-0.177,0.097-0.297,0.097-0.36
			c0-0.225,0.016-0.624,0.048-1.2c0.031-0.576,0.063-1.192,0.096-1.848c0.031-0.656,0.063-1.272,0.096-1.849
			c0.032-0.575,0.049-0.976,0.049-1.199v-0.48c-0.032-0.064-0.081-0.16-0.145-0.288c-0.064-0.128-0.112-0.208-0.144-0.239h-0.48
			c-0.064,0.031-0.152,0.071-0.264,0.119c-0.112,0.049-0.2,0.088-0.264,0.12c-0.033,0.064-0.113,0.151-0.24,0.265
			c-0.129,0.111-0.209,0.199-0.24,0.264c-0.032,0.031-0.08,0.12-0.144,0.264c-0.065,0.145-0.097,0.232-0.097,0.265
			c-0.064,0.063-0.191,0.264-0.384,0.6s-0.32,0.552-0.384,0.648c-0.032,0.031-0.12,0.151-0.265,0.359
			c-0.144,0.208-0.232,0.344-0.264,0.408c0,0.031-0.032,0.111-0.096,0.24c-0.064,0.127-0.112,0.207-0.145,0.24
			c-0.032,0.063-0.08,0.151-0.144,0.264c-0.064,0.111-0.137,0.24-0.216,0.384c-0.08,0.145-0.161,0.271-0.24,0.384
			c-0.08,0.112-0.137,0.184-0.168,0.216v3.313c0,0.031,0.072,0.144,0.216,0.336c0.145,0.192,0.248,0.336,0.313,0.432
			c0.031,0.064,0.111,0.152,0.239,0.265C295.234,554.415,295.314,554.487,295.347,554.52z"/>
		<path style="fill:#65AB8D;" d="M317.091,539.016c0-0.063,0.039-0.192,0.12-0.384c0.079-0.192,0.12-0.32,0.12-0.385
			c0.031-0.031,0.048-0.223,0.048-0.575c0-0.385-0.017-0.608-0.048-0.673c-0.097-0.768-0.161-1.6-0.192-2.495
			c-0.032-0.896-0.192-1.633-0.48-2.208c-0.16-0.256-0.32-0.568-0.479-0.937c-0.16-0.367-0.272-0.6-0.336-0.696
			c-0.032-0.031-0.112-0.079-0.24-0.144c-0.128-0.063-0.225-0.096-0.288-0.096c-0.032,0-0.112,0.032-0.24,0.096
			c-0.128,0.064-0.208,0.112-0.239,0.144c-0.064,0.064-0.192,0.225-0.385,0.48c-0.191,0.257-0.32,0.432-0.384,0.528
			c-0.064,0.128-0.191,0.353-0.384,0.672c-0.192,0.32-0.32,0.527-0.384,0.624c-0.032,0.032-0.12,0.185-0.265,0.456
			c-0.144,0.271-0.319,0.607-0.527,1.008c-0.209,0.4-0.425,0.815-0.648,1.248c-0.224,0.432-0.416,0.809-0.576,1.128
			c-0.128,0.256-0.256,0.512-0.384,0.768c-0.032,0.032-0.16,0.137-0.384,0.313c-0.225,0.176-0.368,0.312-0.432,0.408
			c-0.064,0.064-0.192,0.248-0.385,0.552c-0.191,0.305-0.32,0.456-0.384,0.456c-0.032,0.064-0.224,0.152-0.576,0.264
			c-0.353,0.112-0.608,0.185-0.768,0.216c-0.064,0.032-0.177,0.064-0.336,0.097c-0.16,0.032-0.271,0.032-0.336,0h-0.576
			c-0.352,0-0.544-0.017-0.576-0.049c-0.031-0.063-0.072-0.216-0.12-0.456c-0.048-0.239-0.056-0.391-0.023-0.455
			c0-0.032,0.008-0.16,0.023-0.385c0.017-0.224,0.041-0.367,0.072-0.432c0.032-0.16,0.152-0.439,0.36-0.84s0.344-0.648,0.407-0.744
			c0.032-0.031,0.161-0.112,0.385-0.24c0.064-0.063,0.168-0.151,0.312-0.264c0.145-0.112,0.231-0.184,0.264-0.216
			c0.064-0.032,0.232-0.313,0.505-0.841c0.271-0.527,0.567-1.119,0.888-1.775c0.319-0.655,0.607-1.256,0.864-1.8
			c0.255-0.544,0.415-0.864,0.479-0.96c0-0.032,0.04-0.112,0.12-0.24c0.079-0.128,0.16-0.264,0.24-0.408
			c0.079-0.144,0.159-0.271,0.24-0.384c0.079-0.112,0.119-0.184,0.119-0.216c0.032-0.032,0.08-0.12,0.145-0.265
			c0.063-0.144,0.111-0.231,0.144-0.264c0.064-0.063,0.224-0.231,0.48-0.504c0.256-0.271,0.432-0.439,0.528-0.504
			c0-0.031,0.071-0.08,0.216-0.145c0.144-0.063,0.231-0.096,0.264-0.096c0.063-0.031,0.192-0.12,0.384-0.264
			c0.192-0.145,0.319-0.232,0.384-0.265l0.48-0.239c0.128,0,0.328-0.008,0.6-0.024c0.271-0.016,0.536-0.024,0.792-0.024
			c0.288,0,0.536,0.009,0.744,0.024c0.208,0.017,0.344,0.024,0.408,0.024c0.031,0,0.24,0.128,0.624,0.384s0.688,0.464,0.912,0.624
			c0.063,0.064,0.231,0.2,0.504,0.408c0.271,0.208,0.439,0.328,0.504,0.359h0.72c0.064,0,0.192-0.031,0.385-0.096
			c0.191-0.063,0.319-0.112,0.384-0.145c0.031-0.031,0.111-0.079,0.24-0.144c0.127-0.063,0.223-0.111,0.287-0.144
			c0.097-0.032,0.256-0.08,0.48-0.145c0.224-0.063,0.456-0.12,0.696-0.168c0.239-0.048,0.463-0.088,0.672-0.12
			c0.208-0.031,0.344-0.048,0.408-0.048c0.031-0.031,0.191-0.048,0.479-0.048c0.319,0,0.496,0.017,0.528,0.048
			c0.031,0,0.144,0.032,0.336,0.096c0.191,0.064,0.336,0.113,0.432,0.145c0.064,0.032,0.151,0.08,0.265,0.144
			c0.111,0.064,0.184,0.097,0.216,0.097l1.008,1.008c0.063,0.064,0.16,0.239,0.288,0.527c0.127,0.257,0.208,0.417,0.24,0.48
			c0.031,0.064,0.096,0.24,0.191,0.528c0.224,0.575,0.433,1.072,0.624,1.487c0.192,0.417,0.384,0.809,0.576,1.177
			s0.399,0.736,0.624,1.104c0.224,0.368,0.512,0.792,0.864,1.272c0,0.064,0.039,0.176,0.12,0.336
			c0.079,0.16,0.151,0.271,0.216,0.336c0.096,0.032,0.256,0.088,0.479,0.168s0.456,0.152,0.696,0.216
			c0.24,0.064,0.472,0.128,0.696,0.192c0.224,0.064,0.384,0.096,0.479,0.096c0.064,0.064,0.256,0.056,0.576-0.024
			c0.319-0.079,0.512-0.12,0.576-0.12c0.063,0,0.184,0.032,0.36,0.097c0.175,0.064,0.295,0.096,0.359,0.096
			c0.063,0.064,0.136,0.168,0.216,0.312c0.08,0.145,0.136,0.249,0.168,0.313c-0.032,0.064-0.088,0.257-0.168,0.576
			c-0.08,0.32-0.152,0.544-0.216,0.672c0,0.032-0.056,0.096-0.168,0.192c-0.112,0.096-0.2,0.16-0.264,0.191
			c-0.064,0.096-0.2,0.192-0.408,0.288s-0.416,0.192-0.624,0.288s-0.416,0.176-0.624,0.24s-0.344,0.111-0.408,0.144
			c-0.096,0.031-0.272,0.04-0.527,0.024c-0.257-0.017-0.433-0.041-0.528-0.072c-0.128-0.031-0.328-0.088-0.6-0.168
			c-0.272-0.079-0.561-0.168-0.864-0.264c-0.305-0.097-0.593-0.185-0.864-0.265c-0.272-0.079-0.456-0.151-0.552-0.216
			c-0.096-0.031-0.248-0.144-0.456-0.336c-0.209-0.192-0.345-0.319-0.408-0.384c-0.032-0.031-0.064-0.088-0.096-0.168
			c-0.032-0.08-0.064-0.12-0.097-0.12c-0.448-0.416-0.808-0.92-1.079-1.512c-0.272-0.592-0.537-1.208-0.792-1.849
			c-0.257-0.64-0.545-1.255-0.864-1.848c-0.32-0.592-0.736-1.08-1.248-1.464c-0.032-0.031-0.16-0.048-0.384-0.048
			c-0.225,0-0.353,0.017-0.385,0.048c-0.064,0-0.151,0.032-0.264,0.096c-0.112,0.064-0.2,0.112-0.264,0.145
			c0,0.032-0.064,0.144-0.192,0.336c-0.128,0.191-0.224,0.336-0.288,0.432c-0.064,0.064-0.12,0.16-0.168,0.288
			s-0.072,0.208-0.072,0.24c-0.064,0.128-0.119,0.464-0.168,1.008c-0.048,0.544-0.088,1.168-0.119,1.872v0.72v0.432
			c0,0.032-0.064,0.177-0.192,0.433s-0.225,0.448-0.288,0.576c-0.032,0.032-0.089,0.071-0.168,0.119
			c-0.08,0.049-0.104,0.089-0.072,0.12c0.128,0.129,0.128,0.305,0,0.528c-0.128,0.225-0.328,0.448-0.6,0.672
			c-0.272,0.225-0.584,0.416-0.937,0.576s-0.688,0.24-1.008,0.24h-0.527c-0.032-0.032-0.072-0.112-0.12-0.24
			s-0.089-0.224-0.12-0.288V539.016z"/>
	</g>
	<g>
		<path style="fill:#442A2C;" d="M67.798,423.596c0-1.001,0.5-1.601,1.6-1.601H93.4c9.4,0,14.401,5.101,14.401,14.501V487.6
			c0,9.4-5,14.4-14.401,14.4H69.398c-1.1,0-1.6-0.5-1.6-1.6V423.596z M90.6,488.799c2.6,0,4-1.3,4-4v-45.503c0-2.7-1.4-4.1-4-4.1
			h-9.201v53.603H90.6z"/>
		<path style="fill:#442A2C;" d="M152.4,502c-0.9,0-1.4-0.5-1.6-1.4l-2.8-14.601h-17.801l-2.7,14.601c-0.2,0.9-0.7,1.4-1.6,1.4
			h-10.701c-1.1,0-1.6-0.6-1.3-1.7l16.601-76.904c0.2-1,0.8-1.4,1.7-1.4H146.1c0.9,0,1.5,0.4,1.7,1.4l16.601,76.904
			c0.2,1.101-0.2,1.7-1.4,1.7H152.4z M139.1,439.496l-6.4,34.902H145.5L139.1,439.496z"/>
		<path style="fill:#442A2C;" d="M230.603,421.995c1.3,0,2,0.8,1.9,2.101l-8.601,76.004c-0.1,1.301-0.8,1.9-2.1,1.9h-9.801
			c-1.2,0-1.9-0.6-2.2-1.8l-10.4-45.203L188.9,500.3c-0.3,1.101-1,1.7-2.2,1.7h-10.001c-1.3,0-2-0.6-2.1-1.9l-8.2-76.004
			c-0.1-1.301,0.6-2.101,1.9-2.101h9.5c1.2,0,2,0.7,2.1,1.9l3.9,46.803h0.5l9.9-46.903c0.3-1.2,1-1.8,2.2-1.8h6
			c1.2,0,1.9,0.6,2.2,1.8l9.801,46.903h0.5l4.1-46.803c0.1-1.2,0.9-1.9,2.1-1.9H230.603z"/>
		<path style="fill:#442A2C;" d="M283.6,421.995c1,0,1.601,0.6,1.601,1.601V500.4c0,1-0.601,1.6-1.601,1.6h-9.9
			c-0.9,0-1.5-0.4-1.8-1.3l-15.301-42.703h-0.5V500.4c0,1-0.5,1.6-1.6,1.6h-10.4c-1,0-1.6-0.6-1.6-1.6v-76.805
			c0-1.001,0.6-1.601,1.6-1.601h9.9c0.9,0,1.5,0.4,1.8,1.3l15.201,42.503h0.6v-42.202c0-1.001,0.5-1.601,1.6-1.601H283.6z"/>
		<path style="fill:#442A2C;" d="M360.299,454.797c0,3.7-2.7,6.501-6.3,7.101v0.2c3.6,0.6,6.3,3.4,6.3,7.101V487.6
			c0,9.4-5.101,14.4-14.501,14.4h-24.001c-1,0-1.601-0.6-1.601-1.6v-76.805c0-1.101,0.601-1.601,1.601-1.601h24.001
			c9.4,0,14.501,5,14.501,14.401V454.797z M346.998,439.196c0-2.601-1.3-4-4-4h-9.101v20.201h9.101c2.601,0,4-1.4,4-3.9V439.196z
			 M346.998,472.599c0-2.601-1.3-4.001-4-4.001h-9.101v20.201h9.101c2.601,0,4-1.3,4-4V472.599z"/>
		<path style="fill:#442A2C;" d="M382.297,421.995c1,0,1.601,0.6,1.601,1.601V500.4c0,1-0.601,1.6-1.601,1.6h-10.4
			c-1.101,0-1.601-0.6-1.601-1.6v-76.805c0-1.001,0.5-1.601,1.601-1.601H382.297z"/>
		<path style="fill:#442A2C;" d="M434.998,460.798c0,6.7-2.5,11.101-7.3,13.2l6.9,26.202c0.3,1.2-0.301,1.8-1.4,1.8h-10.4
			c-1,0-1.5-0.5-1.7-1.4l-6.7-25.401h-6.9V500.4c0,1-0.601,1.6-1.601,1.6h-10.4c-1,0-1.601-0.6-1.601-1.6v-76.805
			c0-1.001,0.601-1.601,1.601-1.601h25.102c9.4,0,14.4,5,14.4,14.401V460.798z M417.397,461.998c2.6,0,4-1.4,4-4.001v-18.801
			c0-2.601-1.4-4-4-4h-9.9v26.802H417.397z"/>
		<path style="fill:#442A2C;" d="M444.994,423.596c0-1.001,0.5-1.601,1.601-1.601h24.001c9.401,0,14.401,5.101,14.401,14.501V487.6
			c0,9.4-5,14.4-14.401,14.4h-24.001c-1.101,0-1.601-0.5-1.601-1.6V423.596z M467.796,488.799c2.6,0,4-1.3,4-4v-45.503
			c0-2.7-1.4-4.1-4-4.1h-9.2v53.603H467.796z"/>
	</g>
</g>
</svg>
