<?xml version="1.0" encoding="iso-8859-1"?>
<!-- Generator: Adobe Illustrator 15.1.0, SVG Export Plug-In . SVG Version: 6.00 Build 0)  -->
<!DOCTYPE svg PUBLIC "-//W3C//DTD SVG 1.1//EN" "http://www.w3.org/Graphics/SVG/1.1/DTD/svg11.dtd">
<svg version="1.1" id="Layer_1" xmlns="http://www.w3.org/2000/svg" xmlns:xlink="http://www.w3.org/1999/xlink" x="0px" y="0px"
	 width="646.479px" height="414.085px" viewBox="0 0 646.479 414.085" style="enable-background:new 0 0 646.479 414.085;"
	 xml:space="preserve">
<path style="fill:#F15A24;" d="M301.731,282.086c-19.06,11.104-29.5,13.212-82.925,10.776c-22.326-1.02-45.092,49.309-64.583,52.427
	c-5.639,0.901-21.988,1.319-30.747-0.868c-2.065-0.517,10.188-61.785,1.987-59.453c-12.617,3.588-27.703,8.367-30.523,7.634
	c-20.033-5.216-0.637-42.825-0.637-42.825s18.129-66.425,67.051-102.957c48.923-36.529,109.16-47.77,109.16-47.77
	s43.993-51.853,65.855-58.233c21.86-6.38,62.799,7.873,68.914,42.95C411.401,118.845,366.134,244.564,301.731,282.086z"/>
<path style="fill:#FFFABD;" d="M292.302,287.085c0,0-15.677,9.006-36.695,9.557c-13.648,0.355-30.157-10.661-44.021-3.443
	c-20.135,10.482-25.133,25.309-40.6,37.539c-9.785,7.736-25.973,5.394-33.127,3.006c5.6-36.066,12.531-49.271,29.808-61.51
	c17.275-12.238,66.696-29.101,99.99-63.146c21.224-21.7,37.827-93.413,37.827-93.413s25.414-69.387,69.226-64.223
	c49.911,5.885,18.605,97.39,18.605,97.39s-15.945,52.076-38.927,83.527C331.41,263.819,292.302,287.085,292.302,287.085z"/>
<path style="fill:#736357;" d="M430.496,101.356L401.75,112.04c0,0-1.327-0.957-1.565-16.706
	c-0.243-15.897,4.918-12.608,4.918-12.608l12.761,9.738L430.496,101.356z"/>
<path style="fill:none;stroke:#442A2C;stroke-width:12;stroke-miterlimit:10;" d="M301.731,282.086
	c-19.06,11.104-29.5,13.212-82.925,10.776c-22.326-1.02-45.092,49.309-64.583,52.427c-5.639,0.901-21.988,1.319-30.747-0.868
	c-2.065-0.517,10.188-61.785,1.987-59.453c-12.617,3.588-27.703,8.367-30.523,7.634c-20.033-5.216-0.637-42.825-0.637-42.825
	s18.129-66.425,67.051-102.957c48.923-36.529,109.16-47.77,109.16-47.77s43.993-51.853,65.855-58.233
	c21.86-6.38,62.799,7.873,68.914,42.95c0.628,3.594,25.513,11.613,25.095,16.918c-0.226,2.858-25.395,2.462-25.907,5.732
	C396.653,156.294,355.981,250.479,301.731,282.086z"/>
<g>
	<path style="fill:#442A2C;" d="M104.379,233.051c-1.71,3.572-3.219,7.574-4.085,11.395c-0.427,1.912-0.687,3.834-0.602,5.515
		c0.042,0.834,0.175,1.598,0.394,2.189c0.219,0.603,0.491,1.009,0.853,1.332c0.68,0.656,2.23,1.019,4.035,0.899
		c1.8-0.101,3.762-0.554,5.701-1.152c3.897-1.22,7.773-3.007,11.562-4.953l6.529-3.354l-3.304,6.43
		c-1.252,2.437-2.331,5.247-2.907,7.951c-0.573,2.694-0.634,5.551,0.615,7.418c1.182,1.896,3.932,2.68,6.746,2.704
		c2.838,0.045,5.786-0.473,8.676-1.169c5.8-1.435,11.47-3.634,17.031-6.028c5.562-2.414,11.021-5.094,16.418-7.895
		c-5.208,3.141-10.491,6.167-15.92,8.949c-5.437,2.763-10.994,5.348-16.903,7.221c-2.96,0.911-6.01,1.674-9.259,1.837
		c-1.622,0.067-3.31-0.015-5.017-0.51c-1.69-0.479-3.434-1.495-4.602-3.052c-1.185-1.541-1.734-3.389-1.937-5.115
		c-0.205-1.744-0.1-3.431,0.13-5.061c0.235-1.631,0.611-3.208,1.071-4.75c0.473-1.559,0.984-3.01,1.681-4.578l3.225,3.075
		c-3.805,2.268-7.722,4.409-12.03,6.072c-2.164,0.816-4.423,1.53-6.955,1.849c-1.268,0.148-2.611,0.201-4.054-0.015
		c-1.429-0.212-2.999-0.732-4.368-1.736c-1.375-0.991-2.416-2.407-3.034-3.807c-0.635-1.409-0.935-2.804-1.096-4.129
		c-0.301-2.656-0.08-5.098,0.277-7.451c0.37-2.351,0.916-4.609,1.562-6.82c0.659-2.228,1.37-4.332,2.284-6.566L104.379,233.051z"/>
</g>
<g>
	<path style="fill:#442A2C;" d="M133.241,179.325c-5.174,7.257-10.137,14.792-14.553,22.512c-2.188,3.866-4.263,7.807-5.864,11.808
		c-0.784,1.987-1.463,4.033-1.719,5.892c-0.13,0.91-0.104,1.79,0.05,2.244c0.074,0.23,0.141,0.314,0.197,0.375
		c0.056,0.059,0.164,0.137,0.415,0.203c0.498,0.141,1.4,0.113,2.316-0.065c0.928-0.171,1.913-0.466,2.895-0.814
		c1.972-0.706,3.951-1.632,5.901-2.635c3.904-2.02,7.717-4.358,11.471-6.792c7.503-4.892,14.786-10.207,21.973-15.645l8.798-6.657
		l-5.99,9.235c-4.427,6.825-8.662,13.862-12.476,21.05c-1.893,3.601-3.692,7.255-5.159,10.986c-0.723,1.862-1.373,3.757-1.755,5.623
		c-0.186,0.926-0.303,1.858-0.251,2.666c0.026,0.399,0.097,0.764,0.208,1.022c0.113,0.263,0.23,0.405,0.396,0.515
		c0.316,0.236,1.123,0.3,1.972,0.135c0.856-0.153,1.763-0.46,2.656-0.823c1.792-0.738,3.558-1.704,5.285-2.735
		c3.456-2.081,6.786-4.447,10.055-6.892c6.532-4.91,12.828-10.176,19.033-15.54l3.756-3.247l-2.26,4.412
		c-3.699,7.22-7.085,14.681-9.697,22.364c-1.26,3.843-2.398,7.784-2.653,11.764c-0.089,1.948,0.037,4.048,1.13,5.505
		c0.542,0.713,1.347,1.166,2.261,1.333c0.913,0.174,1.898,0.104,2.863-0.076c1.94-0.372,3.827-1.144,5.648-2.012
		c1.824-0.879,3.592-1.888,5.325-2.955c3.465-2.142,6.79-4.518,10.047-6.98c6.506-4.942,12.737-10.247,18.856-15.671
		c-6.012,5.544-12.14,10.972-18.562,16.052c-3.217,2.533-6.505,4.983-9.956,7.212c-1.727,1.11-3.494,2.166-5.337,3.1
		c-1.845,0.922-3.76,1.759-5.836,2.201c-1.035,0.213-2.125,0.324-3.231,0.138c-1.1-0.17-2.212-0.752-2.928-1.667
		c-0.727-0.904-1.087-1.992-1.285-3.049c-0.195-1.064-0.231-2.13-0.199-3.181c0.189-4.207,1.279-8.224,2.48-12.157
		c2.502-7.858,5.749-15.401,9.358-22.804l1.496,1.164c-6.121,5.505-12.335,10.915-18.844,16.012
		c-3.262,2.539-6.59,5.008-10.134,7.239c-1.778,1.107-3.604,2.162-5.596,3.03c-1.001,0.428-2.041,0.815-3.204,1.052
		c-0.583,0.114-1.201,0.19-1.878,0.16c-0.669-0.034-1.434-0.184-2.146-0.618c-0.717-0.423-1.265-1.128-1.556-1.806
		c-0.303-0.685-0.418-1.346-0.475-1.968c-0.099-1.245,0.044-2.37,0.235-3.46c0.403-2.171,1.063-4.189,1.784-6.17
		c1.463-3.948,3.231-7.713,5.088-11.422c3.747-7.407,7.856-14.549,12.234-21.6l2.808,2.578
		c-7.125,5.615-14.355,11.114-21.905,16.251c-3.784,2.56-7.639,5.036-11.726,7.254c-2.049,1.104-4.152,2.146-6.422,3.013
		c-1.139,0.428-2.318,0.815-3.608,1.084c-1.292,0.249-2.697,0.46-4.414,0.088c-0.847-0.192-1.797-0.603-2.582-1.305
		c-0.79-0.694-1.323-1.613-1.608-2.451c-0.562-1.705-0.479-3.149-0.35-4.472c0.322-2.634,1.078-4.916,1.896-7.148
		c1.676-4.433,3.756-8.551,5.938-12.596c4.411-8.068,9.26-15.754,14.436-23.325L133.241,179.325z"/>
</g>
<g>
	<path style="fill:#442A2C;" d="M147.09,163.255c-0.996,1.374-1.938,3.269-2.102,4.558c-0.089,0.666,0.012,0.98,0.106,1.128
		c0.083,0.167,0.464,0.477,1.17,0.694c1.417,0.442,3.465,0.464,5.448,0.294c2.014-0.17,4.083-0.522,6.147-0.957
		c4.137-0.878,8.276-2.083,12.383-3.407c4.108-1.33,8.19-2.798,12.25-4.34l8.272-3.141l-5.624,6.761
		c-4.295,5.163-8.538,10.424-12.051,15.985c-0.862,1.39-1.672,2.805-2.318,4.221c-0.318,0.706-0.6,1.416-0.782,2.084
		c-0.19,0.658-0.254,1.312-0.189,1.622c0.032,0.155,0.053,0.19,0.071,0.214c0.014,0.026,0.083,0.089,0.266,0.154
		c0.369,0.134,1.056,0.172,1.757,0.103c1.433-0.134,3.005-0.563,4.541-1.061c3.091-1.023,6.159-2.375,9.183-3.808
		c3.026-1.439,6.017-2.987,8.984-4.585c5.935-3.202,11.778-6.608,17.574-10.095l9.274-5.58l-7.729,7.549
		c-5.72,5.587-11.247,11.475-16.235,17.73c-2.467,3.142-4.842,6.388-6.657,9.887c-0.876,1.741-1.661,3.593-1.774,5.416
		c-0.048,0.901,0.127,1.764,0.632,2.397c0.498,0.641,1.314,1.054,2.211,1.282c1.816,0.448,3.836,0.325,5.792,0.086
		c1.969-0.255,3.929-0.674,5.871-1.166c3.886-0.992,7.71-2.267,11.494-3.645c7.564-2.774,14.979-5.975,22.322-9.315
		c-7.255,3.53-14.584,6.924-22.099,9.904c-3.761,1.48-7.566,2.862-11.474,3.968c-1.955,0.549-3.936,1.027-5.961,1.345
		c-2.024,0.292-4.108,0.505-6.244,0.046c-1.049-0.239-2.168-0.718-2.952-1.663c-0.794-0.943-1.043-2.192-1.009-3.289
		c0.093-2.232,0.911-4.196,1.779-6.065c1.811-3.72,4.146-7.079,6.571-10.341c4.91-6.494,10.297-12.54,15.969-18.376l1.546,1.969
		c-5.728,3.652-11.51,7.227-17.421,10.619c-2.958,1.693-5.947,3.341-9.004,4.894c-3.062,1.547-6.17,3.023-9.486,4.219
		c-1.67,0.583-3.371,1.124-5.312,1.365c-0.977,0.101-2.024,0.171-3.284-0.192c-0.621-0.188-1.325-0.539-1.892-1.134
		c-0.576-0.586-0.917-1.355-1.062-2.024c-0.275-1.362-0.063-2.432,0.16-3.406c0.241-0.974,0.57-1.851,0.924-2.7
		c0.719-1.687,1.562-3.24,2.445-4.753c3.581-6.002,7.746-11.425,11.974-16.792l2.647,3.62c-4.074,1.669-8.184,3.27-12.36,4.743
		c-4.179,1.468-8.415,2.827-12.81,3.881c-2.201,0.522-4.439,0.97-6.779,1.231c-1.171,0.128-2.367,0.21-3.617,0.192
		c-1.249-0.023-2.552-0.128-3.964-0.52c-0.706-0.203-1.442-0.481-2.185-0.923c-0.737-0.436-1.483-1.058-2.063-1.861
		c-0.584-0.798-0.963-1.745-1.134-2.636c-0.174-0.896-0.169-1.736-0.088-2.504c0.174-1.536,0.623-2.821,1.14-4.012
		c0.54-1.205,1.103-2.237,1.882-3.376L147.09,163.255z"/>
</g>
<path style="fill:#442A2C;stroke:#442A2C;stroke-miterlimit:10;" d="M362.929,81.796l3.474-9.389
	c-1.461-2.757-3.473-4.385-5.387-4.053c-2.972,0.516-4.568,5.621-3.567,11.385s4.215,9.971,7.186,9.455
	c2.431-0.423,4.042-3.321,3.854-8.363L362.929,81.796z"/>
<g>
	<g>
		<polygon style="fill:#442A2C;" points="286.155,331.831 259.155,327.831 245.155,330.331 204.655,362.331 172.155,367.831 
			120.155,356.831 69.163,365.927 43.155,367.353 11.206,358.403 -67.845,376.847 0.936,290.954 61.655,308.831 119.655,313.831 
			173.655,335.331 187.155,334.331 238.155,311.291 265.055,311.131 285.155,317.831 316.932,311.104 319.155,313.831 		"/>
		<polygon style="fill:#6D533A;" points="286.155,331.831 259.155,327.831 245.155,330.331 204.655,362.331 172.155,367.831 
			120.155,356.831 69.163,365.927 43.155,367.353 0.936,380.165 -67.845,376.847 0.936,350.497 43.821,356.165 67.821,357.497 
			80.489,349.831 111.155,345.339 125.655,351.497 162.489,358.165 180.489,356.165 205.155,352.831 244.492,324.183 
			255.859,321.666 265.155,325.162 285.155,328.829 310.488,316.164 319.155,313.831 		"/>
	</g>
</g>
<line style="fill:none;stroke:#442A2C;stroke-width:8;stroke-miterlimit:10;" x1="230.319" y1="293.339" x2="240.504" y2="321.444"/>
<line style="fill:none;stroke:#442A2C;stroke-width:6;stroke-miterlimit:10;" x1="255.106" y1="295.901" x2="258.87" y2="317.577"/>
<path style="fill:none;" d="M256.988,361.331"/>
<g>
	<path style="fill:#442A2C;" d="M243.155,340.831c-1.066-1.5-1.854-3.038-2.575-4.585c-0.711-1.549-1.302-3.113-1.829-4.688
		c-0.507-1.576-0.957-3.16-1.311-4.758c-0.377-1.595-0.661-3.201-0.895-4.815l-0.724-4.997l5.08,0.479
		c1.676,0.158,3.347,0.377,5.008,0.681c1.66,0.321,3.318,0.662,4.962,1.144c1.646,0.466,3.284,1.007,4.909,1.677
		c1.624,0.686,3.241,1.434,4.828,2.483c-1.764,0.716-3.497,1.129-5.224,1.479c-1.726,0.335-3.438,0.541-5.144,0.673
		c-1.707,0.146-3.399,0.153-5.091,0.14c-1.688-0.031-3.369-0.147-5.044-0.323l4.357-4.518c0.208,1.617,0.364,3.241,0.431,4.878
		c0.087,1.634,0.078,3.281,0.014,4.936c-0.086,1.657-0.235,3.323-0.504,5.006C244.125,337.407,243.779,339.1,243.155,340.831z"/>
</g>
<g>
	<polygon style="fill:#442A2C;" points="239.115,318.548 219.131,319.886 236.998,310.833 	"/>
</g>
<g>
	<polygon style="fill:#442A2C;" points="258.155,314.831 246.155,310.831 258.155,306.831 	"/>
</g>
<g>
	<path style="fill:#442A2C;" d="M243.155,319.886c2.033-0.072,3.718,0.341,5.297,0.901c1.565,0.581,2.996,1.35,4.307,2.286
		c1.313,0.934,2.502,2.039,3.556,3.334c1.041,1.313,1.974,2.776,2.556,4.73c-2.037,0.079-3.724-0.333-5.302-0.895
		c-1.565-0.581-2.995-1.351-4.302-2.293c-1.309-0.938-2.497-2.046-3.551-3.34C244.675,323.295,243.741,321.834,243.155,319.886z"/>
</g>
<g>
	<path style="fill:#442A2C;" d="M258.155,313.886c2.033-0.072,3.718,0.341,5.297,0.901c1.565,0.581,2.996,1.35,4.307,2.286
		c1.313,0.934,2.502,2.039,3.556,3.334c1.041,1.313,1.974,2.776,2.556,4.73c-2.037,0.079-3.724-0.333-5.302-0.895
		c-1.565-0.581-2.995-1.351-4.302-2.293c-1.309-0.938-2.497-2.046-3.551-3.34C259.675,317.295,258.741,315.834,258.155,313.886z"/>
</g>
</svg>
