<?xml version="1.0" encoding="iso-8859-1"?>
<!-- Generator: Adobe Illustrator 15.1.0, SVG Export Plug-In . SVG Version: 6.00 Build 0)  -->
<!DOCTYPE svg PUBLIC "-//W3C//DTD SVG 1.1//EN" "http://www.w3.org/Graphics/SVG/1.1/DTD/svg11.dtd">
<svg version="1.1" id="Layer_1" xmlns="http://www.w3.org/2000/svg" xmlns:xlink="http://www.w3.org/1999/xlink" x="0px" y="0px"
	 width="1366px" height="501.699px" viewBox="0 0 1366 501.699" style="enable-background:new 0 0 1366 501.699;"
	 xml:space="preserve">
<g id="Layer_4">
	<g>
		
			<radialGradient id="SVGID_1_" cx="446.074" cy="99.115" r="1014.313" gradientTransform="matrix(1 0 0 -1 262.52 546.0991)" gradientUnits="userSpaceOnUse">
			<stop  offset="0" style="stop-color:#383D21"/>
			<stop  offset="0.3076" style="stop-color:#313522"/>
			<stop  offset="0.7947" style="stop-color:#1C1E23"/>
			<stop  offset="1" style="stop-color:#121224"/>
		</radialGradient>
		<path style="fill:url(#SVGID_1_);" d="M-133.646,44.055L3,30.758l3.483,1.368L9.25,29.45l3.761,2.121l3.739-1.621l2.497,1.089
			l3.298-0.281l7.428,63.102l6.277-0.784l4.386,5.174l6.739-1.174l2.982,5.177l4.018-1.302l7.875,1l1.644,5.875l6.231-0.125
			L75,112.397v32l14,2.031v35.969l4.125-1.823l2.063,3.696l3.062-1.196l2.155,2.774l2.248-0.167l3.419,1.033l2.179-0.641
			l2.381,2.868l2.619-1.618l3.061,3.337l4.189-2.337l1.305,4l3.945-1.75l4.375,3.5l5.354,2.387l18.786,22.041l4.214,1.84
			l2.021-0.905l4.212,3.628l2.038-1.114l2.375,3.04l3.875-1.04l4.034,4.493l4.216,0.382l4.183,3.285l1.317-1.91l4.37,4.393
			l2.88,1.259V257.4l2.029-0.438l2.096-2.136l2.386,1.168l2.114-2.543l4.037,1.215l3.963-4.34l3.139,2.808l3.111-2.933l3.075,1.597
			l2.175-2.597l2.876,1.506l2.874-2.381l2.92,1.129l2.205-2.254l4.375-2.743l5.875,2.618l10.691-2.618l2.662,36.495l5.574,1.819
			l4.072-2.071l3.563,4.565l2.188-1.19l2.899,2.852l2.726-1.26l1.959,2.789l2.416-1.526l3.028,3.305l2.597-1.473l3.081,3.325
			l1.794-0.262l2.875-1.592l2.283,4.124l2.34,0.762v14.277l49.555-14.277l-20.123-11.012l7.525-3.169l3.418,0.01l2.52-2.51
			l3.48,0.51l0.355-2.126l3.52,0.126l0.068-1.637l3.932-0.363l1.847-2.07l3.028,0.445l0.463-1.916l3.287,0.666l-0.364-1.896
			l4.239,0.521l0.795-2.643l4.705,0.268l0.771-2.573l7.354,0.448l1.196-4.05l6.179-1.325l0.823-1.624l3.889-1.637l24.325,56.203
			l-14.975-4.126L426,339.398l7-2.626l3.75,2.626l2.625-1.949l3,1.949l3.002-0.699l1.875,1.698l4.5-0.999l3.125-1.824l3.125,1.824
			l3.75-0.324l0.75-2.302h5.375l0.5-2.698l3.375,1.013l0.625-1.688l3.625-0.502v18.502h12v16h15l0.22,8.697l9.78-7.573l5.505,4.938
			L536,380.43l8-5.019l3.427,0.44L560.5,387.4l8.5-6.004v7.001h9.169L582,385.23l6,3.167l6.169,3.667l3.5-6.834l3.831,3.833
			l3.5-0.666l2.25,1.773l5.25,1.561l-1.427,1.453l3.927,0.88l-0.653,1.7l3.653,2.883l6.669-2.416l-3.063-1.402l5.063-2.431
			l-2.334-0.833l4.168-4.043l3.137,3.591l-1.64,0.952l4.731,2.59l-2.896,1.576l6.166,2.166l0.668-2.332l-2.927-0.254l2.261-5.413
			l-2.668,0.5l2.668-8.501l7.666,5.834l-1.966,0.801l7.134,4.033l-2.35,1.533l3.266,3.799l3.584-1.832l-0.74-0.701l0.529-0.915
			l-2.957-1.384l1.265-0.771l3.442-0.221l-0.296-1.701l2.421,0.201l0.441-1.948l-2.2-1.011l-1.679-0.771l-0.969-0.445l2.78-1.199
			l-1.125-2.375l3.125-1.375l-0.703-2.117l1.703-1.008l0.596-2.979l1.587,1.672l0.567,1.807l1.438,0.307l0.063,2.068l1.646-0.27
			l-0.146,1.645l1.917,0.221l-0.667,1.654l2.668,0.454l0.942,0.994l-2.61,0.302l0.307,0.957L666,387.199l-0.506,2.198l1.006,1.802
			l2.432,0.007l0.568,2.243l3.046-0.342l2.452,1.29l-2.123,1.302l1.25,1.5l-2.375,1.198l2.625,0.177l1.166,1.339l2.462,0.984v1.552
			v1.949h4v-1.699l-1.878-1.625l2.087-1.491l-0.587-1.259l0.862-1.127l-0.427-2.401l-1.069-0.158l-1.613-0.239l2.622-1.823
			l-0.882-2.183l1.882-1.567l-0.843-0.822l1.968-1.178l-0.639-1.881l1.014-2.333l-0.125-2.286l1.401-0.65l-0.901-1.975l2.565-1.854
			l3.56,0.979l-1.254,1.608l4.004,1.392l-1.442,1.482l3.192,0.768l-0.483,2.272l2.858,1.728l0.131,1.627l2.369,0.248l-0.55,1.794
			l2.675,1.331l-1.125,1.75l2.598,1.573l-2.348,0.302l0.066,1.449l1.309,1.709l3.875,0.842l-1.46,2.314l3.335,1.561h-3.875l1,1.824
			l-2.5-0.824l-1.37,0.824l3.167,1.584l0.902,0.451l3.302,0.266l1.129,1.949l2.621,0.676l1.558-1.86l4.067,0.485l1.004-1.927
			l0.423-3.169l4.603-0.813l8.976,2.606l-1.59-1.02l-0.038-1.053l-1.276,0.209l-0.705-0.451l-0.104-0.383l-1.295-0.513l0.505-0.862
			l-1.291-0.865l0.456-0.718l-1.039-0.563l0.207-0.521l-0.763-0.697l0.638-0.719l-0.584-0.5l-0.698-0.2l0.595-0.714l0.646-0.253
			l0.282-0.861l1.177-0.347l-0.274-0.736l0.774-0.389l-0.372-0.959l0.872-0.625l-0.872-0.833l0.83-0.333l-0.83-0.959l0.663-0.541
			l-0.663-0.846l1.83-0.113l-0.091-1.01l1.299-0.198l0.498-0.961l0.877,0.211l0.22-0.918l1.696-0.29l-0.143-0.713l1.518-0.204
			l0.046-0.804l1.454-1.154l-0.215-1.088l1.048-0.579l-0.269-0.829l1.104-0.588l-0.186-1.068l0.893-0.557l-0.204-0.688l1.076-0.202
			l0.962,0.308l1.078-0.689l1.381,0.147l1.521-0.69l1.146,0.274l0.718-0.624l1.2-0.001l0.625-1.042l1.916,0.542l1.441-0.471
			l0.387,0.35l1.463,0.412l-0.213,0.721l1.631,0.446l-0.213,0.838l1.213-0.088l-0.139,1.063l1.43,0.229l-0.314,0.78l1.605,0.72
			l0.337,1.042l1.497,0.124l-0.035,1.202l0.91,0.215l0.272,0.858l1.144,0.059l0.058,1.029l0.276,0.637l-0.675,0.725l0.3,0.484
			l-0.736,1.009l0.111,0.782l-0.582,0.832l0.041,0.627l-0.875,0.625l0.227,0.826l0.314,0.424l0.894,0.004l0.315,0.704l0.963-0.252
			l0.578,1.002l1.686-0.202l0.439,0.91l1.746-0.137l-0.496,0.637l0.569,0.794l-0.486,0.665l0.563,0.834l-0.48,0.916l0.59,1.142
			l-0.582,0.361l-0.299,0.788l-1.583,0.385l0.124,0.449l-1.705,0.537l-0.295,0.504l-1.653,0.711l0.07,0.456l-1.388,0.363
			l-1.737,0.095l-0.202,1.113l7.5-0.75l2.498,2.5l10.745-3.447l-1.098-0.406l0.348-0.78l-1.377-0.248l0.002-0.627l-1.118-0.49
			l1.307-0.572l-0.105-0.869l1.793-0.506l-0.783-0.705l2.408-0.231l-1.292-1.108l1.917-0.642l-1.313-0.688l1.068-0.678l-0.632-0.947
			l-0.938,0.066l0.313-1.129l-1.743,0.01l0.627-0.879l-0.195-0.568l1.083-0.673l-0.333-0.765l1.109-0.323l-0.359-1.239l1.699-0.635
			l-0.574-0.865l1.41-0.306l-0.285-1.007l1.243-0.335l-0.182-0.604l1.132-0.728l-0.193-0.71l0.929-0.319l0.39-0.546l-1.692-0.01
			l0.93-0.785l-1.122-0.148l0.942-0.379l-0.938-0.75l1.438,0.063l-0.011-1.066l1.636-0.184l-0.024-0.813l1.649-0.124l-0.455-0.614
			l2.518-0.197l-0.749-0.896l2.188-0.541l-0.49-0.699l1.684-0.854l1.744,2.178l-1,0.188l1.783,1.247l-0.471,0.878l1.714,0.896
			l-0.651,0.791l1.914,1.013l-0.414,1.426l1.658,0.352l-1.596,0.773l1.021,0.746l-1.459-0.121l-0.355,0.802l-1.332-0.302
			l1.438,1.188l-0.563,0.938l1.438,0.25l-0.75,1.25l1.313,0.313l-0.5,1.063l2,0.813l-1.688,0.875l0.655,1.498l-1.468-0.248
			l0.094,0.937l-1.156-0.748l-1.563,0.563l1.813,1.25l-0.741,0.898l1.741,0.539l-0.007,0.85l1.944,0.65l-0.295,0.67l0.738,0.59
			l-1.131,0.428l0.5,1.375l-1.438,0.125l0.375,1.063l-1.688,0.375l0.813,0.938l15.067,6.697l18.5-5l-0.506-0.822l-2.219-0.086
			l0.844-1.164l-2.619,0.572l2.119-1.447l1.125-1.625l-0.854-1.438l2.729-2.062l-1.033-1.144l0.783-1.856l-2.022,0.741l-1.478-1.741
			l-1.869,1.072l0.483-1.451l-0.864-0.621l2.027-2.865L829,386.574l1.992-3.134l-0.742-0.741l1.891-2.703l-0.891-0.547l1.757-2.053
			L832,377.199l-1.7,1.212l-1.293,0.485l1.993-2.728l0.104-2.034l-0.354-1.562l1.875-1.89l-1.25-1.61l2.801-1.908l1.331-3.02
			l1.245,0.872l3.498,0.931l-0.402,1.234l3.152,1.141l-0.289,0.864l2.539,0.917l-0.065,0.814l1.69,0.028l1.131,1.947l0.244,1.053
			l-2.373,0.772l-1.371,1.175l4.369,0.928l-0.152,1.552l2.777,0.073l0.122,1.634l1.384,0.813l-0.006,1.93l-2.625,0.616l-0.868,2.956
			l3.243-0.447l1.256,1.396l2.869-0.896l-0.211,1.455l1.211-0.705l-0.125,1.5l1.349,1.023l-3.224,0.977l-1.868,3.697l5,1l14-23l-5,1
			l4.5-21.666l2.946,0.001l1.158,1.49l2.639-0.62l0.38,1.714l2.712-0.491l2.408,1l0.775,1.633l3.663-0.758l0.812,1.25l0.511,1.316
			l3.614-0.566l0.882,2.197l1.868,1.928l-1.868,1.125v1.447l2.618-1.197l1.125,1.158l3-1.158l1.375,1.112l2.5-1.237l1.748,1.193
			l3.002-1.943l2.028,1.893l6.604-0.069v-7.75l-4.75-2.5l0.625-11c0,0,1.563-8,4.563-8c1.198,0,9.648-1.596,13.058-3.512
			c5.125-2.882,5.475-6.488,5.475-6.488l3.417,2.825l9.108,1.478l-2.24,4.201l4.229,3.497l17.517-8.5h-5l5-6.25
			c0,0-2.5-3.626-5-5.126s8-8.063,8-8.063l-2.5-5.529c0,0,3.49-1.216,6.185-2.37c1.256-0.538,2.339-1.063,2.815-1.444
			c0.417-0.334,2.459-1.232,5.188-2.357c3.67-1.512,12.306-8.408,12.306-8.408l6.506,1.057l0.91,1.963l-0.916,3.582l4.5-1
			l0.006,5.153l5-7.204l4,7.201l18.401-18.865l-5.827-7.707l5.543-15.465l9.877-0.005l5-6.708l9,6.702l7.5-6.702l7.231,6.694
			l5.939-3.179l15.334,3.17v-44.14l-16.845,3.94l9.79-56.3l12.028,0.591l4.52-4.93l6.277,5.461l6.223,0.307l4.734,7.154l6.766-8.753
			l5,7.316l16.014,2.512l-4.014,6.504l5.5,3.5l-6.396,5.033l-1.061,3.247l7.688,1.063l15.771-1.345l2.025,3.809l6.378,0.884
			l13.097-3.192l2.451,5.345l6.604,0.915l-4.349,4.457l1.291,6.283l-10.657,3.32l3.157,4.18l-11.966,4.85l10.426-0.403l10.041-4.445
			l5.514,3.842l13.986-6.678l4.668,5.954l8.332-5.954l4,5.477l5,2.359l-5,9.5v5.199l14.813-14.493l-5.75-48.506H1223l30.063-82.073
			l11.565,2.26l12.87-1.719l6.171,5.439l5.378,1.051l9.952-2.158l7.392,5.546l11.227-4.546l10.382,8.769l7.5,8.731l-2.988,9.501
			l1.549,6.26l17.999-24.587l-17.999-7.87L1352.058,0l58.497,42.228l41.998,470.743l-1595.919,20.998L-133.646,44.055z"/>
		<g>
			<polygon style="fill:#485121;" points="-43,103.842 0,55.897 4,55.231 3.5,51.996 8.167,50.731 5.791,49.44 9.833,48.231 
				9.122,45.727 14.333,44.731 11,43.632 14.333,42.231 13.064,41.33 15.833,40.064 15.099,39.062 20,38.397 16.959,36.986 
				20.667,35.231 19.286,34.393 22.545,30.758 23,33.397 26,36.46 23.826,37.502 26.75,37.897 24.75,40.897 25.5,43.272 
				24.358,46.164 26.25,48.522 25,51.617 29.25,52.022 26.75,55.647 29.125,56.272 26.025,60.328 29.375,61.772 26.627,65.441 
				30,66.397 27.065,69.161 30.375,71.147 27.74,74.897 29.875,77.272 28.294,79.604 30.375,82.022 28.517,83.913 31.75,86.147 
				29.077,87.743 31.75,90.647 29.696,91.976 29.972,93.857 30.167,98.064 20.5,97.064 19.205,101.038 13,101.731 12.899,104.871 
				6.167,104.731 4.681,108.898 -29,125.397 			"/>
			<polygon style="fill:#485121;" points="75,112.207 73.736,114.702 72.625,116.898 72.875,120.022 70.176,121.733 70.625,123.772 
				68.32,125.397 68.626,128.026 67.489,130.271 67.25,132.022 64,133.927 64.875,135.147 59.627,135.872 61.875,137.397 
				53.597,138.554 54.5,140.147 51,141.772 50.875,143.147 45.798,143.64 47.625,146.429 45.347,147.56 47.75,150.022 
				44.125,152.147 49.25,153.522 45.125,155.647 51.75,158.272 46.25,160.522 46.75,162.772 42.5,163.522 45.875,165.772 
				40.768,169.227 43.375,170.272 41,172.272 37.539,172.045 37.713,174.772 33.479,173.642 31.798,174.297 31.008,174.605 
				28.998,175.386 31.469,175.913 34,175.147 35.406,176.752 40.125,174.897 40.103,177.753 44.125,176.647 44.969,178.791 
				47.5,177.647 49.931,179.849 52.375,178.272 56.001,181.143 56.5,179.022 60,181.995 59.77,179.646 61.375,175.522 
				58.562,172.129 60.5,171.147 58.612,167.786 61.25,167.022 58.064,162.178 59.625,162.272 58.706,160.465 62.625,160.147 
				62.328,157.711 65,158.522 64.518,156.046 68.375,156.522 68,153.397 70.25,152.397 68,149.522 69,148.397 68,144.397 
				71.018,144.562 71.375,143.272 75,144.778 75,142.398 77.875,142.398 75,138.71 76.75,137.929 75,134.037 76.75,132.781 
				75,128.281 76.75,127.149 75,122.273 76.75,121.148 75,117.772 76.75,116.022 			"/>
			<polygon style="fill:#485121;" points="91.5,180.647 89,182.397 86.625,179.522 83.861,182.397 82.988,181.269 81.25,179.522 
				78.103,181.753 75.597,182.001 79.625,179.022 78.208,177.391 82,175.272 80.975,172.508 83.861,170.522 82,167.147 
				83.861,164.413 82,162.397 83.861,161.397 83.59,159.503 87.625,159.022 85.381,157.771 89,146.429 89,153.772 90.625,157.647 
				89,160.773 92.125,166.398 89.5,166.398 91.125,171.273 88.875,172.897 92.125,177.522 88.862,179.164 			"/>
			<polygon style="fill:#485121;" points="68.219,196.761 75,201.731 72.62,204.088 78.333,207.731 75.598,209.047 80.667,212.731 
				78.979,214.679 84,217.731 82.361,220.31 82.299,224.427 84.667,229.398 72.518,231.23 68.322,235.885 82.299,239.731 
				73.336,243.078 82.299,246.398 78.501,250.248 86,255.064 86,260.766 94.333,269.731 90,271.064 94.333,277.064 90,280.398 
				90,284.397 86.518,286.927 82,281.398 82,287.398 77.379,287.398 75,282.398 70.335,288.247 69.333,281.064 64.681,286.957 
				61,280.398 48,281.398 54.944,277.588 50,273.731 57,273.238 58.667,267.398 52,267.398 48,267.398 52,264.83 62,262.398 
				60.668,259.556 67.667,254.732 61.764,253.509 62.667,248.398 57.938,246.584 60.333,242.504 54.252,239.921 52,235.849 
				59.333,234.064 58.106,231.549 67.667,227.731 64,227.397 64.255,224.427 69.667,220.731 64.864,217.34 67.354,215.425 
				71.167,214.398 68.832,210.413 71.167,207.731 68.533,203.744 			"/>
			<polygon style="fill:#485121;" points="136,196.398 129.333,196.398 127.375,198.148 119.333,200.397 117.875,203.897 
				109.719,203.455 109.5,205.648 105.5,204.522 99.92,199.369 98.75,201.648 90,196.761 91.634,200.745 97.875,206.147 
				98.625,209.147 103.875,210.647 105.125,212.897 107.875,211.647 109.532,218.168 113,214.647 118.75,218.897 116.625,214.272 
				121.77,214.647 120.125,210.397 125.5,214.397 129.625,212.272 131,217.397 133,214.272 136.667,217.397 140.125,215.647 
				143.817,218.113 148,216.897 150.866,219.435 155.539,219.06 151.898,215.476 151.375,212.772 147.554,210.262 148.25,206.897 
				142.069,203.68 141.75,200.523 			"/>
			<polygon style="fill:#485121;" points="194,235.849 191.282,236.788 190.667,241.397 182.98,242.033 184,247.73 175.632,246.676 
				179.667,250.063 169.875,250.313 176.283,253.462 181,254.063 178,257.563 175.752,258.385 171.929,259.781 181.333,269.982 
				175,266.897 173.333,269.982 172,272.063 176,274.73 172,280.063 177.333,284.063 172,287.063 174.333,289.927 172,294.73 
				172,297.397 175.294,292.397 176.667,287.397 181,283.735 190,283.73 189.847,279.104 187,276.897 192.5,274.898 188,267.398 
				189.664,267.398 188.333,261.398 195,263.397 194,257.397 197,254.73 194.333,250.397 199.333,249.063 194,244.456 197,240.73 
							"/>
			<polyline style="fill:#485121;" points="251,245.397 248.5,248.731 250.25,250.696 251.5,254.064 249.6,255.293 251,258.898 
				248.758,261.244 249.667,265.564 247.946,266.983 249.667,272.231 247.12,272.821 248.5,276.731 246.525,277.021 244.5,278.398 
				246,280.735 247.283,282.399 250.333,283.564 248.502,283.981 252.333,286.564 251.331,287.651 255.167,289.898 255,292.413 
				253.333,294.397 250.219,293.468 249.667,295.12 245.333,295.898 250.167,298.231 248.5,298.287 251.833,300.731 
				250.667,304.064 255.5,304.731 255,308.397 253.333,309.655 246.5,308.367 246.833,311.398 240.167,311.398 239.833,313.768 
				236,313.67 237.333,316.731 247,317.232 246.167,320.564 251.118,320.797 261.631,325.969 262,329.398 269,329.398 
				270.271,326.336 272,325.147 272,322.231 269.669,319.653 272,317.897 265.943,315.174 268,313.767 261.662,309.655 
				259.167,304.413 263.166,301.064 261.333,295.12 257.804,288.759 264.167,287.064 257.307,283.052 254.5,282.397 262,279.647 
				256.253,276.158 259.5,275.397 255.584,266.982 258.667,264.813 255.535,262.791 260,260.731 255.013,256.762 256.833,255.565 
				254.533,251.247 257.167,249.398 254.167,247.049 253.941,244.456 			"/>
			<polygon style="fill:#485121;" points="300,295.398 294.985,295.398 290.333,294.353 289.057,297.398 285.667,297.398 
				285.084,298.508 282,299.413 287.833,301.23 285.667,303.348 284.635,304.079 287.333,304.897 286.17,306.802 288.833,308.397 
				288.101,310.222 298.167,312.397 295,313.767 292,312.23 291,313.767 288.637,312.985 288.667,313.767 286.674,315.485 
				290.833,315.564 290.607,317.342 295.167,316.231 292,318.064 298,318.23 298.123,322.346 299.358,323.909 301.167,323.231 
				301.833,324.731 304,325.398 306.135,328.128 308.167,327.397 308.167,327.397 313.667,329.231 309.248,324.58 307,323.23 
				310,321.397 302.667,317.23 303.379,315.586 300,312.23 302.263,311.404 300,308.23 302,307.063 300,304.563 301.667,303.347 
				300,300.563 301,298.563 300,297.039 			"/>
			<polygon style="fill:#485121;" points="329.431,283.979 332.874,282.398 337.667,282.398 336.167,284.602 338.875,287.207 
				341.011,286.569 342.893,288.381 346.566,287.789 348,291.227 351.267,290.23 352.876,291.359 350.979,293.284 349.553,295.12 
				346.78,293.602 344.375,293.147 343.485,291.799 340.125,291.648 339.495,289.398 337.5,289.398 336.373,287.799 334.5,288.468 
				332.75,286.055 			"/>
			<polygon style="fill:#485121;" points="342.893,297.039 332.934,300.445 330.5,303.347 326.538,302.635 324.75,304.772 
				321.446,304.374 320,305.647 316.513,306.061 316.875,308.772 311.5,307.774 309.875,309.022 306,309.655 304.25,308.772 
				301.747,309.473 300,309.397 303,307.272 307.754,307.163 310.375,306.148 313.125,304.398 317.354,304.398 319.25,300.648 
				322.125,302.147 322.308,303.002 324.75,301.523 326.234,301.847 332,298.772 			"/>
			<polygon style="fill:#485121;" points="476.168,332.564 474.212,335.387 474.5,338.398 472.13,338.398 471.588,339.373 
				471.686,342.398 469.677,342.398 467.334,346.023 463,346.565 464.674,347.989 466.584,348.566 466.084,349.981 468.959,351.397 
				468.918,349.481 474.834,352.397 473.834,350.398 476.574,352.171 478.793,352.689 478.312,351.397 480.5,351.148 
				478.75,350.064 477.5,348.397 480,346.313 476,342.606 476,342.606 477.76,342.071 480,339.575 477,337.735 			"/>
			<polygon style="fill:#485121;" points="488,351.397 486.741,354.021 486.75,355.898 485.418,356.314 486.584,358.314 
				484.596,358.49 485,359.731 484.016,360.898 484.918,362.314 484.016,362.898 484,364.731 483.028,364.196 482.834,365.064 
				481.168,364.564 480.806,366.386 479.418,367.064 480,368.064 488,367.397 488,366.731 489.5,365.564 489.584,363.731 
				488,363.203 488.918,361.564 490.25,360.898 489,359.094 488.601,357.921 489.75,357.898 488.834,356.481 489.5,355.398 
				490,354.314 488,353.814 			"/>
			<polyline style="fill:#485121;" points="503.01,368.064 502.219,368.272 502.743,368.905 502.598,369.366 502.25,370.469 
				501.541,371.065 502.168,372.231 501.084,372.754 501.541,374.398 499.418,374.398 500.25,375.398 499.418,377.065 
				501.25,377.397 501.219,376.648 503.918,377.397 503.219,376.096 504.344,375.225 503.406,374.356 503.875,373.929 
				504.875,373.679 503.168,372.065 504.084,370.898 503.938,370.272 504.668,370.022 503.635,369.259 503.938,368.772 503,367.397 
							"/>
			<polygon style="fill:#485121;" points="513,368.522 513.257,369.101 513.281,369.804 514.344,370.212 513.875,371.022 
				515.406,371.616 515.41,372.267 515.188,372.962 516.75,373.42 516.834,374.398 518.281,374.398 518.736,375.086 
				518.506,376.022 520.848,375.852 520.5,376.338 521.906,376.804 523.246,376.738 522.688,377.616 525.351,377.519 
				526.031,378.337 527.188,378.481 525.334,379.398 532,379.398 536,380.43 534.729,379.48 534.479,378.563 533.125,378.754 
				532.625,378.337 532.294,377.397 531.072,377.865 530.854,377.48 530.75,377.17 529.825,377.224 529.669,376.897 
				529.313,376.438 528.33,376.453 528.125,375.962 527.148,375.846 527.391,375.413 526.01,375.26 525.479,375.314 525.26,374.874 
				525.294,374.379 524.567,374.518 524.5,374.189 523.604,374.272 523.175,373.802 523.334,373.212 522.021,373.207 
				521.479,373.272 521.038,372.701 520.794,371.795 519.608,371.968 518.753,371.842 518.298,371.606 517.756,371.013 
				517.875,370.629 516.609,370.426 515.919,370.355 515.651,369.932 515.332,369.768 515.419,369.48 514.4,369.288 
				514.188,368.804 			"/>
			<polygon style="fill:#485121;" points="544,375.398 545.044,376.48 545.947,376.713 546.709,377.855 548.919,378.189 
				549.25,379.272 551.125,379.897 551.709,381.105 552.834,382.105 553.609,382.204 553.875,383.23 555.039,383.359 
				555.669,384.313 556.875,384.563 560.5,387.401 558.5,385.397 558.584,384.688 557.581,384.823 557.834,384.147 556.73,384.007 
				556.625,383.272 555.284,382.821 555.625,382.105 553.729,381.312 553.544,380.605 552.455,380.077 552.75,379.063 
				551.075,378.74 549.669,377.772 549.301,377.019 548.419,376.729 548.125,375.846 546.834,375.773 545.669,375.398 			"/>
			<polygon style="fill:#485121;" points="569,381.397 568.491,382.711 568.625,383.105 568.044,383.869 568.084,384.647 
				567.408,385.505 567.75,385.98 566.959,386.663 567.209,387.063 566.674,387.401 566.919,387.98 566.125,388.813 
				567.064,388.678 567.813,388.313 568.794,389.063 569,388.397 569.5,387.23 569,386.355 569.5,385.813 569.25,385.105 
				569,384.48 569.5,383.897 569,383.105 569.294,382.522 			"/>
			<path style="fill:#485121;" d="M138,196.761"/>
			<path style="fill:#485121;" d="M503.017,368.064"/>
			<g>
				<polygon style="fill:#485121;" points="426.379,336.259 425.125,336.147 424.375,336.772 423,336.272 421,336.397 421,336.772 
					419.281,335.397 418,334.765 415.375,333.773 416,333.398 417,333.398 418.375,333.398 421,335.397 421,334.397 
					424.352,336.194 422.953,334.491 425.467,335.562 425.25,335.397 428,332.564 424.75,331.272 425.5,329.647 422.875,328.897 
					422.147,327.057 420.517,325.927 421.375,324.61 416.619,322.829 414.561,321.635 415.375,319.772 411.005,318.366 
					412.375,317.022 409,316.772 409,314.23 404.362,312.502 403.151,311.186 401.73,309.655 402.186,312.013 402.616,314.236 
					405.25,316.897 403.374,318.157 405.5,320.897 405.197,322.464 407.75,323.272 408.5,325.397 410.5,327.147 410.473,329.029 
					411.29,331.345 410.892,332.174 410.75,334.272 407.5,334.022 405.338,332.84 403.504,333.058 404.292,334.272 401.972,334.082 
					402.137,335.456 400.25,336.147 401.29,336.844 405.125,337.647 404,338.652 407.875,337.647 409.118,338.859 412.375,337.522 
					413.874,339.053 416.25,338.698 417.992,339.22 419.875,337.897 423.998,339.466 426.875,340.397 430.5,339.397 				"/>
				<polygon style="fill:#485121;" points="427.281,336.337 425.467,335.562 426.379,336.259 				"/>
				<polygon style="fill:#485121;" points="424.352,336.194 421,334.397 421,335.397 418.375,333.398 417,333.398 416,333.398 
					415.375,333.773 418,334.765 419.281,335.397 421,336.772 421,336.397 423,336.272 424.375,336.772 425.125,336.147 
					426.379,336.259 425.467,335.562 422.953,334.491 				"/>
			</g>
			<path style="fill:#485121;" d="M478.969,351.397"/>
			<g>
				<polygon style="fill:#485121;" points="416.611,313.101 416.132,312.255 417.25,310.772 414.838,308.69 415.375,307.647 
					413.25,305.897 413.999,303.347 411.569,301.186 413.996,298.522 409.479,296.399 408.601,294.401 410.463,293.022 
					406.587,289.901 407.354,287.397 404,284.461 404,281.897 401.7,278.842 402.875,275.397 399.26,272.9 399.25,271.022 
					397.45,268.743 399.125,265.897 396.625,264.522 394.973,263.052 395.75,261.397 393.52,259.714 392.583,257.563 
					392.248,259.173 392.079,259.986 391.604,262.268 391.333,263.564 392.333,265.993 393.875,268.397 392.125,271.272 
					395.133,272.796 393.875,276.147 396.917,277.13 395.75,281.522 402.125,283.647 400.25,285.229 399.25,286.772 
					401.574,288.443 400.25,291.647 401.75,294.397 406.375,296.147 405.646,298.337 407,300.147 406.375,302.772 409.25,302.022 
					408.5,304.772 410.725,305.922 409.75,309.398 413.875,309.398 416.788,313.768 				"/>
				<polygon style="fill:#485121;" points="390.672,290.232 389.667,290.491 387.5,291.897 388.583,293.347 388.292,296.397 
					385.625,296.772 382.875,297.23 385,299.655 388.292,300.323 390.875,299.022 393.5,300.772 395.125,300.272 396.188,302.302 
					401.048,304.153 398.94,301.326 397.977,300.034 398.875,298.647 395.86,297.193 396.375,295.772 393.776,294.397 
					394.125,293.022 391.96,291.96 				"/>
			</g>
			<polygon style="fill:#485121;" points="131.81,262.957 139.643,267.722 135.745,268.52 142.778,276.411 139.101,278.021 
				132.988,284.974 132.319,287.034 129.847,294.643 141.236,295.188 131.901,301.268 140.082,309.532 137.158,313.139 
				139.005,320.397 133.101,320.232 124.566,320.614 118.946,316.338 118.691,310.646 106.43,306.313 111.541,299.213 
				119.117,297.466 111.579,290.461 117.134,286.308 111.086,281.188 128.505,277.734 126.182,270.32 127.108,267.468 
				119.294,265.63 120.735,261.191 106.16,257.509 121.207,256.503 113.882,251.877 126.044,252.401 126.637,247.337 
				130.482,253.844 137.189,258.071 136.229,260.967 			"/>
			<polygon style="fill:#485121;" points="915,339.397 916.241,338.377 916,335.647 918.841,335.089 924.427,338.352 
				925.609,341.398 929,341.398 929.582,342.508 932.666,343.413 926.832,345.23 929,347.348 930.031,348.079 927.332,348.897 
				928.496,350.802 925.832,352.397 926.565,354.222 923.697,354.897 924.75,356.897 920.5,359.147 923.697,359.522 
				926.666,357.767 929.666,356.23 930.666,357.767 933.029,356.985 933,357.767 934.992,359.485 930.832,359.564 931.059,361.342 
				926.5,360.231 929.666,362.064 923.666,362.23 928,364.405 923.697,365.213 924.875,366.398 921.625,366.398 921.875,368.398 
				920.125,370.116 918.625,368.134 916.723,369.348 918.75,366.894 915.032,366.817 919,364.146 913.771,364.202 919,361.23 
				918.287,359.586 919,357.934 912.403,355.404 914.316,352.72 912.666,351.063 914.666,348.563 913,347.347 914.666,344.563 
				913.834,342.563 915,341.039 			"/>
			<polygon style="fill:#485121;" points="872.5,351.731 869.711,355.873 869.918,358.566 868.048,359.302 869.927,362.052 
				867.094,362.508 867.802,364.247 866.509,366.021 867.945,367.964 866.715,368.892 868.75,371.064 866.425,370.896 
				866.334,373.064 864.084,372.397 864.834,374.73 863.927,376.17 867.668,375.814 869.75,373.564 872.884,374.937 
				872.818,373.979 874.855,372.152 874.789,369.514 872.461,368.921 873.608,366.474 875.453,365.381 873.472,362.917 
				872.782,361.275 874.427,361.13 872.969,359.188 873.811,357.565 874.416,355.961 872.168,355.564 			"/>
			<polygon style="fill:#485121;" points="868.178,371.812 872.146,372.783 876.299,372.889 876.767,375.658 879.64,376.361 
				879.909,377.393 882.342,378.779 877.03,379.063 878.441,381.256 879.168,382.07 876.717,382.183 877.319,383.989 
				874.739,384.752 874.993,386.402 866.025,386.103 868.434,387.886 871.285,387.245 871.823,388.718 873.983,388.563 
				873.802,389.2 875.144,391.027 871.603,390.229 871.437,391.736 867.798,389.88 870.11,392.045 864.992,390.935 864.059,394.295 
				862.698,395.323 861.302,394.39 860.434,395.484 858.467,395.586 856.105,397.385 854.531,396.363 854.531,396.363 
				857.168,395.064 854,394.397 856.358,393.178 856.248,391.701 857.549,390.141 861.239,389.144 860.969,387.642 864.508,385.587 
				862.756,384.437 865.311,382.298 863.851,380.923 866.051,379.28 864.884,377.935 866.854,375.991 866.552,374.175 
				867.847,373.162 			"/>
			<polygon style="fill:#485121;" points="1252.696,89.867 1246.806,95.867 1249.535,97.809 1244.483,102.326 1247.396,103.183 
				1242.987,107.637 1244.969,109.286 1240.507,113.109 1242.537,115.39 1242.041,119.413 1236.834,125.398 1238.894,128.008 
				1230,133.063 1223.732,139.063 1225.445,143.59 1223.732,147.547 1231.195,149.023 1224.668,154.398 1228.475,156.45 
				1219.668,163.564 1224.186,168.161 1219.668,176.064 1233.104,176.726 1229.673,183.366 1234.362,185.978 1235.01,189.924 
				1238.853,191.858 1243.313,190.373 1236.668,201.064 1242.834,203.064 1245.01,204.691 1241.834,213.398 1246.668,213.398 
				1244.168,218.199 1246.813,219.903 1240.168,224.064 1242.05,224.566 1236.002,228.064 1237.649,228.87 1234.002,230.564 
				1234.896,231.564 1230.334,234.064 1233.002,235.064 1233.468,233.156 1236.668,234.231 1235.914,231.127 1238.834,231.231 
				1238.82,228.716 1242.002,229.231 1241.156,226.986 1245,227.398 1245,225.398 1245.082,223.73 1247.127,224.731 
				1249.19,223.768 1250.365,225.398 1252.683,222.731 1256.51,224.064 1257.007,220.731 1262.171,219.564 1258.617,212.303 
				1262.502,212.398 1269.002,213.397 1265.399,206.678 1271.028,208.564 1269.699,203.112 1265.834,198.564 1267.021,194.61 
				1258.002,191.898 1268.064,190.085 1263.668,184.564 1272.972,185.786 1273.168,176.898 1286.502,178.898 1281.104,173.532 
				1278.518,168.038 1285.098,166.963 1289.047,166.317 1284.683,164.428 1274.424,163.643 1275.277,160.622 1267.594,156.99 
				1273.221,154.831 1276.666,150.397 1270,146.73 1275.666,142.397 1265.018,137.063 1256,139.063 1257.666,129.73 
				1268.289,122.568 1258.236,120.344 1261.802,119.422 1261.071,116.531 1255.135,113.758 1259.327,109.636 1256.56,108.147 
				1252.634,107.75 1254.293,103.439 1251.557,101.17 1253.513,96.81 			"/>
			<polygon style="fill:#485121;" points="1087.696,160.867 1081.806,166.867 1084.535,168.809 1079.483,173.326 1082.396,174.183 
				1077.987,178.637 1079.969,180.286 1075.507,184.109 1077.537,186.39 1078.264,190.442 1076.729,195.73 1081.505,198.094 
				1080,204.063 1073.732,210.063 1075.445,214.59 1073.732,218.547 1083.117,220.403 1081,225.73 1091.012,225.34 1084.224,231.33 
				1085.143,236.956 1078.529,247.122 1083.104,247.726 1079.673,254.366 1084.362,256.978 1085.01,260.924 1088.853,262.858 
				1092.421,256.674 1093.387,262.594 1098.277,261.795 1099.818,256.478 1105.365,261.497 1105.195,254.247 1110.737,259.311 
				1113.313,252.245 1126.304,251.135 1118.838,248.494 1123.094,243.891 1116.104,244.532 1113.518,239.038 1120.098,237.963 
				1124.047,237.317 1119.683,235.428 1109.424,234.643 1110.277,231.622 1102.594,227.99 1108.221,225.831 1111.666,221.397 
				1105,217.73 1110.666,213.397 1100.018,208.063 1091,210.063 1092.666,200.73 1103.289,193.568 1093.236,191.344 
				1096.802,190.422 1096.071,187.531 1090.135,184.758 1094.327,180.636 1091.56,179.147 1087.634,178.75 1089.293,174.439 
				1086.557,172.17 1088.513,167.81 			"/>
			<polygon style="fill:#485121;" points="1352,0.064 1348,4.731 1350.962,5.854 1348.746,8.847 1346.293,12.062 1347.44,15.029 
				1345.396,18.021 1346.577,21.911 1346.026,25.563 1346.319,28.258 1343.313,31.893 1344.676,33.528 1339.072,35.854 
				1342.057,37.624 1333.225,41.314 1334.735,43.504 1331.361,46.776 1331.662,48.879 1326.176,50.814 1329.094,54.588 
				1326.924,56.829 1330.382,59.976 1327.025,64.032 1333.162,64.899 1329.256,69.072 1337.457,71.47 1332.06,76.155 
				1333.334,79.43 1328.848,81.56 1333.317,84.156 1328.74,90.564 1331.972,91.526 1329.97,95.102 1326.051,95.573 1327.112,99.643 
				1322.046,98.935 1320.386,100.315 1319.604,100.969 1317.618,102.617 1320.533,102.83 1323.104,101.081 1325.18,103.168 
				1329.834,99.263 1330.719,103.573 1334.841,100.96 1336.462,103.994 1338.91,101.675 1342.314,104.42 1344.529,101.47 
				1349.477,104.943 1352.075,103.686 1354.194,105.288 1353.189,101.799 1353.659,95.209 1349.449,90.754 1351.291,88.818 
				1348.12,84.196 1350.811,82.424 1345.723,75.872 1347.488,75.647 1345.89,73.139 1350.147,71.739 1349.041,68.136 
				1352.269,68.731 1350.941,65.111 1355.385,64.922 1353.97,60.3 1356.152,58.264 1352.734,54.459 1353.486,52.529 1351.1,46.734 
				1354.508,46.271 1354.357,44.274 1358.734,45.719 1358.061,42.531 1361.525,41.797 1357.111,36.715 1358.786,35.026 
				1355.592,29.522 1357.131,27.191 1353.746,20.807 1355.329,18.685 1351.828,11.744 1353.414,9.633 1352.5,6.064 1354.334,4.397 
							"/>
			<polygon style="fill:#485121;" points="1341.116,135.353 1338.116,135.915 1337.141,132.315 1336.375,130.272 1333.107,132.404 
				1334.25,130.272 1333.604,126.626 1334.683,126.535 1334.891,123.594 1338.341,122.978 1338.037,119.135 1340.861,117.413 
				1339.998,114.809 1342.106,114.666 1342.642,112.829 1346.515,114.058 1344.988,111.99 1352.969,103.154 1349.935,109.844 
				1349.814,114.044 1347.047,116.219 1347.568,122.632 1345.178,121.549 1344.645,126.659 1341.927,127.211 1342.976,132.765 
				1339.326,132.913 			"/>
			<polygon style="fill:#485121;" points="970.552,303.542 979.146,306.783 977.5,309.272 974.767,309.658 977.64,310.361 
				977.909,311.393 980.342,312.779 975.03,313.063 976.441,315.256 977.168,316.07 974.717,316.183 978.75,317.465 977.75,318.897 
				977.755,320.261 973.025,320.103 975.434,321.886 978.285,321.245 978.823,322.718 980.983,322.563 980.802,323.2 
				982.144,325.027 978.603,324.229 978.437,325.736 974.798,323.88 977.11,326.045 971.992,324.935 971.059,328.295 
				969.698,329.323 968.302,328.39 967.434,329.484 965.467,329.586 963.105,331.385 961.531,330.363 961.531,330.363 
				964.168,329.064 961,328.397 963.358,327.178 963.248,325.701 964.453,324.141 969,323.147 969,321.022 966.969,318.712 
				963.141,317.465 965.664,314.462 965.841,311.923 968.369,311.587 966.881,308.935 968.854,306.991 968.552,305.175 
				969.847,304.162 			"/>
			<polygon style="fill:#485121;" points="1035.5,257.563 1031.641,258.385 1033.436,259.693 1030.496,260.676 1030.563,261.563 
				1028.906,262.634 1029.438,263.685 1026.875,264.481 1027.315,265.807 1026.62,269.897 1029.5,270.772 1027.375,273.647 
				1030.149,274.671 1028.177,277.923 1030.375,279.022 1026.62,281.647 1027.5,283.095 1023.647,283.947 1027.923,285.596 
				1023.987,286.882 1023.355,289.409 1015.739,291.479 1017.552,292.561 1014.907,294.727 1016.403,296.672 1015.961,298.446 
				1017.224,299.954 1021.25,298.272 1019.177,300.664 1021.373,301.216 1022.981,299.26 1024.402,302.372 1025.643,299.299 
				1027.053,302.427 1029.412,299.927 1035.066,301.812 1032.409,299.351 1035.03,298.189 1031.979,297.193 1031.89,294.419 
				1034.846,295.159 1036.62,295.603 1035.133,294.02 1030.967,291.832 1034.871,290.72 1032.303,287.805 1035.056,287.917 
				1037.305,286.679 1035.173,283.933 1038.334,283.14 1034.828,278.973 1033.662,278.434 1034.069,274.564 1036.825,273.48 
				1033.01,270.728 1034.674,270.985 1034.888,269.64 1032.897,267.401 1035.404,266.431 1034.513,265.304 1032.935,264.427 
				1034.412,262.918 1033.677,261.471 1035.285,259.993 			"/>
			<polygon style="fill:#485121;" points="889.748,393.913 892.811,395.067 895.409,396.775 896.891,395.212 898.961,395.99 
				899.57,395.447 901.664,395.604 898.519,393.15 900.33,392.357 901.131,392.146 899.668,391.026 900.816,390.135 
				899.558,388.546 900.427,387.598 894.779,383.952 897.028,383.846 898.508,385.475 899.471,384.767 900.734,385.787 
				900.896,385.304 902.51,384.714 899.985,383.706 900.533,382.677 897.493,382.303 899.85,381.911 896.223,380.429 
				897.095,377.888 896.701,376.648 895.44,376.646 895.381,375.577 894.209,374.673 893.533,372.515 892.125,372.491 
				892.125,372.491 889.188,370.105 890.815,373.964 891.88,375.305 889.625,375.733 893.144,379.968 892.329,380.808 
				893.621,383.635 892.051,383.616 892.7,386.076 891.211,386.328 891.856,388.314 890.56,388.676 890.936,390.76 889.865,391.749 
				890.125,392.91 			"/>
			<polygon style="fill:#485121;" points="1099.22,271.067 1093.064,274.832 1086.574,277.038 1087.291,281.734 1083.133,284.278 
				1083.25,286.073 1080.145,289.502 1088.672,287.354 1087.596,291.578 1086.881,293.253 1090.807,292.229 1090.805,295.437 
				1095.273,295.398 1095.743,298.189 1109.727,293.308 1106.867,297.362 1102.033,297.728 1101.959,300.361 1098.474,301.177 
				1099.094,302.115 1097.942,305.719 1103.106,302.693 1104.158,305.042 1108.923,300.26 1106.413,304.889 1113.901,300.59 
				1117.139,305.548 1119.827,306.538 1121.536,304.35 1123.481,305.689 1126.642,304.884 1131.307,306.628 1133.255,304.208 
				1133.255,304.208 1141.382,302.331 1132.469,299.94 1128.694,299.971 1131,295.47 1118.875,295.86 1118.515,293.303 
				1111.853,291.726 1114.01,289.013 1108.852,286.815 1110.428,283.883 1106.101,282.317 1107.23,279.574 1103.097,277.407 
				1102.822,274.204 1100.452,273.082 			"/>
		</g>
	</g>
</g>
<g id="Layer_1_1_">
</g>
</svg>
