<?xml version="1.0" encoding="iso-8859-1"?>
<!-- Generator: Adobe Illustrator 15.1.0, SVG Export Plug-In . SVG Version: 6.00 Build 0)  -->
<!DOCTYPE svg PUBLIC "-//W3C//DTD SVG 1.1//EN" "http://www.w3.org/Graphics/SVG/1.1/DTD/svg11.dtd">
<svg version="1.1" xmlns="http://www.w3.org/2000/svg" xmlns:xlink="http://www.w3.org/1999/xlink" x="0px" y="0px"
	 width="276.059px" height="246.65px" viewBox="0 0 276.059 246.65" style="enable-background:new 0 0 276.059 246.65;"
	 xml:space="preserve">
<g id="Layer_2">
	<g>
		<radialGradient id="SVGID_1_" cx="19.6582" cy="145.4453" r="265.3261" gradientUnits="userSpaceOnUse">
			<stop  offset="0" style="stop-color:#383D21"/>
			<stop  offset="0.3076" style="stop-color:#313522"/>
			<stop  offset="0.7947" style="stop-color:#1C1E23"/>
			<stop  offset="1" style="stop-color:#121224"/>
		</radialGradient>
		<path style="fill:url(#SVGID_1_);" d="M276.059,110.32c0,0-0.564,0.602-1.623,1.711l1.623,0.174V110.32z"/>
	</g>
	<radialGradient id="SVGID_2_" cx="24.3999" cy="139.4043" r="202.838" gradientUnits="userSpaceOnUse">
		<stop  offset="0" style="stop-color:#383D21"/>
		<stop  offset="0.3076" style="stop-color:#313522"/>
		<stop  offset="0.7947" style="stop-color:#1C1E23"/>
		<stop  offset="1" style="stop-color:#121224"/>
	</radialGradient>
	<path style="fill:url(#SVGID_2_);" d="M40.943,5.65l-5.256,13.166l5.166,8.042L32,34.902v22.489l-2.976,14.896l3.04,11.683
		c0,0-5.199,7.009-5.782,8.762c-0.584,1.752-11.653,19.474-11.653,19.474l12.574,5.206l-3.937,2.847l-3.354,2.848l4.091,12.267
		l-9.345,4.673l-10.514,16.94l4.673,8.762l11.099-4.09l8.178-8.178l-1.752,12.268l-8.497,9.346L22,185.608v13.728l-6.592,13.727
		l4.299,13.436l12.371,14.019l11.877-5.842L57,223.577v10.806l10.957-8.469l12.487,1.168l13.547-7.594l13.704,9.346l3.317-15.188
		l8.407,7.594L136,215.982v19.277l11.561-2.337L160,225.329v-13.727l14-7.302v-8.471l16.856-13.727l-17.419-15.188l17.576-11.684
		l-11.071-10.514l5.271-18.713l16.362-3.119c0,0,8.18-5.622,7.012-7.375s-13.434-9.347-13.434-9.347l1.607-10.66l2.192-7.01
		l-6.135-1.314l4.82-3.943l-1.754-10.076l-3.505,1.752l9.64-10.514l-1.754-6.572l-7.886-4.38l-0.876,2.628
		c0,0-14.019,4.819-14.019,3.504c0-1.314,1.778-11.828,1.778-11.828L170,41.62v5.257l-6.114,9.2l-6.124-7.01l-7.881-6.133
		l-5.693,3.943l-4.818-12.267l-10.076,3.504l2.286-6.571L140,27.163v-4.819l-5.133-1.752l3.785-2.718l-4.1-6.223h-3.942
		l-6.133-6.044L109.58,8.499l-1.829,8.236l-16.133,1.708l-5.257,3.483l-7.448-9.21l4.382-7.454c0,0,0-3.068-6.134-5.259
		c0,0-0.438,3.502-3.067,4.816c-2.628,1.314-5.257,2.19-5.257,2.19L60.513,0l-0.438,6.571l-7.447-6.375L47.808,5.65H40.943z"/>
	<path style="fill:#485121;" d="M40.181,6.791L34,15.334v7.009l-5.907,1.307h6.134l-3.943,8h6.571c0,0-7.886,5-8.762,12h4.381
		l-4.381,6.433l4.381,4.114l-6.572,2.9l2.629,4.308l-2.629,2.593l3.701,6.241L20,77.981v7.448l-8,5.257v6.963H7.941l-3.797,14.027
		l5.987-1.15l1.314,1.781l10.774-1.937l4.121,0.917l10.077-9.637l11.828-4.388l-5.257-4.383l5.257-3.053L35.979,87.65h-3.504
		l2.628-2.863l13.143-2.413l-7.009-3.725h12.267l4.381-4.934l-5.265-1.592L64,66.591v-4.819l10.962-8.324l-5.034-2.629l5.369-5.695
		l-5.201-2.19L71,34.61l-8.311,4.819l-1.307-4.819l-2.188,5.695l-5.255-3.066l-1.752,7.447l-6.57-0.438l-2.629,3.505l1.752-10.077
		l3.505,1.315l2.19-5.695l0.876,5.695l5.695-8.763l6.134-2.19l-2.191-6.134l-5.695,1.315l-2.19-6.572l-3.066,7.01l-5.695-4.819
		l-4.527-3.067l5.842-3.067l-3.944-2.19l-0.787-4.819"/>
	<path style="fill:#485121;" d="M21,129.65v5.723l-8.72,3.066l2.138,1.273l-2.411,3.938H4v6.617l-4.163,5.258l5.403,3.719
		c0,0-2.61,8.549-3.048,12.93s8.789-3.943,8.789-3.943l7.9-2.191l3.073-6.425l4.385,6.134l13.436-11.975l-11.681-0.293l9.639-4.965
		l-11.39-3.943l7.886-4.381l-9.2-2.424l3.942-8.117H21z"/>
	<polygon style="fill:#485121;" points="18.457,175.65 15.827,180.65 21.084,180.65 15.827,189.65 20.208,189.65 11.884,196.684 
		16.411,201.076 4,214.23 4,220.364 9.913,216.502 12.76,219.65 18.456,219.65 9.255,233.15 21.084,230.7 19.584,238.237 26,234.21 
		26,240.517 35,239.067 35,246.65 43.472,240.517 48,246.65 48,238.765 37.393,234.886 34.822,232.631 41.973,224.745 
		31.09,220.803 45.582,214.596 27.638,205.469 30.713,198.021 36.851,194.078 39.774,190.136 31.159,191.012 29.408,195.393 
		28.532,197.582 22.836,196.707 25.903,190.573 24.589,180.557 22.836,175.65 	"/>
	<path style="fill:#485121;" d="M100.424,114.802l-8.565,14.448l-2.529,12.699c0,0-2.142,10.033-3.895,9.396
		c-1.752-0.637,5.721,4.801,5.721,4.801l-8.738,8.504h12.267l-10.076,9h10.953l-4.053,10h5.805l0.665,5.652l8.022-2.672v5.695
		l9.238-4.381l4.837-14.498l-6.562,2.23c0,0,7.89-7.447,6.576-8.762c-1.314-1.314-7.883-4.381-7.883-4.381l4.106-8.971l-9.889-2.221
		l1.326-8.522l-1.326-5.696l3.594-7.885l-3.594,1.314l-2.977-6.572l-2.117-0.438L100.424,114.802z"/>
</g>
<g id="Layer_1">
</g>
</svg>
