<?xml version="1.0" encoding="iso-8859-1"?>
<!-- Generator: Adobe Illustrator 15.1.0, SVG Export Plug-In . SVG Version: 6.00 Build 0)  -->
<!DOCTYPE svg PUBLIC "-//W3C//DTD SVG 1.1//EN" "http://www.w3.org/Graphics/SVG/1.1/DTD/svg11.dtd">
<svg version="1.1" xmlns="http://www.w3.org/2000/svg" xmlns:xlink="http://www.w3.org/1999/xlink" x="0px" y="0px" width="340px"
	 height="299.607px" viewBox="0 0 340 299.607" style="enable-background:new 0 0 340 299.607;" xml:space="preserve">
<g id="Layer_1_1_">
	<polygon style="fill:#485121;" points="219.11,159.785 211.701,151.773 223.866,152.889 228.368,143.325 216.914,141.454 
		210.043,140.33 217.637,137.042 235.497,135.675 234.01,130.416 247.386,124.094 237.588,120.336 231.593,112.619 243.196,106.235 
		233.333,98.693 251.867,89.408 267.565,92.89 264.665,76.644 246.174,64.177 263.673,60.307 257.465,58.7 258.738,53.668 
		269.071,48.841 261.773,41.667 266.59,39.075 273.427,38.383 270.537,30.88 275.298,26.929 271.894,19.341 273.115,8.96 
		273.316,7.255 283.568,17.699 278.818,21.08 287.612,28.942 282.541,30.435 290.216,38.188 286.769,41.057 294.535,47.712 
		291,51.683 289.733,58.736 292.405,67.94 284.095,72.054 286.713,82.446 297.622,92.89 294.641,100.769 297.622,107.656 
		281.287,110.888 284.972,120.161 267.543,119.481 279.359,129.908 277.76,139.701 289.272,157.396 281.309,158.449 
		287.284,170.006 265.388,174.533 265.094,174.023 264.997,174.613 263.409,184.329 254.897,182.938 252.216,173.684 
		242.561,182.418 242.855,169.799 233.209,178.614 228.725,166.314 206.111,164.383 	"/>
	<g>
		
			<radialGradient id="SVGID_1_" cx="-34.5" cy="169.5957" r="304.9739" gradientTransform="matrix(-1 0 0 1 258 0)" gradientUnits="userSpaceOnUse">
			<stop  offset="0" style="stop-color:#383D21"/>
			<stop  offset="0.3076" style="stop-color:#313522"/>
			<stop  offset="0.7947" style="stop-color:#1C1E23"/>
			<stop  offset="1" style="stop-color:#121224"/>
		</radialGradient>
		<path style="fill:url(#SVGID_1_);" d="M4.721,126.255l5.538-0.897l-0.023,4.379l5.082-0.182l-1.313,5.404l5.572-1.872l0.81,3.322
			l4.578-1.741L22,133.078v-6.879l-8.638-16.537l8.735-4.106l6.979-9.533l14.512,10.364l8.129-10.364l24.348,11.624l9.599-6.688
			l17.479,7.738l18.146,0.704l-20.828-8.441l5.497-7.275l-18.552-5.78l2.247-10.937l-7.568-7.758l11.497-1.593l4.268-9.303
			l22.796,5.557l11.102-1.538l10.188-6.063l20.791,1.772l13.38-1.853l-1.844-5.652l-11.137-8.761l9.574-6.093l-6.985-11.321
			l27.873-4.372l8.703-12.736l11.776,15.237l8.241-12.454l10.832-0.532L244.066,0l7.867,8.581l20.937-1.028l0.245,1.407
			l-1.222,10.381l3.404,7.588l-4.761,3.951l2.89,7.503l-6.837,0.692l-4.816,2.592l7.298,7.173l-10.333,4.828l-1.273,5.032
			l6.208,1.606l-17.499,3.871l18.491,12.467l2.9,16.246l-15.698-3.481l-18.534,9.285l9.863,7.542l-11.604,6.383l5.995,7.717
			l9.798,3.758l-13.376,6.322l1.487,5.259l-17.86,1.367l-7.594,3.288l6.871,1.124l11.454,1.872l-4.502,9.563l-12.165-1.115
			l7.409,8.012l-12.999,4.598l22.613,1.932l4.484,12.3l9.646-8.815l-0.295,12.619l9.655-8.734l2.682,9.254l8.512,1.392l1.588-9.716
			l0.391-0.08l5.914,10.255l6.692-3.367l0,0l10.327,0.584l15.04-3.712l9.139,6.036l-3,14.749l15,3.927l-10,20.5
			c-20.938-3.773-19.021-11.188-29.5-2.5c-9.854,8.169-5.785,23.446-18,25.14c-5.693,0.789-36.933,0.395-43,0l12.642,6.36
			l2.145,9.228l13.081,3.772l0.501,10.548l9.632,3.254l5.5,13.301H256l-0.338-5.193l-19.021-1.383l2.178-5.806l-22.319,2.286
			l7.92-8.295l-14.92,0.79l2.581-5.903L201,270.506l-1.388-6.561L189,267.004c0,0-24.916-4.615-35.5-9.999l-4.962-5.03l-3.729-3.781
			l-3.726-3.778l-4.961-5.031l-2.979-3.021l-4.806-4.873c-2.758-1.854-7.112-0.078-9.838-1.985
			c-2.098-1.468-2.573-6.606-4.648-8.099c-2.336-1.68-9.048,4.805-11.352,3.099c-3.666-2.715-1.93-18.742-5.5-21.5
			c0,0-16.354,12.987-21,9.214l-12-14.214c-1.193-1.284,1.07-6.765-0.309-8.249c-1.579-1.698-7.915-3.516-9.691-5.427
			c-3.001-3.229-1.602-6.722-4.974-10.349c-2.272-2.443-14.677-5.949-17.026-8.476c0,0-26.717-38.525-30.646-42.64l4.839-0.519
			L4.721,126.255z"/>
		
			<radialGradient id="SVGID_2_" cx="-34.5" cy="161.0049" r="302.6852" gradientTransform="matrix(-1 0 0 1 258 0)" gradientUnits="userSpaceOnUse">
			<stop  offset="0" style="stop-color:#383D21"/>
			<stop  offset="0.3076" style="stop-color:#313522"/>
			<stop  offset="0.7947" style="stop-color:#1C1E23"/>
			<stop  offset="1" style="stop-color:#121224"/>
		</radialGradient>
		<path style="fill:url(#SVGID_2_);" d="M0,120.912c0,0,0.643,0.688,1.852,1.953L0,123.064V120.912z"/>
	</g>
	<polygon style="fill:#485121;" points="258.115,234.115 253.236,226.789 274.282,225.061 274.397,220.57 285.606,216.522 
		281.338,212.258 289.823,207.436 286.517,202.676 293.689,199.111 291.194,194.592 297.913,190.025 297.754,184.432 
		301.631,182.021 303.361,178.293 314.753,183.584 326.415,186.115 326.104,194.378 333.801,197.953 333.952,201.082 340,206.396 
		324.831,204.37 327.525,211.463 329.098,214.217 322.102,213.224 322.741,218.771 315.006,219.589 314.746,224.509 
		289.596,218.838 295.345,225.281 303.777,224.957 304.427,229.495 310.615,230.217 309.728,231.962 312.434,237.967 
		302.905,233.756 301.551,238.025 292.366,230.701 297.621,238.209 283.819,232.254 279.201,241.47 274.75,243.717 275.666,249.505 
		268.505,245.848 263.666,249.505 254.914,246.145 251.069,242.346 236.642,240.709 251.582,234.811 	"/>
	<polygon style="fill:#485121;" points="273.419,287.906 273.419,287.906 279.714,292.505 279.714,299.607 262.944,285.996 
		262.728,292.578 256.029,284.602 252.932,287.837 247.916,277.214 249.324,286.271 239.56,274.842 231.352,281.078 229.112,275.97 
		234.818,265.234 230.847,266.293 226.136,263.122 217.468,263.258 215.69,258.154 203.461,250.326 219.472,251.614 
		225.642,253.871 224.49,245.145 244.146,252.867 256.691,274.445 	"/>
	
		<radialGradient id="SVGID_3_" cx="53.603" cy="247.7188" r="106.9146" gradientTransform="matrix(-1.0253 -0.5289 -0.3887 0.7536 312.6492 108.6244)" gradientUnits="userSpaceOnUse">
		<stop  offset="0" style="stop-color:#383D21"/>
		<stop  offset="0.3076" style="stop-color:#313522"/>
		<stop  offset="0.7947" style="stop-color:#1C1E23"/>
		<stop  offset="1" style="stop-color:#121224"/>
	</radialGradient>
	<polygon style="fill:url(#SVGID_3_);" points="178.621,218.809 182.581,245.73 175.197,249.666 176.533,256.828 169.666,270.142 
		168.289,281.2 146.111,280.573 137.863,286.497 123.843,262.09 106.097,239.869 110.232,231.852 95.417,220.308 101.991,207.563 
		99.337,188.383 124.639,195.709 123.611,179.914 133.109,190.018 155.731,196.584 163.103,205.691 177.115,212.92 	"/>
	<polygon style="fill:#485121;" points="177.422,212.949 186.94,228.578 185.992,238.49 180.866,235.846 189.717,248.045 
		177.756,241.875 185.441,256.334 176.533,256.828 182.346,271.913 164.432,262.672 176.904,282.464 164.023,281.079 
		156.643,287.278 154.974,280.823 144.382,285.602 139.11,275.69 125.518,265.005 135.739,263.773 136.145,249.873 131.116,244.213 
		139.682,241.029 158.844,248.34 141.605,238.651 137.983,230.899 146.186,235.131 152.839,234.168 149.448,223.773 
		158.263,225.141 156.423,215.285 171.389,219.825 	"/>
</g>
<g id="Layer_1">
</g>
</svg>
