<?xml version="1.0" encoding="iso-8859-1"?>
<!-- Generator: Adobe Illustrator 15.1.0, SVG Export Plug-In . SVG Version: 6.00 Build 0)  -->
<!DOCTYPE svg PUBLIC "-//W3C//DTD SVG 1.1//EN" "http://www.w3.org/Graphics/SVG/1.1/DTD/svg11.dtd">
<svg version="1.1" xmlns="http://www.w3.org/2000/svg" xmlns:xlink="http://www.w3.org/1999/xlink" x="0px" y="0px"
	 width="291.333px" height="273.666px" viewBox="0 0 291.333 273.666" style="enable-background:new 0 0 291.333 273.666;"
	 xml:space="preserve">
<g id="Layer_3">
	<radialGradient id="SVGID_1_" cx="46.0366" cy="180.7305" r="323.7494" gradientUnits="userSpaceOnUse">
		<stop  offset="0" style="stop-color:#383D21"/>
		<stop  offset="0.3076" style="stop-color:#313522"/>
		<stop  offset="0.7947" style="stop-color:#1C1E23"/>
		<stop  offset="1" style="stop-color:#121224"/>
	</radialGradient>
	<path style="fill:url(#SVGID_1_);" d="M260.769,179.67l8.781-18.918l13.45-6.919v-9.666l-6.333-8.334l10.666-14l-8.666-4.667
		l12.666-12L255.834,98.5l-16.834,6v-6.333l-21.666,8.333l-4.367-2L191,115.166v-8.999l13.666-8l-2-6.334L212.8,84.5l9.867-12.667
		c0,0,7.332-3.333,10.666-3.333s15.334-9.333,15.334-9.333l-26-5.333l7.433-14.667l-17.1,4v-7.999l-22,5.999v-5.999l-25.666,8.666
		L176,35.167L148.666,40.5l10.668-13.333l-24.667,8.667l-18.558,10l13.225-14l16-4.667l-4-4.667l11.333-4.667l-18-6.25L142,6.666
		h-21l5-3.75l-40,8.042l8-11.291H81L64.667,4.249l-22-4.207l-9.333,13.061l-18,10.699l4,8.682L20,56.492l5.333-1.33l-10,18.002
		L22,83.165l-2.667,16l14,0.667l-12,21.333l1.333,16.417L12,162.666h7l-1,9.582l22.667-12.54L40,170.438l18-21.97l11.333,5.35
		l10-12.859l-4,26.205l-18,12.337l-2,12.332l4-4.25L52,206.666h15l-10.167,30.916L71,243.166v22.5h17l9.333-14.75l23.333-5.208
		l28-21.938l12.668,4.697L202,199.817l20.667-0.66C222.667,199.157,247.537,187.507,260.769,179.67z"/>
	<path style="fill:#485121;" d="M15.222,23.918l-3.277,13.291l3.361,2.563L6,49.666h14l-7,10h10c0,0-14.333,7.917-11,10.583
		s3.333,2.542,3.333,2.542L14.5,82.666H22l-7.5,13H23l-3.667,3.25l3.5,7.458L47,91.166v10.001l6.333-15.334l22-8.667L60.667,70.5
		L70,60.5l-9.333-3.333l-20,1.333l6-8.667l-3.333-6L62,40.5l-16-5.333l2.667-6l-11.333-1.75l3.333-7.75H25L15.222,23.918z"/>
	<polygon style="fill:#485121;" points="18.511,113.249 10.332,127.459 19.012,132.063 6,142.666 19,142.666 0,150.666 10,150.666 
		0,166.582 6,162.042 9.548,172.104 16.751,168.813 15.333,180.817 26,169.5 26,178.167 36.525,166.414 49.333,165.5 46.667,157.5 
		56.527,149.63 52,147.5 64.667,139.715 58.667,129.666 75,129.666 56,118.25 66.667,112.666 51,112.666 44,109.916 37.5,116.041 
		30.667,110.103 28,117.468 	"/>
	<path style="fill:#485121;" d="M77.367,156.645l-5.842,6.006l3.904,4.592l-21.381,6.629l11.468,0.058l-18.837,6.913l10.661-1.334
		c0,0-20.669,18.994-16.669,19.66c4,0.668,16.53-5.707,15.341-2.572c-1.189,3.136-10.01,11.238-10.01,11.238l12.568-0.918
		L50,220.666h9l-11.667,13H65l-16.333,14H71l-2.333,25.916l6.667-7.541L80,273.52l4.667-4.854H105l-7.667-7.084l11.333-8.542
		l-8.167-5.27l24.5-12.604v-19.999l10,13.333v-16.333l11-0.334l-6-8l18-8l-23.333-15l-1.333,12.333l-6.667-4.666l-10.391,12.666
		L109,194.5v20.667l-9.922-8.001l-11.745,7.65l-2-11.65l4-6.666l-10,0.582L84,187.666h-9v-9.499l7.667-3.667l-7.333-2.667l10-8
		L77.367,156.645z"/>
</g>
<g id="Layer_1">
</g>
</svg>
