<?xml version="1.0" encoding="iso-8859-1"?>
<!-- Generator: Adobe Illustrator 15.1.0, SVG Export Plug-In . SVG Version: 6.00 Build 0)  -->
<!DOCTYPE svg PUBLIC "-//W3C//DTD SVG 1.1//EN" "http://www.w3.org/Graphics/SVG/1.1/DTD/svg11.dtd">
<svg version="1.1" id="Layer_1" xmlns="http://www.w3.org/2000/svg" xmlns:xlink="http://www.w3.org/1999/xlink" x="0px" y="0px"
	 width="410.333px" height="282px" viewBox="0 0 410.333 282" style="enable-background:new 0 0 410.333 282;" xml:space="preserve"
	>
<g id="Layer_6">
	<g>
		<path style="fill:#30291C;stroke:#30291C;stroke-miterlimit:10;" d="M291.279,229.979l0.304,0.541l10.636,2.48l1.375,1.043
			c8.54-4.012,22.069-10.588,31.056-16.053l-3.861-7.95c-12.037,8.179-26.336,16.573-37.123,19.271
			C292.818,229.521,292.032,229.746,291.279,229.979z"/>
		<path style="fill:#383226;" d="M256.54,199.732c5.955-2.782,12.455-5.651,18.94-8.198l0.741-0.534H259h-24.92
			c2.336,1.859,3.725,3,3.725,3L256.54,199.732z"/>
		<path style="fill:#2D261A;stroke:#2D261A;stroke-miterlimit:10;" d="M190.97,214H195l4.638,0.55
			c-5.312-6.157-12.973-13.733-22.337-19.381l-9.545,1.922C178.613,202.744,186.035,208.866,190.97,214z"/>
		<polygon style="fill:#605137;" points="99.533,189.25 94.361,161.131 94,160.016 98.342,190.206 114,206.305 119,224.877 
			115.75,206.008 		"/>
		<path style="fill:#30291C;stroke:#30291C;stroke-miterlimit:10;" d="M303.593,234.043L302.218,232l-10.636-2.479l2.373,5.229
			c0.125,0.22,0.25,0.442,0.373,0.665c0.101,0.177,0.196,0.352,0.293,0.521l0.295,0.525c0.403,0.721,0.705,1.256,0.705,1.256
			S298.836,236.277,303.593,234.043z"/>
		<path style="fill:#383226;stroke:#383226;stroke-miterlimit:10;" d="M46.031,250.869L66.907,252H87l18.333-3.999l26.812-6.274
			l19.873-17.756L178.304,214h12.666c-4.935-5.134-12.356-11.256-23.214-16.909L162,198.25l-31.594,17.875L125,200.063
			l-21.944-12.078l-8.694-26.854l5.172,28.119l16.217,16.758l3.25,18.869l-5.333,6.676L89,239.414l-30,4.035L28,233l-28-1
			l2.389,0.977l25.674,4.596L46.031,250.869z"/>
		<g>
			<path style="fill:#383226;stroke:#383226;stroke-miterlimit:10;" d="M295.452,237.417l-0.535-0.954
				C295.139,236.861,295.325,237.191,295.452,237.417z"/>
			<path style="fill:#383226;stroke:#383226;stroke-miterlimit:10;" d="M340.138,281.266L361.49,287l-6.823-45L338,224.891
				l-3.353-6.899c-8.985,5.465-22.515,12.041-31.055,16.052l0,0c-4.757,2.234-7.972,3.676-7.972,3.676s-0.067-0.119-0.17-0.302
				L306.999,258L340.138,281.266z"/>
		</g>
		<path style="fill:#5B462B;stroke:#5B462B;stroke-miterlimit:10;" d="M195,214h-4.03c2.498,2.6,4.366,4.945,5.707,6.848
			c2.955,0.041,5.773,0.217,8.378,0.477c-1.354-1.838-3.176-4.176-5.417-6.773L195,214z"/>
		<path style="fill:#77603E;stroke:#77603E;stroke-miterlimit:10;" d="M178.304,214l-26.286,9.971l-19.873,17.756l-26.812,6.274
			L87,252H66.907l-20.876-1.131l-17.969-13.297l-25.674-4.596L28,243.447c0,0,8,7.553,26,13.553s52-3,52-3l32-10.738
			c0,0,17.101-12.809,32.5-18.387c8.867-3.212,18.055-4.143,26.177-4.027c-1.341-1.9-3.209-4.248-5.707-6.848H178.304z"/>
		<polygon style="fill:#77603E;" points="306,304 332.324,304 302.569,300.725 		"/>
		<path style="fill:#4C3828;stroke:#4C3828;stroke-miterlimit:10;" d="M213.743,216.223c-8.244-8.354-18.2-17.09-25.563-23.244
			c-4.779-3.994-8.465-6.902-9.875-7.912c-5.032-3.604-34.968-15.063-39.635-17.863c-4.667-2.801-10-26.571-10-26.571
			c-12.001-14.326-9.333-7.296-26.666-23.296C91.766,107.886,88.368,93.09,87.3,82.558C87.101,81.577,87,81,87,81v3.942
			c0,0-1.249,20.407,7.492,31.089c8.741,10.682,12.842,6.667,20.842,20c8,13.333,5.333,26.032,15.041,36.094
			s19.845,9.643,41.563,20.125c1.845,0.891,3.631,1.874,5.363,2.919c9.364,5.646,17.025,13.224,22.337,19.381
			c2.241,2.599,4.063,4.937,5.417,6.772c1.834,2.486,2.82,4.053,2.82,4.053l1.469,3.236c2.509-1.938,4.943-3.783,7.221-5.483
			c0.748-0.56,1.479-1.103,2.188-1.627C217.188,219.777,215.506,218.01,213.743,216.223z"/>
		<path style="fill:#352C24;" d="M291.279,229.979c-0.288,0.09-0.569,0.182-0.845,0.273l1.148,0.268L291.279,229.979z"/>
		<path style="fill:#352C24;stroke:#352C24;stroke-miterlimit:10;" d="M306.999,258l-12.082-21.537l-0.295-0.525
			c-0.097-0.17-0.192-0.344-0.293-0.521c-0.123-0.223-0.248-0.445-0.373-0.665c-0.6-1.067-1.144-2.038-1.197-2.136
			c-0.125-0.225-7.426-1.948-12.758,12.719c-1.283,3.529-3.85,7.758-6.994,12.141c-9.92,13.82-25.674,29.192-25.674,29.192
			L250.32,300H296l6.568,0.725L332.324,304l47.675,5.25l-39.86-27.984L306.999,258z"/>
		<g>
			<path style="fill:#211B16;stroke:#211B16;stroke-miterlimit:10;" d="M290.435,230.253c-10.955,3.69-12.202,10.177-20.871,23.261
				L272,255l-2.438-1.486c-1.327,2.004-2.826,4.16-4.563,6.486c-14.114,18.9-26.299,25.828-26.299,25.828L245.156,300h5.164
				l-2.987-13.333c0,0,15.754-15.372,25.674-29.192c3.146-4.383,5.711-8.609,6.994-12.141c5.322-14.642,12.606-12.947,12.756-12.72
				l-1.174-2.093L290.435,230.253z"/>
			<path style="fill:#211B16;" d="M292.758,232.615l-0.002-0.001l1.199,2.137C293.357,233.682,292.813,232.713,292.758,232.615z"/>
		</g>
		<path style="fill:#352C24;stroke:#352C24;stroke-miterlimit:10;" d="M102.003,117.335c17.333,16,14.665,8.97,26.666,23.296
			c0,0,5.333,23.771,10,26.571s34.603,14.261,39.635,17.862c1.41,1.011,5.096,3.918,9.875,7.912
			c7.364,6.155,17.32,14.891,25.563,23.244c1.764,1.788,3.444,3.557,5.01,5.279c2.021-1.497,3.881-2.855,5.508-4.031
			c4.115-2.98,6.74-4.803,6.74-4.803s11.174-6.219,25.539-12.934L237.805,194c0,0-1.389-1.141-3.725-3
			c-10.176-8.105-38.335-29.915-48.097-31c-12.001-1.334-28.682,8-39.016-1s-7.697-19-16.625-28c-8.928-9-16.469-13-16.469-13
			s-7.125-4.667-15.125-10c-6.701-4.468-10.419-20.391-11.45-25.443C88.368,93.089,91.766,107.885,102.003,117.335z"/>
		<path style="fill:none;" d="M305.667,183.334c7.424-0.413,13.666-2.686,19.114-6.115c-15.175,3.891-31.444,1.447-31.444,1.447
			L276.222,191h0.638C287.445,186.918,297.874,183.768,305.667,183.334z"/>
		<path style="fill:#383226;" d="M276.859,191h-0.638l-0.741,0.534C275.94,191.354,276.399,191.178,276.859,191z"/>
		<path style="fill:#513E2A;" d="M372.668,132.334L378,114.001l1.668-12.667l-9.334-41.333L325.668,9.334l-2.689-7.276L321,0l3,10
			l43,52l3.332,36.667c0,0-4.332,29.333-16.666,45.964c-8.518,11.486-16.72,24.93-28.886,32.588
			c4.918-1.262,9.722-3.184,13.817-6.074C355.336,159.332,372.668,132.334,372.668,132.334z"/>
		<path style="fill:#423629;stroke:#423629;stroke-miterlimit:10;" d="M256.54,199.732C242.174,206.447,231,212.667,231,212.667
			s-2.625,1.821-6.74,4.802c-1.627,1.178-3.485,2.535-5.508,4.032c-0.711,0.524-1.439,1.067-2.188,1.627
			c-2.276,1.7-4.712,3.546-7.221,5.483c-13.779,10.643-29.773,24.097-33.844,32.056C168,275.334,159,307.5,159,307.5l7.99-0.363
			l15.679-42.759l30.012-28.417l4.655-4.408l6.315-4.271l1.377-0.934l11.056-7.478l23.918-16.181l1.848-1.33l13.631-9.825
			C268.995,194.081,262.495,196.95,256.54,199.732z"/>
		<g>
			<path style="fill:#47321C;" d="M350.288,113.08l18.047,8.916l2.516-0.814l1.842-1.385L368,120
				C360.829,117.005,354.961,114.757,350.288,113.08z"/>
			<polygon style="fill:#543E29;" points="310,90 297,90 281.872,83.132 279,82.391 297.083,91 310,91 309.855,91.247 
				310.875,90.75 			"/>
			<g>
				<polygon style="fill:#3F2C19;" points="315,90.438 305.625,102.125 294.413,112.082 291.279,115.667 306.355,102.667 
					315.958,90.87 315.379,90.363 				"/>
				<polygon style="fill:#563C22;" points="341.045,107.375 324,90 317.25,90 315.379,90.363 315.958,90.87 316.006,90.812 
					323.334,90.647 341.045,108.514 350.258,113.065 				"/>
			</g>
			<g>
				<polygon style="fill:#54351F;" points="378.625,70.625 390.125,59.375 402.75,52 408.85,30.511 402,51.334 389.333,58.334 
					378.333,68.001 378.314,67.93 377.625,72.5 				"/>
				<path style="fill:#2B241C;stroke:#2B241C;stroke-miterlimit:10;" d="M402.75,52l-12.625,7.375l-11.5,11.25l-1,1.875l0.688-4.57
					L375,55l-29-29L322.979,2.058l2.689,7.276l44.666,50.667l3.334,38.333l-1.405,10.68l1.371,2.915l0.116,4.321l-0.461-3.405
					L372,111.001l-28.332-11.667l-18.888-15.666l-25.968,3.838l-16.941-4.374L297,90h13l0.875,0.75l-1.021,0.497l-5.513,9.471
					l-9.932,11.364l11.213-9.957L315,90.438L317.25,90H324l17.045,17.375l9.213,5.69l0.029,0.015
					c4.674,1.677,10.541,3.925,17.713,6.92l4.69-0.203l1.56-1.172l-2.924,3.57l-3.232,2.236l-1.426,4.899
					c0,0-11.332,30-28.069,41.813c-4.097,2.892-8.899,4.813-13.817,6.073c-5.447,3.431-11.689,5.704-19.113,6.117
					c-7.795,0.435-18.223,3.584-28.809,7.666c-0.46,0.177-0.919,0.354-1.379,0.534l-13.631,9.824l-1.848,1.33l-23.918,16.182
					l-11.056,7.479l-1.377,0.932l-6.315,4.273l-4.655,4.407l-30.012,28.417l-15.679,42.758l79.76-3.637l-1.594-3.5l-6.455-14.171
					c0,0,12.185-6.927,26.299-25.828c1.736-2.326,3.235-4.481,4.563-6.485c8.669-13.086,9.916-19.57,20.871-23.262
					c0.275-0.093,0.557-0.186,0.845-0.273c0.753-0.232,1.539-0.457,2.384-0.668c10.787-2.697,25.086-11.092,37.123-19.271
					c5.816-3.953,11.108-7.855,15.215-11.04c12.603-9.774,14.717-26.604,26-47c11.282-20.396,13-59,13-59l-4.528-17.207
					l10.86-14.459l13.635-9L410.333,26l-1.482,4.51L402.75,52z"/>
			</g>
		</g>
	</g>
</g>
<g id="Layer_1_1_">
</g>
</svg>
