<?xml version="1.0" encoding="iso-8859-1"?>
<!-- Generator: Adobe Illustrator 15.1.0, SVG Export Plug-In . SVG Version: 6.00 Build 0)  -->
<!DOCTYPE svg PUBLIC "-//W3C//DTD SVG 1.1//EN" "http://www.w3.org/Graphics/SVG/1.1/DTD/svg11.dtd">
<svg version="1.1" xmlns="http://www.w3.org/2000/svg" xmlns:xlink="http://www.w3.org/1999/xlink" x="0px" y="0px"
	 width="291.333px" height="273.666px" viewBox="0 0 291.333 273.666" style="enable-background:new 0 0 291.333 273.666;"
	 xml:space="preserve">
<g id="Layer_3">
	
		<radialGradient id="SVGID_1_" cx="-35.2935" cy="180.7305" r="323.7701" gradientTransform="matrix(-1 0 0 1 210 0)" gradientUnits="userSpaceOnUse">
		<stop  offset="0" style="stop-color:#383D21"/>
		<stop  offset="0.3076" style="stop-color:#313522"/>
		<stop  offset="0.7947" style="stop-color:#1C1E23"/>
		<stop  offset="1" style="stop-color:#121224"/>
	</radialGradient>
	<path style="fill:url(#SVGID_1_);" d="M30.564,179.67l-8.948-18.918L8,153.833v-9.666l6.5-8.334l-10.583-14l8.708-4.667l-12.646-12
		L35.322,98.5l16.678,6v-6.333l21.833,8.333l4.284-2L100,115.166v-8.999l-13.5-8l2.083-6.334L78.492,84.5l-9.847-12.667
		c0,0-7.321-3.333-10.655-3.333s-15.329-9.333-15.329-9.333l26.003-5.333l-7.598-14.667l16.935,4v-7.999l22,5.999v-5.999
		l25.833,8.666l-10.583-8.666l27.375,5.333l-10.646-13.333l24.677,8.667l18.564,10l-13.223-14l-15.999-4.667l4.001-4.667
		l-11.333-4.667l18-6.25l-7.333-4.917h21l-5-3.75l40,8.042l-8-11.291h13l16.333,4.583l22-4.207l9.333,13.061l18,10.699l-4,8.682
		l-0.666,24.008l-5.334-1.33l10,18.002l-6.666,10.001l2.666,16l-14,0.667l12,21.333l-1.333,16.417l10.667,25.083h-7l1,9.582
		l-22.667-12.54l0.667,10.729l-18-21.97l-11.334,5.35l-10-12.859l4,26.205l18,12.337l2,12.332l-4-4.25l7.334,19.084h-15
		l10.001,30.916L220,243.166v22.5h-16.667l-9.334-14.75l-23.333-5.208l-28-21.938L130,228.468l-40.667-28.65l-20.667-0.66
		C68.666,199.157,43.796,187.507,30.564,179.67z"/>
	<path style="fill:#485121;" d="M276.111,23.918l3.277,13.291l-3.361,2.563l9.306,9.895h-14l7,10h-10c0,0,14.333,7.917,11,10.583
		c-3.334,2.667-3.334,2.542-3.334,2.542l0.834,9.875h-7.5l7.5,13h-8.5l3.666,3.25l-3.665,7.458L244,91.166v10.001l-6.168-15.334
		l-21.916-8.667l14.708-6.667l-9.312-10l9.343-3.333l20.006,1.333l-5.998-8.667l3.335-6L229.332,40.5l16.001-5.333l-2.667-6
		l11.333-1.75l-3.333-7.75h15.667L276.111,23.918z"/>
	<polygon style="fill:#485121;" points="272.822,113.249 281.001,127.459 272.32,132.063 285.333,142.666 272.333,142.666 
		291.333,150.666 281.333,150.666 291.333,166.582 285.333,162.042 281.785,172.104 274.581,168.813 275.832,180.817 265,169.5 
		265,178.167 254.641,166.414 241.916,165.5 244.624,157.5 234.785,149.63 239.322,147.5 226.661,139.715 232.666,129.666 
		216.333,129.666 235.333,118.25 224.666,112.666 240.333,112.666 247.333,109.916 253.833,116.041 260.666,110.103 
		263.333,117.468 	"/>
	<path style="fill:#485121;" d="M213.966,156.645l5.842,6.006l-3.903,4.592l21.381,6.629l-11.469,0.058l18.838,6.913l-10.661-1.334
		c0,0,20.669,18.994,16.67,19.66c-4,0.668-16.53-5.707-15.342-2.572c1.189,3.136,10.011,11.238,10.011,11.238l-12.568-0.918
		l8.569,13.75h-9l11.666,13h-17.666l16.333,14h-22.333l2.333,25.916l-6.667-7.541l-4.666,7.479l-4.667-4.854h-20.333l7.666-7.084
		l-11.333-8.542l8-5.27L166,235.166v-19.999L156,228.5v-16.333l-10.833-0.334l6.083-8l-17.958-8l23.354-15l1.344,12.333l6.672-4.666
		l10.228,12.666L182,194.5v20.667l10.088-8.001l11.828,7.65l2.041-11.65l-3.979-6.666l10.01,0.582l-4.655-9.416H216v-9.499
		l-7.5-3.667l7.416-2.667l-9.959-8L213.966,156.645z"/>
</g>
<g id="Layer_1">
</g>
</svg>
