<?xml version="1.0" encoding="iso-8859-1"?>
<!-- Generator: Adobe Illustrator 15.1.0, SVG Export Plug-In . SVG Version: 6.00 Build 0)  -->
<!DOCTYPE svg PUBLIC "-//W3C//DTD SVG 1.1//EN" "http://www.w3.org/Graphics/SVG/1.1/DTD/svg11.dtd">
<svg version="1.1" xmlns="http://www.w3.org/2000/svg" xmlns:xlink="http://www.w3.org/1999/xlink" x="0px" y="0px"
	 width="276.058px" height="246.65px" viewBox="0 0 276.058 246.65" style="enable-background:new 0 0 276.058 246.65;"
	 xml:space="preserve">
<g id="Layer_2">
	<g>
		
			<radialGradient id="SVGID_1_" cx="-62.4004" cy="145.4453" r="265.3261" gradientTransform="matrix(-1 0 0 1 194 0)" gradientUnits="userSpaceOnUse">
			<stop  offset="0" style="stop-color:#383D21"/>
			<stop  offset="0.3076" style="stop-color:#313522"/>
			<stop  offset="0.7947" style="stop-color:#1C1E23"/>
			<stop  offset="1" style="stop-color:#121224"/>
		</radialGradient>
		<path style="fill:url(#SVGID_1_);" d="M0,110.32c0,0,0.564,0.602,1.623,1.711L0,112.206V110.32z"/>
	</g>
	
		<radialGradient id="SVGID_2_" cx="-57.6577" cy="139.4043" r="202.838" gradientTransform="matrix(-1 0 0 1 194 0)" gradientUnits="userSpaceOnUse">
		<stop  offset="0" style="stop-color:#383D21"/>
		<stop  offset="0.3076" style="stop-color:#313522"/>
		<stop  offset="0.7947" style="stop-color:#1C1E23"/>
		<stop  offset="1" style="stop-color:#121224"/>
	</radialGradient>
	<path style="fill:url(#SVGID_2_);" d="M235.114,5.65l5.256,13.166l-5.194,8.042L244,34.902v22.489l3.004,14.896l-3.025,11.683
		c0,0,5.206,7.009,5.79,8.762c0.584,1.752,11.656,19.474,11.656,19.474l-12.571,5.206l3.937,2.847l3.355,2.848l-4.091,12.267
		l9.346,4.673l10.514,16.94l-4.673,8.762l-11.099-4.09l-8.178-8.178l1.752,12.268l8.467,9.346L254,185.608v13.728l6.62,13.727
		l-4.284,13.436l-12.363,14.019l-11.902-5.842L219,223.577v10.806l-10.928-8.469l-12.473,1.168l-13.54-7.594l-13.7,9.346
		l-3.314-15.188l-8.436,7.594L140,215.982v19.277l-11.562-2.337L116,225.329v-13.727l-14-7.302v-8.471l-16.827-13.727l17.434-15.188
		l-17.569-11.684l11.075-10.514l-5.268-18.713l-16.362-3.119c0,0-8.181-5.622-7.012-7.375c1.167-1.752,13.435-9.347,13.435-9.347
		l-1.608-10.66l-2.192-7.01l6.134-1.314l-4.82-3.943l1.753-10.076l3.505,1.752l-9.639-10.514l1.753-6.572l7.886-4.38l0.875,2.628
		c0,0,14.019,4.819,14.019,3.504c0-1.314-1.808-11.828-1.808-11.828L106,41.62v5.257l6.144,9.2l6.139-7.01l7.888-6.133l5.697,3.943
		l4.82-12.267l10.077,3.504l-2.314-6.571L136,27.163v-4.819l5.162-1.752l-3.77-2.718l4.115-6.223h3.942l6.133-6.044l14.896,2.893
		l1.829,8.236l16.133,1.708l5.257,3.483l7.448-9.21l-4.382-7.454c0,0,0-3.068,6.134-5.259c0,0,0.438,3.502,3.066,4.816
		c2.629,1.314,5.257,2.19,5.257,2.19L215.545,0l0.438,6.571l7.447-6.375l4.819,5.453H235.114z"/>
	<path style="fill:#485121;" d="M235.848,6.791L242,15.334v7.009l5.965,1.307h-6.134l3.942,8h-6.571c0,0,7.887,5,8.763,12h-4.382
		l4.382,6.433l-4.382,4.114l6.572,2.9l-2.629,4.308l2.629,2.593l-3.729,6.241L256,77.981v7.448l8,5.257v6.963h4.117l3.797,14.027
		l-5.987-1.15l-1.314,1.781l-10.774-1.937l-4.121,0.917l-10.077-9.637l-11.828-4.388l5.258-4.383l-5.258-3.053l12.268-2.178h3.504
		l-2.628-2.863l-13.144-2.413l7.01-3.725h-12.267l-4.381-4.934l5.236-1.592L212,66.591v-4.819l-10.933-8.324l5.048-2.629
		l-5.361-5.695l5.205-2.19l-0.902-8.324l8.311,4.819l1.308-4.819l2.188,5.695l5.255-3.066l1.752,7.447l6.571-0.438l2.629,3.505
		l-1.753-10.077l-3.505,1.315l-2.19-5.695l-0.876,5.695l-5.695-8.763l-6.134-2.19l2.191-6.134l5.695,1.315l2.19-6.572l3.066,7.01
		l5.695-4.819l4.527-3.067l-5.842-3.067l3.943-2.19l0.772-4.819"/>
	<path style="fill:#485121;" d="M255,129.65v5.723l8.749,3.066l-2.124,1.273l2.426,3.938H272v6.617l4.191,5.258l-5.389,3.719
		c0,0,2.618,8.549,3.057,12.93s-8.785-3.943-8.785-3.943l-7.897-2.191l-3.073-6.425l-4.384,6.134l-13.437-11.975l11.682-0.293
		l-9.639-4.965l11.391-3.943l-7.886-4.381l9.2-2.424l-3.942-8.117H255z"/>
	<polygon style="fill:#485121;" points="257.601,175.65 260.231,180.65 254.974,180.65 260.231,189.65 255.851,189.65 
		264.174,196.684 259.617,201.076 272,214.23 272,220.364 266.116,216.502 263.298,219.65 257.603,219.65 266.803,233.15 
		254.974,230.7 256.445,238.237 250,234.21 250,240.517 241,239.067 241,246.65 232.528,240.517 228,246.65 228,238.765 
		238.637,234.886 241.221,232.631 234.077,224.745 244.964,220.803 230.475,214.596 248.419,205.469 245.345,198.021 
		239.206,194.078 236.283,190.136 244.898,191.012 246.65,195.393 247.526,197.582 253.222,196.707 250.155,190.573 
		251.469,180.557 253.222,175.65 	"/>
	<path style="fill:#485121;" d="M175.634,114.802l8.565,14.448l2.529,12.699c0,0,2.142,10.033,3.895,9.396s-5.721,4.801-5.721,4.801
		l8.738,8.504h-12.267l10.076,9h-10.953l4.053,10h-5.805l-0.693,5.652L170,186.631v5.695l-9.209-4.381l-4.824-14.498l6.57,2.23
		c0,0-7.887-7.447-6.572-8.762c1.313-1.314,7.886-4.381,7.886-4.381l-4.106-8.971l9.89-2.221l-1.326-8.522l1.327-5.696l-3.595-7.885
		l3.594,1.314l2.978-6.572l2.117-0.438L175.634,114.802z"/>
</g>
<g id="Layer_1">
</g>
</svg>
