<?xml version="1.0" encoding="iso-8859-1"?>
<!-- Generator: Adobe Illustrator 15.1.0, SVG Export Plug-In . SVG Version: 6.00 Build 0)  -->
<!DOCTYPE svg PUBLIC "-//W3C//DTD SVG 1.1//EN" "http://www.w3.org/Graphics/SVG/1.1/DTD/svg11.dtd">
<svg version="1.1" xmlns="http://www.w3.org/2000/svg" xmlns:xlink="http://www.w3.org/1999/xlink" x="0px" y="0px" width="340px"
	 height="299.607px" viewBox="0 0 340 299.607" style="enable-background:new 0 0 340 299.607;" xml:space="preserve">
<g id="Layer_1_1_">
	<polygon style="fill:#485121;" points="120.89,159.785 128.299,151.773 116.133,152.889 111.632,143.325 123.086,141.454 
		129.957,140.33 122.363,137.042 104.503,135.675 105.99,130.416 92.614,124.094 102.412,120.336 108.407,112.619 96.804,106.235 
		106.667,98.693 88.133,89.408 72.435,92.89 75.334,76.644 93.826,64.177 76.327,60.307 82.535,58.7 81.262,53.668 70.929,48.841 
		78.226,41.667 73.41,39.075 66.573,38.383 69.463,30.88 64.702,26.929 68.106,19.341 66.884,8.96 66.684,7.255 56.432,17.699 
		61.181,21.08 52.388,28.942 57.458,30.435 49.784,38.188 53.231,41.057 45.464,47.712 49,51.683 50.267,58.736 47.594,67.94 
		55.905,72.054 53.287,82.446 42.377,92.89 45.359,100.769 42.377,107.656 58.713,110.888 55.028,120.161 72.457,119.481 
		60.641,129.908 62.24,139.701 50.727,157.396 58.691,158.449 52.716,170.006 74.612,174.533 74.906,174.023 75.003,174.613 
		76.591,184.329 85.102,182.938 87.784,173.684 97.439,182.418 97.144,169.799 106.791,178.614 111.275,166.314 133.889,164.383 	
		"/>
	<g>
		<radialGradient id="SVGID_1_" cx="47.5" cy="169.5957" r="304.9739" gradientUnits="userSpaceOnUse">
			<stop  offset="0" style="stop-color:#383D21"/>
			<stop  offset="0.3076" style="stop-color:#313522"/>
			<stop  offset="0.7947" style="stop-color:#1C1E23"/>
			<stop  offset="1" style="stop-color:#121224"/>
		</radialGradient>
		<path style="fill:url(#SVGID_1_);" d="M335.279,126.255l-5.538-0.897l0.023,4.379l-5.082-0.182l1.313,5.404l-5.572-1.872
			l-0.81,3.322l-4.578-1.741l2.965-1.589v-6.879l8.638-16.537l-8.735-4.106l-6.979-9.533l-14.512,10.364l-8.129-10.364
			l-24.348,11.624l-9.599-6.688l-17.479,7.738l-18.146,0.704l20.828-8.441l-5.497-7.275l18.552-5.78l-2.247-10.937l7.568-7.758
			l-11.497-1.593l-4.268-9.303l-22.796,5.557l-11.102-1.538l-10.188-6.063l-20.791,1.772l-13.38-1.853l1.844-5.652l11.136-8.761
			l-9.574-6.093l6.985-11.321l-27.873-4.372L137.71,7.255l-11.777,15.237l-8.241-12.454L106.86,9.506L95.934,0l-7.867,8.581
			L67.129,7.553L66.884,8.96l1.222,10.381l-3.405,7.588l4.761,3.951l-2.89,7.503l6.837,0.692l4.816,2.592l-7.297,7.173l10.333,4.828
			l1.273,5.032l-6.208,1.606l17.499,3.871L75.334,76.644l-2.9,16.246l15.698-3.481l18.534,9.285l-9.863,7.542l11.604,6.383
			l-5.996,7.717l-9.798,3.758l13.376,6.322l-1.487,5.259l17.86,1.367l7.593,3.288l-6.871,1.124l-11.454,1.872l4.501,9.563
			l12.166-1.115l-7.41,8.012l12.999,4.598l-22.614,1.932l-4.484,12.3l-9.646-8.815l0.295,12.619l-9.655-8.734l-2.682,9.254
			l-8.511,1.392l-1.588-9.716l-0.391-0.08l-5.914,10.255l-6.692-3.367l0,0l-10.327,0.584l-15.04-3.712l-9.139,6.036l3,14.749
			l-15,3.927l10,20.5c20.938-3.773,19.021-11.188,29.5-2.5c9.854,8.169,5.785,23.446,18,25.14c5.693,0.789,36.933,0.395,43,0
			l-12.642,6.36l-2.144,9.228l-13.081,3.772l-0.501,10.548L78,279.307l-5.5,13.301H84l0.338-5.193l19.02-1.383l-2.177-5.806
			l22.319,2.286l-7.92-8.295l14.92,0.79l-2.582-5.903L139,270.506l1.388-6.561L151,267.004c0,0,24.916-4.615,35.5-9.999l4.962-5.03
			l3.729-3.781l3.726-3.778l4.961-5.031l2.979-3.021l4.806-4.873c2.758-1.854,7.112-0.078,9.838-1.985
			c2.098-1.468,2.573-6.606,4.648-8.099c2.336-1.68,9.048,4.805,11.352,3.099c3.666-2.715,1.93-18.742,5.5-21.5
			c0,0,16.354,12.987,21,9.214l12-14.214c1.193-1.284-1.07-6.765,0.309-8.249c1.579-1.698,7.915-3.516,9.691-5.427
			c3.001-3.229,1.602-6.722,4.974-10.349c2.272-2.443,14.677-5.949,17.026-8.476c0,0,26.717-38.525,30.646-42.64l-4.839-0.519
			L335.279,126.255z"/>
		<radialGradient id="SVGID_2_" cx="47.5" cy="161.0049" r="302.6852" gradientUnits="userSpaceOnUse">
			<stop  offset="0" style="stop-color:#383D21"/>
			<stop  offset="0.3076" style="stop-color:#313522"/>
			<stop  offset="0.7947" style="stop-color:#1C1E23"/>
			<stop  offset="1" style="stop-color:#121224"/>
		</radialGradient>
		<path style="fill:url(#SVGID_2_);" d="M340,120.912c0,0-0.643,0.688-1.852,1.953l1.852,0.199V120.912z"/>
	</g>
	<polygon style="fill:#485121;" points="81.885,234.115 86.764,226.789 65.717,225.061 65.603,220.57 54.393,216.522 
		58.662,212.258 50.176,207.436 53.483,202.676 46.31,199.111 48.805,194.592 42.087,190.025 42.246,184.432 38.369,182.021 
		36.639,178.293 25.247,183.584 13.585,186.115 13.895,194.378 6.199,197.953 6.047,201.082 0,206.396 15.168,204.37 
		12.475,211.463 10.902,214.217 17.898,213.224 17.258,218.771 24.994,219.589 25.254,224.509 50.404,218.838 44.655,225.281 
		36.222,224.957 35.573,229.495 29.385,230.217 30.272,231.962 27.566,237.967 37.095,233.756 38.449,238.025 47.633,230.701 
		42.378,238.209 56.18,232.254 60.799,241.47 65.25,243.717 64.333,249.505 71.495,245.848 76.333,249.505 85.086,246.145 
		88.93,242.346 103.358,240.709 88.418,234.811 	"/>
	<polygon style="fill:#485121;" points="66.581,287.906 66.581,287.906 60.286,292.505 60.286,299.607 77.056,285.996 
		77.272,292.578 83.97,284.602 87.068,287.837 92.084,277.214 90.676,286.271 100.44,274.842 108.648,281.078 110.887,275.97 
		105.181,265.234 109.153,266.293 113.864,263.122 122.532,263.258 124.309,258.154 136.539,250.326 120.528,251.614 
		114.358,253.871 115.509,245.145 95.854,252.867 83.309,274.445 	"/>
	
		<radialGradient id="SVGID_3_" cx="116.7729" cy="292.0527" r="106.9151" gradientTransform="matrix(1.0253 -0.5289 0.3887 0.7536 -54.6492 108.6244)" gradientUnits="userSpaceOnUse">
		<stop  offset="0" style="stop-color:#383D21"/>
		<stop  offset="0.3076" style="stop-color:#313522"/>
		<stop  offset="0.7947" style="stop-color:#1C1E23"/>
		<stop  offset="1" style="stop-color:#121224"/>
	</radialGradient>
	<polygon style="fill:url(#SVGID_3_);" points="161.379,218.809 157.419,245.73 164.803,249.666 163.467,256.828 170.334,270.142 
		171.711,281.2 193.889,280.573 202.137,286.497 216.157,262.09 233.903,239.869 229.768,231.852 244.583,220.308 238.009,207.563 
		240.663,188.383 215.361,195.709 216.389,179.914 206.891,190.018 184.269,196.584 176.897,205.691 162.885,212.92 	"/>
	<polygon style="fill:#485121;" points="162.578,212.949 153.06,228.578 154.007,238.49 159.134,235.846 150.283,248.045 
		162.244,241.875 154.559,256.334 163.467,256.828 157.654,271.913 175.568,262.672 163.096,282.464 175.977,281.079 
		183.357,287.278 185.026,280.823 195.617,285.602 200.89,275.69 214.482,265.005 204.262,263.773 203.855,249.873 208.884,244.213 
		200.318,241.029 181.156,248.34 198.395,238.651 202.017,230.899 193.814,235.131 187.16,234.168 190.552,223.773 181.737,225.141 
		183.576,215.285 168.611,219.825 	"/>
</g>
<g id="Layer_1">
</g>
</svg>
